<svg xmlns="http://www.w3.org/2000/svg" xmlns:xlink="http://www.w3.org/1999/xlink" xmlns:lucid="lucid" width="1511" height="1429"><g transform="translate(4341 421)" lucid:page-tab-id="0_0"><path d="M-4500-500h2000v1500h-2000z" fill="#fff"/><path d="M-4060 686a6 6 0 0 1 6-6h337a6 6 0 0 1 6 6v295a6 6 0 0 1-6 6h-337a6 6 0 0 1-6-6z" stroke="#00c2a8" stroke-width="2" fill="#d7faf5"/><path d="M-4060 717.6h349m-349 188.7h349" stroke="#00c2a8" stroke-width="2" fill="none"/><use xlink:href="#a" transform="matrix(1,0,0,1,-4052,688) translate(131.025 14.6)"/><use xlink:href="#b" transform="matrix(1,0,0,1,-4048,725.6) translate(0 25.300000000000004)"/><use xlink:href="#c" transform="matrix(1,0,0,1,-4048,725.6) translate(10.95 25.300000000000004)"/><use xlink:href="#d" transform="matrix(1,0,0,1,-4048,725.6) translate(153.75 25.300000000000004)"/><use xlink:href="#b" transform="matrix(1,0,0,1,-4048,725.6) translate(0 46.900000000000006)"/><use xlink:href="#e" transform="matrix(1,0,0,1,-4048,725.6) translate(10.95 46.900000000000006)"/><use xlink:href="#f" transform="matrix(1,0,0,1,-4048,725.6) translate(100.85000000000001 46.900000000000006)"/><use xlink:href="#b" transform="matrix(1,0,0,1,-4048,725.6) translate(0 68.50000000000001)"/><use xlink:href="#g" transform="matrix(1,0,0,1,-4048,725.6) translate(10.95 68.50000000000001)"/><use xlink:href="#f" transform="matrix(1,0,0,1,-4048,725.6) translate(106.80000000000001 68.50000000000001)"/><use xlink:href="#b" transform="matrix(1,0,0,1,-4048,725.6) translate(0 90.10000000000002)"/><use xlink:href="#h" transform="matrix(1,0,0,1,-4048,725.6) translate(10.95 90.10000000000002)"/><use xlink:href="#d" transform="matrix(1,0,0,1,-4048,725.6) translate(118.75000000000001 90.10000000000002)"/><use xlink:href="#b" transform="matrix(1,0,0,1,-4048,725.6) translate(0 111.70000000000002)"/><use xlink:href="#i" transform="matrix(1,0,0,1,-4048,725.6) translate(10.95 111.70000000000002)"/><use xlink:href="#f" transform="matrix(1,0,0,1,-4048,725.6) translate(111.85000000000001 111.70000000000002)"/><use xlink:href="#b" transform="matrix(1,0,0,1,-4048,725.6) translate(0 133.3)"/><use xlink:href="#j" transform="matrix(1,0,0,1,-4048,725.6) translate(10.95 133.3)"/><use xlink:href="#d" transform="matrix(1,0,0,1,-4048,725.6) translate(101.80000000000001 133.3)"/><use xlink:href="#b" transform="matrix(1,0,0,1,-4048,725.6) translate(0 154.9)"/><use xlink:href="#k" transform="matrix(1,0,0,1,-4048,725.6) translate(10.95 154.9)"/><use xlink:href="#l" transform="matrix(1,0,0,1,-4048,725.6) translate(140.89999999999998 154.9)"/><use xlink:href="#m" transform="matrix(1,0,0,1,-4048,914.3) translate(0 25.299999999999997)"/><use xlink:href="#n" transform="matrix(1,0,0,1,-4048,914.3) translate(15.5 25.299999999999997)"/><use xlink:href="#o" transform="matrix(1,0,0,1,-4048,914.3) translate(157.25 25.299999999999997)"/><use xlink:href="#m" transform="matrix(1,0,0,1,-4048,914.3) translate(0 46.9)"/><use xlink:href="#p" transform="matrix(1,0,0,1,-4048,914.3) translate(15.5 46.9)"/><use xlink:href="#q" transform="matrix(1,0,0,1,-4048,914.3) translate(197.14999999999998 46.9)"/><path d="M-3200-54a6 6 0 0 1 6-6h337a6 6 0 0 1 6 6v252a6 6 0 0 1-6 6h-337a6 6 0 0 1-6-6z" stroke="#00c2a8" stroke-width="2" fill="#d7faf5"/><path d="M-3200-22.4h349m-349 59.1h349" stroke="#00c2a8" stroke-width="2" fill="none"/><use xlink:href="#r" transform="matrix(1,0,0,1,-3192,-52) translate(129.55 14.6)"/><use xlink:href="#b" transform="matrix(1,0,0,1,-3188,-14.399999999999999) translate(0 25.6)"/><use xlink:href="#s" transform="matrix(1,0,0,1,-3188,-14.399999999999999) translate(10.95 25.6)"/><use xlink:href="#l" transform="matrix(1,0,0,1,-3188,-14.399999999999999) translate(101.80000000000001 25.6)"/><use xlink:href="#m" transform="matrix(1,0,0,1,-3188,44.7) translate(0 25.6)"/><use xlink:href="#t" transform="matrix(1,0,0,1,-3188,44.7) translate(15.5 25.6)"/><use xlink:href="#o" transform="matrix(1,0,0,1,-3188,44.7) translate(178.2 25.6)"/><use xlink:href="#m" transform="matrix(1,0,0,1,-3188,44.7) translate(0 47.2)"/><use xlink:href="#u" transform="matrix(1,0,0,1,-3188,44.7) translate(15.5 47.2)"/><use xlink:href="#o" transform="matrix(1,0,0,1,-3188,44.7) translate(190.24999999999997 47.2)"/><use xlink:href="#m" transform="matrix(1,0,0,1,-3188,44.7) translate(0 68.80000000000001)"/><use xlink:href="#n" transform="matrix(1,0,0,1,-3188,44.7) translate(15.5 68.80000000000001)"/><use xlink:href="#o" transform="matrix(1,0,0,1,-3188,44.7) translate(157.25 68.80000000000001)"/><use xlink:href="#m" transform="matrix(1,0,0,1,-3188,44.7) translate(0 90.40000000000002)"/><use xlink:href="#v" transform="matrix(1,0,0,1,-3188,44.7) translate(15.5 90.40000000000002)"/><use xlink:href="#o" transform="matrix(1,0,0,1,-3188,44.7) translate(223.25 90.40000000000002)"/><use xlink:href="#m" transform="matrix(1,0,0,1,-3188,44.7) translate(0 112.00000000000001)"/><use xlink:href="#w" transform="matrix(1,0,0,1,-3188,44.7) translate(15.5 112.00000000000001)"/><use xlink:href="#x" transform="matrix(1,0,0,1,-3188,44.7) translate(160.14999999999998 112.00000000000001)"/><use xlink:href="#m" transform="matrix(1,0,0,1,-3188,44.7) translate(0 133.6)"/><use xlink:href="#y" transform="matrix(1,0,0,1,-3188,44.7) translate(15.5 133.6)"/><use xlink:href="#q" transform="matrix(1,0,0,1,-3188,44.7) translate(152.3 133.6)"/><path d="M-3900 276.5a6 6 0 0 1 6-6h337a6 6 0 0 1 6 6v144a6 6 0 0 1-6 6h-337a6 6 0 0 1-6-6z" stroke="#00c2a8" stroke-width="2" fill="#d7faf5"/><path d="M-3900 308.1h349m-349 59.1h349" stroke="#00c2a8" stroke-width="2" fill="none"/><use xlink:href="#z" transform="matrix(1,0,0,1,-3892,278.5) translate(130.05 14.6)"/><use xlink:href="#b" transform="matrix(1,0,0,1,-3888,316.1) translate(0 25.6)"/><use xlink:href="#A" transform="matrix(1,0,0,1,-3888,316.1) translate(10.95 25.6)"/><use xlink:href="#l" transform="matrix(1,0,0,1,-3888,316.1) translate(109.80000000000001 25.6)"/><use xlink:href="#m" transform="matrix(1,0,0,1,-3888,375.20000000000005) translate(0 25.6)"/><use xlink:href="#B" transform="matrix(1,0,0,1,-3888,375.20000000000005) translate(15.5 25.6)"/><use xlink:href="#q" transform="matrix(1,0,0,1,-3888,375.20000000000005) translate(190.2 25.6)"/><path d="M-4320 276a6 6 0 0 1 6-6h337a6 6 0 0 1 6 6v209a6 6 0 0 1-6 6h-337a6 6 0 0 1-6-6z" stroke="#00c2a8" stroke-width="2" fill="#d7faf5"/><path d="M-4320 307.6h349m-349 59.1h349" stroke="#00c2a8" stroke-width="2" fill="none"/><use xlink:href="#C" transform="matrix(1,0,0,1,-4312,278.0000000000001) translate(141.05 14.6)"/><use xlink:href="#b" transform="matrix(1,0,0,1,-4308,315.60000000000014) translate(0 25.6)"/><use xlink:href="#D" transform="matrix(1,0,0,1,-4308,315.60000000000014) translate(10.95 25.6)"/><use xlink:href="#l" transform="matrix(1,0,0,1,-4308,315.60000000000014) translate(118.5 25.6)"/><use xlink:href="#m" transform="matrix(1,0,0,1,-4308,374.70000000000016) translate(0 25.19999999999999)"/><use xlink:href="#E" transform="matrix(1,0,0,1,-4308,374.70000000000016) translate(15.5 25.19999999999999)"/><use xlink:href="#o" transform="matrix(1,0,0,1,-4308,374.70000000000016) translate(150.3 25.19999999999999)"/><use xlink:href="#m" transform="matrix(1,0,0,1,-4308,374.70000000000016) translate(0 46.79999999999999)"/><use xlink:href="#F" transform="matrix(1,0,0,1,-4308,374.70000000000016) translate(15.5 46.79999999999999)"/><use xlink:href="#o" transform="matrix(1,0,0,1,-4308,374.70000000000016) translate(162.29999999999998 46.79999999999999)"/><use xlink:href="#m" transform="matrix(1,0,0,1,-4308,374.70000000000016) translate(0 68.39999999999999)"/><use xlink:href="#n" transform="matrix(1,0,0,1,-4308,374.70000000000016) translate(15.5 68.39999999999999)"/><use xlink:href="#o" transform="matrix(1,0,0,1,-4308,374.70000000000016) translate(157.25 68.39999999999999)"/><use xlink:href="#m" transform="matrix(1,0,0,1,-4308,374.70000000000016) translate(0 90)"/><use xlink:href="#G" transform="matrix(1,0,0,1,-4308,374.70000000000016) translate(15.5 90)"/><use xlink:href="#q" transform="matrix(1,0,0,1,-4308,374.70000000000016) translate(143.25 90)"/><path d="M-3520 266a6 6 0 0 1 6-6h337a6 6 0 0 1 6 6v165a6 6 0 0 1-6 6h-337a6 6 0 0 1-6-6z" stroke="#00c2a8" stroke-width="2" fill="#d7faf5"/><path d="M-3520 297.6h349m-349 59.1h349" stroke="#00c2a8" stroke-width="2" fill="none"/><g><use xlink:href="#H" transform="matrix(1,0,0,1,-3512,268) translate(131.05 14.6)"/></g><g><use xlink:href="#b" transform="matrix(1,0,0,1,-3508,305.6) translate(0 25.6)"/><use xlink:href="#I" transform="matrix(1,0,0,1,-3508,305.6) translate(10.95 25.6)"/><use xlink:href="#l" transform="matrix(1,0,0,1,-3508,305.6) translate(107.80000000000001 25.6)"/></g><g><use xlink:href="#m" transform="matrix(1,0,0,1,-3508,364.70000000000005) translate(0 25.299999999999997)"/><use xlink:href="#J" transform="matrix(1,0,0,1,-3508,364.70000000000005) translate(15.5 25.299999999999997)"/><use xlink:href="#x" transform="matrix(1,0,0,1,-3508,364.70000000000005) translate(159.85 25.299999999999997)"/><use xlink:href="#m" transform="matrix(1,0,0,1,-3508,364.70000000000005) translate(0 46.9)"/><use xlink:href="#K" transform="matrix(1,0,0,1,-3508,364.70000000000005) translate(15.5 46.9)"/><use xlink:href="#q" transform="matrix(1,0,0,1,-3508,364.70000000000005) translate(150.25 46.9)"/></g><path d="M-3480-394a6 6 0 0 1 6-6h337a6 6 0 0 1 6 6v230a6 6 0 0 1-6 6h-337a6 6 0 0 1-6-6z" stroke="#00c2a8" stroke-width="2" fill="#d7faf5"/><path d="M-3480-362.4h349m-349 145.5h349" stroke="#00c2a8" stroke-width="2" fill="none"/><g><use xlink:href="#L" transform="matrix(1,0,0,1,-3472,-392) translate(147.55 14.6)"/></g><g><use xlink:href="#b" transform="matrix(1,0,0,1,-3468,-354.4) translate(0 25.39999999999999)"/><use xlink:href="#M" transform="matrix(1,0,0,1,-3468,-354.4) translate(10.95 25.39999999999999)"/><use xlink:href="#N" transform="matrix(1,0,0,1,-3468,-354.4) translate(34.9 25.39999999999999)"/><use xlink:href="#b" transform="matrix(1,0,0,1,-3468,-354.4) translate(0 46.99999999999999)"/><use xlink:href="#O" transform="matrix(1,0,0,1,-3468,-354.4) translate(10.95 46.99999999999999)"/><use xlink:href="#d" transform="matrix(1,0,0,1,-3468,-354.4) translate(65.9 46.99999999999999)"/><use xlink:href="#b" transform="matrix(1,0,0,1,-3468,-354.4) translate(0 68.6)"/><use xlink:href="#P" transform="matrix(1,0,0,1,-3468,-354.4) translate(10.95 68.6)"/><use xlink:href="#f" transform="matrix(1,0,0,1,-3468,-354.4) translate(50.95 68.6)"/><use xlink:href="#b" transform="matrix(1,0,0,1,-3468,-354.4) translate(0 90.20000000000002)"/><use xlink:href="#Q" transform="matrix(1,0,0,1,-3468,-354.4) translate(10.95 90.20000000000002)"/><use xlink:href="#d" transform="matrix(1,0,0,1,-3468,-354.4) translate(70.95 90.20000000000002)"/><use xlink:href="#b" transform="matrix(1,0,0,1,-3468,-354.4) translate(0 111.80000000000001)"/><use xlink:href="#R" transform="matrix(1,0,0,1,-3468,-354.4) translate(10.95 111.80000000000001)"/><use xlink:href="#l" transform="matrix(1,0,0,1,-3468,-354.4) translate(63.80000000000001 111.80000000000001)"/></g><path d="M-4145.5 492.5v65a6 6 0 0 0 6 6h248a6 6 0 0 1 6 6v109" stroke="#3a414a" fill="none"/><path d="M-4145.02 492.5h-.95v-.5h.95zM-3885.03 679h-.94v-.5h.94z" stroke="#3a414a" stroke-width=".05" fill="#3a414a"/><path d="M-3980-54a6 6 0 0 1 6-6h337a6 6 0 0 1 6 6V90a6 6 0 0 1-6 6h-337a6 6 0 0 1-6-6z" stroke="#00c2a8" stroke-width="2" fill="#d7faf5"/><path d="M-3980-22.4h349m-349 59.1h349" stroke="#00c2a8" stroke-width="2" fill="none"/><g><use xlink:href="#S" transform="matrix(1,0,0,1,-3972,-52) translate(148.175 14.6)"/></g><g><use xlink:href="#b" transform="matrix(1,0,0,1,-3968,-14.399999999999999) translate(0 25.6)"/><use xlink:href="#T" transform="matrix(1,0,0,1,-3968,-14.399999999999999) translate(10.95 25.6)"/><use xlink:href="#l" transform="matrix(1,0,0,1,-3968,-14.399999999999999) translate(50.849999999999994 25.6)"/></g><path d="M-3341.34 258.5v-69.25a6 6 0 0 0-6-6h-452.16a6 6 0 0 1-6-6v-63.87" stroke="#3a414a" fill="none"/><path d="M-3340.86 259h-.95v-.5h.94z" stroke="#3a414a" stroke-width=".05" fill="#3a414a"/><path d="M-3805.5 98.62l4.64 14.26h-9.28z" stroke="#3a414a" fill="#fff"/><path d="M-3805.5-61.5V-103a6 6 0 0 1 6-6h488a6 6 0 0 0 6-6v-30.37" stroke="#3a414a" fill="none"/><path d="M-3805.03-61h-.94v-.5h.94z" stroke="#3a414a" stroke-width=".05" fill="#3a414a"/><path d="M-3305.5-156.02l7.64 12.9h-15.28z" stroke="#3a414a" fill="#fff"/><path d="M-3025.5-61.5V-103a6 6 0 0 0-6-6h-268a6 6 0 0 1-6-6v-30.37" stroke="#3a414a" fill="none"/><path d="M-3025.03-61h-.94v-.5h.94z" stroke="#3a414a" stroke-width=".05" fill="#3a414a"/><path d="M-3305.5-156.02l7.64 12.9h-15.28z" stroke="#3a414a" fill="#fff"/><path d="M-3725.5 269v-79.75a6 6 0 0 0-6-6h-68a6 6 0 0 1-6-6v-63.87" stroke="#3a414a" fill="none"/><path d="M-3725.03 269.5h-.94v-.5h.94z" stroke="#3a414a" stroke-width=".05" fill="#3a414a"/><path d="M-3805.5 98.62l4.64 14.26h-9.28z" stroke="#3a414a" fill="#fff"/><path d="M-4145.5 268.5V189a6 6 0 0 1 6-6h328a6 6 0 0 0 6-6v-63.62" stroke="#3a414a" fill="none"/><path d="M-4145.02 269h-.95v-.5h.95z" stroke="#3a414a" stroke-width=".05" fill="#3a414a"/><path d="M-3805.5 98.62l4.64 14.26h-9.28z" stroke="#3a414a" fill="#fff"/><path d="M-3345.5 438.5v119a6 6 0 0 1-6 6h-528a6 6 0 0 0-6 6v109" stroke="#3a414a" fill="none"/><path d="M-3345.03 438.5h-.94v-.5h.94zM-3885.03 679h-.94v-.5h.94z" stroke="#3a414a" stroke-width=".05" fill="#3a414a"/><path d="M-3025.5 205.5v272a6 6 0 0 1-6 6H-3134a6 6 0 0 0-6 6v29" stroke="#3a414a" fill="none"/><path d="M-3025.03 205.5h-.94v-.5h.94zM-3139.53 519h-.94v-.5h.94z" stroke="#3a414a" stroke-width=".05" fill="#3a414a"/><path d="M-3320 526a6 6 0 0 1 6-6h348a6 6 0 0 1 6 6v212a6 6 0 0 1-6 6h-348a6 6 0 0 1-6-6z" stroke="#00c2a8" stroke-width="2" fill="#d7faf5"/><path d="M-3320 562.67h360m-360 117.5h360" stroke="#00c2a8" stroke-width="2" fill="none"/><g><use xlink:href="#U" transform="matrix(1,0,0,1,-3312,528) translate(119.00617283950616 17.944444444444443)"/></g><g><use xlink:href="#V" transform="matrix(1,0,0,1,-3308,570.6666666666666) translate(0 28.77777777777778)"/><use xlink:href="#W" transform="matrix(1,0,0,1,-3308,570.6666666666666) translate(13.518518518518519 28.77777777777778)"/><use xlink:href="#X" transform="matrix(1,0,0,1,-3308,570.6666666666666) translate(150.37037037037038 28.77777777777778)"/><use xlink:href="#V" transform="matrix(1,0,0,1,-3308,570.6666666666666) translate(0 55.44444444444445)"/><use xlink:href="#Y" transform="matrix(1,0,0,1,-3308,570.6666666666666) translate(13.518518518518519 55.44444444444445)"/><use xlink:href="#Z" transform="matrix(1,0,0,1,-3308,570.6666666666666) translate(194.81481481481478 55.44444444444445)"/><use xlink:href="#V" transform="matrix(1,0,0,1,-3308,570.6666666666666) translate(0 82.11111111111111)"/><use xlink:href="#aa" transform="matrix(1,0,0,1,-3308,570.6666666666666) translate(13.518518518518519 82.11111111111111)"/><use xlink:href="#ab" transform="matrix(1,0,0,1,-3308,570.6666666666666) translate(179.93827160493828 82.11111111111111)"/></g><path d="M-3725.5 428v198a6 6 0 0 0 6 6h398" stroke="#3a414a" fill="none"/><path d="M-3725.03 428h-.94v-.5h.94zM-3321 632.48h-.5v-.96h.5z" stroke="#3a414a" stroke-width=".05" fill="#3a414a"/><path d="M-3140 745.5v82a6 6 0 0 1-6 6h-563.5" stroke="#3a414a" fill="none"/><path d="M-3139.53 745.5h-.94v-.5h.94zM-3709.5 833.98h-.5V833h.5z" stroke="#3a414a" stroke-width=".05" fill="#3a414a"/><path d="M-3345.5 438.5v34a6 6 0 0 0 6 6h193.5a6 6 0 0 1 6 6v34" stroke="#3a414a" fill="none"/><path d="M-3345.03 438.5h-.94v-.5h.94zM-3139.53 519h-.94v-.5h.94z" stroke="#3a414a" stroke-width=".05" fill="#3a414a"/><defs><path fill="#3a414a" d="M30-248c87 1 191-15 191 75 0 78-77 80-158 76V0H30v-248zm33 125c57 0 124 11 124-50 0-59-68-47-124-48v98" id="ac"/><path fill="#3a414a" d="M141-36C126-15 110 5 73 4 37 3 15-17 15-53c-1-64 63-63 125-63 3-35-9-54-41-54-24 1-41 7-42 31l-33-3c5-37 33-52 76-52 45 0 72 20 72 64v82c-1 20 7 32 28 27v20c-31 9-61-2-59-35zM48-53c0 20 12 33 32 33 41-3 63-29 60-74-43 2-92-5-92 41" id="ad"/><path fill="#3a414a" d="M135-143c-3-34-86-38-87 0 15 53 115 12 119 90S17 21 10-45l28-5c4 36 97 45 98 0-10-56-113-15-118-90-4-57 82-63 122-42 12 7 21 19 24 35" id="ae"/><path fill="#3a414a" d="M115-194c55 1 70 41 70 98S169 2 115 4C84 4 66-9 55-30l1 105H24l-1-265h31l2 30c10-21 28-34 59-34zm-8 174c40 0 45-34 45-75s-6-73-45-74c-42 0-51 32-51 76 0 43 10 73 51 73" id="af"/><path fill="#3a414a" d="M100-194c62-1 85 37 85 99 1 63-27 99-86 99S16-35 15-95c0-66 28-99 85-99zM99-20c44 1 53-31 53-75 0-43-8-75-51-75s-53 32-53 75 10 74 51 75" id="ag"/><path fill="#3a414a" d="M114-163C36-179 61-72 57 0H25l-1-190h30c1 12-1 29 2 39 6-27 23-49 58-41v29" id="ah"/><path fill="#3a414a" d="M59-47c-2 24 18 29 38 22v24C64 9 27 4 27-40v-127H5v-23h24l9-43h21v43h35v23H59v120" id="ai"/><g id="a"><use transform="matrix(0.05,0,0,0.05,0,0)" xlink:href="#ac"/><use transform="matrix(0.05,0,0,0.05,12,0)" xlink:href="#ad"/><use transform="matrix(0.05,0,0,0.05,22,0)" xlink:href="#ae"/><use transform="matrix(0.05,0,0,0.05,31,0)" xlink:href="#ae"/><use transform="matrix(0.05,0,0,0.05,40,0)" xlink:href="#af"/><use transform="matrix(0.05,0,0,0.05,50,0)" xlink:href="#ag"/><use transform="matrix(0.05,0,0,0.05,60,0)" xlink:href="#ah"/><use transform="matrix(0.05,0,0,0.05,65.95,0)" xlink:href="#ai"/></g><path d="M16-82v-28h88v28H16" id="aj"/><use transform="matrix(0.05,0,0,0.05,0,0)" xlink:href="#aj" id="b"/><path d="M115-194c55 1 70 41 70 98S169 2 115 4C84 4 66-9 55-30l1 105H24l-1-265h31l2 30c10-21 28-34 59-34zm-8 174c40 0 45-34 45-75s-6-73-45-74c-42 0-51 32-51 76 0 43 10 73 51 73" id="ak"/><path d="M141-36C126-15 110 5 73 4 37 3 15-17 15-53c-1-64 63-63 125-63 3-35-9-54-41-54-24 1-41 7-42 31l-33-3c5-37 33-52 76-52 45 0 72 20 72 64v82c-1 20 7 32 28 27v20c-31 9-61-2-59-35zM48-53c0 20 12 33 32 33 41-3 63-29 60-74-43 2-92-5-92 41" id="al"/><path d="M135-143c-3-34-86-38-87 0 15 53 115 12 119 90S17 21 10-45l28-5c4 36 97 45 98 0-10-56-113-15-118-90-4-57 82-63 122-42 12 7 21 19 24 35" id="am"/><path d="M100-194c62-1 85 37 85 99 1 63-27 99-86 99S16-35 15-95c0-66 28-99 85-99zM99-20c44 1 53-31 53-75 0-43-8-75-51-75s-53 32-53 75 10 74 51 75" id="an"/><path d="M114-163C36-179 61-72 57 0H25l-1-190h30c1 12-1 29 2 39 6-27 23-49 58-41v29" id="ao"/><path d="M59-47c-2 24 18 29 38 22v24C64 9 27 4 27-40v-127H5v-23h24l9-43h21v43h35v23H59v120" id="ap"/><path d="M190 0L58-211 59 0H30v-248h39L202-35l-2-213h31V0h-41" id="aq"/><path d="M84 4C-5 8 30-112 23-190h32v120c0 31 7 50 39 49 72-2 45-101 50-169h31l1 190h-30c-1-10 1-25-2-33-11 22-28 36-60 37" id="ar"/><path d="M210-169c-67 3-38 105-44 169h-31v-121c0-29-5-50-35-48C34-165 62-65 56 0H25l-1-190h30c1 10-1 24 2 32 10-44 99-50 107 0 11-21 27-35 58-36 85-2 47 119 55 194h-31v-121c0-29-5-49-35-48" id="as"/><path d="M115-194c53 0 69 39 70 98 0 66-23 100-70 100C84 3 66-7 56-30L54 0H23l1-261h32v101c10-23 28-34 59-34zm-8 174c40 0 45-34 45-75 0-40-5-75-45-74-42 0-51 32-51 76 0 43 10 73 51 73" id="at"/><path d="M100-194c63 0 86 42 84 106H49c0 40 14 67 53 68 26 1 43-12 49-29l28 8c-11 28-37 45-77 45C44 4 14-33 15-96c1-61 26-98 85-98zm52 81c6-60-76-77-97-28-3 7-6 17-6 28h103" id="au"/><path d="M33-154v-36h34v36H33zM33 0v-36h34V0H33" id="av"/><g id="c"><use transform="matrix(0.05,0,0,0.05,0,0)" xlink:href="#ak"/><use transform="matrix(0.05,0,0,0.05,10,0)" xlink:href="#al"/><use transform="matrix(0.05,0,0,0.05,20,0)" xlink:href="#am"/><use transform="matrix(0.05,0,0,0.05,29,0)" xlink:href="#am"/><use transform="matrix(0.05,0,0,0.05,38,0)" xlink:href="#ak"/><use transform="matrix(0.05,0,0,0.05,48,0)" xlink:href="#an"/><use transform="matrix(0.05,0,0,0.05,58,0)" xlink:href="#ao"/><use transform="matrix(0.05,0,0,0.05,63.95,0)" xlink:href="#ap"/><use transform="matrix(0.05,0,0,0.05,68.95,0)" xlink:href="#aq"/><use transform="matrix(0.05,0,0,0.05,81.9,0)" xlink:href="#ar"/><use transform="matrix(0.05,0,0,0.05,91.9,0)" xlink:href="#as"/><use transform="matrix(0.05,0,0,0.05,106.85000000000001,0)" xlink:href="#at"/><use transform="matrix(0.05,0,0,0.05,116.85000000000001,0)" xlink:href="#au"/><use transform="matrix(0.05,0,0,0.05,126.85000000000001,0)" xlink:href="#ao"/><use transform="matrix(0.05,0,0,0.05,132.8,0)" xlink:href="#av"/></g><path d="M24-231v-30h32v30H24zM24 0v-190h32V0H24" id="aw"/><path d="M117-194c89-4 53 116 60 194h-32v-121c0-31-8-49-39-48C34-167 62-67 57 0H25l-1-190h30c1 10-1 24 2 32 11-22 29-35 61-36" id="ax"/><path d="M177-190C167-65 218 103 67 71c-23-6-38-20-44-43l32-5c15 47 100 32 89-28v-30C133-14 115 1 83 1 29 1 15-40 15-95c0-56 16-97 71-98 29-1 48 16 59 35 1-10 0-23 2-32h30zM94-22c36 0 50-32 50-73 0-42-14-75-50-75-39 0-46 34-46 75s6 73 46 73" id="ay"/><g id="d"><use transform="matrix(0.05,0,0,0.05,0,0)" xlink:href="#am"/><use transform="matrix(0.05,0,0,0.05,9,0)" xlink:href="#ap"/><use transform="matrix(0.05,0,0,0.05,14,0)" xlink:href="#ao"/><use transform="matrix(0.05,0,0,0.05,19.95,0)" xlink:href="#aw"/><use transform="matrix(0.05,0,0,0.05,23.9,0)" xlink:href="#ax"/><use transform="matrix(0.05,0,0,0.05,33.9,0)" xlink:href="#ay"/></g><path d="M30-248c118-7 216 8 213 122C240-48 200 0 122 0H30v-248zM63-27c89 8 146-16 146-99s-60-101-146-95v194" id="az"/><g id="e"><use transform="matrix(0.05,0,0,0.05,0,0)" xlink:href="#aw"/><use transform="matrix(0.05,0,0,0.05,3.95,0)" xlink:href="#am"/><use transform="matrix(0.05,0,0,0.05,12.949999999999998,0)" xlink:href="#am"/><use transform="matrix(0.05,0,0,0.05,21.95,0)" xlink:href="#ar"/><use transform="matrix(0.05,0,0,0.05,31.950000000000003,0)" xlink:href="#au"/><use transform="matrix(0.05,0,0,0.05,41.95,0)" xlink:href="#az"/><use transform="matrix(0.05,0,0,0.05,54.900000000000006,0)" xlink:href="#al"/><use transform="matrix(0.05,0,0,0.05,64.9,0)" xlink:href="#ap"/><use transform="matrix(0.05,0,0,0.05,69.9,0)" xlink:href="#au"/><use transform="matrix(0.05,0,0,0.05,79.9,0)" xlink:href="#av"/></g><g id="f"><use transform="matrix(0.05,0,0,0.05,0,0)" xlink:href="#az"/><use transform="matrix(0.05,0,0,0.05,12.950000000000001,0)" xlink:href="#al"/><use transform="matrix(0.05,0,0,0.05,22.950000000000003,0)" xlink:href="#ap"/><use transform="matrix(0.05,0,0,0.05,27.950000000000003,0)" xlink:href="#au"/></g><path d="M141 0L90-78 38 0H4l68-98-65-92h35l48 74 47-74h35l-64 92 68 98h-35" id="aA"/><path d="M179-190L93 31C79 59 56 82 12 73V49c39 6 53-20 64-50L1-190h34L92-34l54-156h33" id="aB"/><g id="g"><use transform="matrix(0.05,0,0,0.05,0,0)" xlink:href="#au"/><use transform="matrix(0.05,0,0,0.05,10,0)" xlink:href="#aA"/><use transform="matrix(0.05,0,0,0.05,19,0)" xlink:href="#ak"/><use transform="matrix(0.05,0,0,0.05,29,0)" xlink:href="#aw"/><use transform="matrix(0.05,0,0,0.05,32.95,0)" xlink:href="#ao"/><use transform="matrix(0.05,0,0,0.05,38.900000000000006,0)" xlink:href="#aB"/><use transform="matrix(0.05,0,0,0.05,47.900000000000006,0)" xlink:href="#az"/><use transform="matrix(0.05,0,0,0.05,60.85,0)" xlink:href="#al"/><use transform="matrix(0.05,0,0,0.05,70.85000000000001,0)" xlink:href="#ap"/><use transform="matrix(0.05,0,0,0.05,75.85000000000001,0)" xlink:href="#au"/><use transform="matrix(0.05,0,0,0.05,85.85000000000001,0)" xlink:href="#av"/></g><path d="M106-169C34-169 62-67 57 0H25v-261h32l-1 103c12-21 28-36 61-36 89 0 53 116 60 194h-32v-121c2-32-8-49-39-48" id="aC"/><path d="M24 0v-261h32V0H24" id="aD"/><path d="M85-194c31 0 48 13 60 33l-1-100h32l1 261h-30c-2-10 0-23-3-31C134-8 116 4 85 4 32 4 16-35 15-94c0-66 23-100 70-100zm9 24c-40 0-46 34-46 75 0 40 6 74 45 74 42 0 51-32 51-76 0-42-9-74-50-73" id="aE"/><g id="h"><use transform="matrix(0.05,0,0,0.05,0,0)" xlink:href="#aC"/><use transform="matrix(0.05,0,0,0.05,10,0)" xlink:href="#an"/><use transform="matrix(0.05,0,0,0.05,20,0)" xlink:href="#aD"/><use transform="matrix(0.05,0,0,0.05,23.95,0)" xlink:href="#aE"/><use transform="matrix(0.05,0,0,0.05,33.95,0)" xlink:href="#au"/><use transform="matrix(0.05,0,0,0.05,43.95,0)" xlink:href="#ao"/><use transform="matrix(0.05,0,0,0.05,49.900000000000006,0)" xlink:href="#aq"/><use transform="matrix(0.05,0,0,0.05,62.85,0)" xlink:href="#al"/><use transform="matrix(0.05,0,0,0.05,72.85000000000001,0)" xlink:href="#as"/><use transform="matrix(0.05,0,0,0.05,87.80000000000001,0)" xlink:href="#au"/><use transform="matrix(0.05,0,0,0.05,97.80000000000001,0)" xlink:href="#av"/></g><path d="M140-251c81 0 123 46 123 126C263-46 219 4 140 4 59 4 17-45 17-125s42-126 123-126zm0 227c63 0 89-41 89-101s-29-99-89-99c-61 0-89 39-89 99S79-25 140-24" id="aF"/><path d="M101-234c-31-9-42 10-38 44h38v23H63V0H32v-167H5v-23h27c-7-52 17-82 69-68v24" id="aG"/><path d="M160-131c35 5 61 23 61 61C221 17 115-2 30 0v-248c76 3 177-17 177 60 0 33-19 50-47 57zm-97-11c50-1 110 9 110-42 0-47-63-36-110-37v79zm0 115c55-2 124 14 124-45 0-56-70-42-124-44v89" id="aH"/><g id="i"><use transform="matrix(0.05,0,0,0.05,0,0)" xlink:href="#aE"/><use transform="matrix(0.05,0,0,0.05,10,0)" xlink:href="#al"/><use transform="matrix(0.05,0,0,0.05,20,0)" xlink:href="#ap"/><use transform="matrix(0.05,0,0,0.05,25,0)" xlink:href="#au"/><use transform="matrix(0.05,0,0,0.05,35,0)" xlink:href="#aF"/><use transform="matrix(0.05,0,0,0.05,49,0)" xlink:href="#aG"/><use transform="matrix(0.05,0,0,0.05,54,0)" xlink:href="#aH"/><use transform="matrix(0.05,0,0,0.05,66,0)" xlink:href="#aw"/><use transform="matrix(0.05,0,0,0.05,69.95,0)" xlink:href="#ao"/><use transform="matrix(0.05,0,0,0.05,75.9,0)" xlink:href="#ap"/><use transform="matrix(0.05,0,0,0.05,80.9,0)" xlink:href="#aC"/><use transform="matrix(0.05,0,0,0.05,90.9,0)" xlink:href="#av"/></g><g id="j"><use transform="matrix(0.05,0,0,0.05,0,0)" xlink:href="#ax"/><use transform="matrix(0.05,0,0,0.05,10,0)" xlink:href="#al"/><use transform="matrix(0.05,0,0,0.05,20,0)" xlink:href="#ap"/><use transform="matrix(0.05,0,0,0.05,25,0)" xlink:href="#aw"/><use transform="matrix(0.05,0,0,0.05,28.950000000000003,0)" xlink:href="#an"/><use transform="matrix(0.05,0,0,0.05,38.95,0)" xlink:href="#ax"/><use transform="matrix(0.05,0,0,0.05,48.95,0)" xlink:href="#al"/><use transform="matrix(0.05,0,0,0.05,58.95,0)" xlink:href="#aD"/><use transform="matrix(0.05,0,0,0.05,62.900000000000006,0)" xlink:href="#aw"/><use transform="matrix(0.05,0,0,0.05,66.85000000000001,0)" xlink:href="#ap"/><use transform="matrix(0.05,0,0,0.05,71.85000000000001,0)" xlink:href="#aB"/><use transform="matrix(0.05,0,0,0.05,80.85000000000001,0)" xlink:href="#av"/></g><path d="M185-189c-5-48-123-54-124 2 14 75 158 14 163 119 3 78-121 87-175 55-17-10-28-26-33-46l33-7c5 56 141 63 141-1 0-78-155-14-162-118-5-82 145-84 179-34 5 7 8 16 11 25" id="aI"/><g id="k"><use transform="matrix(0.05,0,0,0.05,0,0)" xlink:href="#ak"/><use transform="matrix(0.05,0,0,0.05,10,0)" xlink:href="#al"/><use transform="matrix(0.05,0,0,0.05,20,0)" xlink:href="#am"/><use transform="matrix(0.05,0,0,0.05,29,0)" xlink:href="#am"/><use transform="matrix(0.05,0,0,0.05,38,0)" xlink:href="#ak"/><use transform="matrix(0.05,0,0,0.05,48,0)" xlink:href="#an"/><use transform="matrix(0.05,0,0,0.05,58,0)" xlink:href="#ao"/><use transform="matrix(0.05,0,0,0.05,63.95,0)" xlink:href="#ap"/><use transform="matrix(0.05,0,0,0.05,68.95,0)" xlink:href="#aI"/><use transform="matrix(0.05,0,0,0.05,80.95,0)" xlink:href="#ap"/><use transform="matrix(0.05,0,0,0.05,85.95,0)" xlink:href="#al"/><use transform="matrix(0.05,0,0,0.05,95.95,0)" xlink:href="#ap"/><use transform="matrix(0.05,0,0,0.05,100.95,0)" xlink:href="#ar"/><use transform="matrix(0.05,0,0,0.05,110.95,0)" xlink:href="#am"/><use transform="matrix(0.05,0,0,0.05,119.95,0)" xlink:href="#av"/></g><g id="l"><use transform="matrix(0.05,0,0,0.05,0,0)" xlink:href="#am"/><use transform="matrix(0.05,0,0,0.05,9,0)" xlink:href="#ap"/><use transform="matrix(0.05,0,0,0.05,14,0)" xlink:href="#ao"/><use transform="matrix(0.05,0,0,0.05,19.95,0)" xlink:href="#aw"/><use transform="matrix(0.05,0,0,0.05,23.9,0)" xlink:href="#ax"/><use transform="matrix(0.05,0,0,0.05,33.9,0)" xlink:href="#ay"/></g><path d="M118-107v75H92v-75H18v-26h74v-75h26v75h74v26h-74" id="aJ"/><use transform="matrix(0.05,0,0,0.05,0,0)" xlink:href="#aJ" id="m"/><path d="M206 0h-36l-40-164L89 0H53L-1-190h32L70-26l43-164h34l41 164 42-164h31" id="aK"/><path d="M30-248c87 1 191-15 191 75 0 78-77 80-158 76V0H30v-248zm33 125c57 0 124 11 124-50 0-59-68-47-124-48v98" id="aL"/><path d="M87 75C49 33 22-17 22-94c0-76 28-126 65-167h31c-38 41-64 92-64 168S80 34 118 75H87" id="aM"/><path d="M33-261c38 41 65 92 65 168S71 34 33 75H2C39 34 66-17 66-93S39-220 2-261h31" id="aN"/><g id="n"><use transform="matrix(0.05,0,0,0.05,0,0)" xlink:href="#ao"/><use transform="matrix(0.05,0,0,0.05,5.95,0)" xlink:href="#au"/><use transform="matrix(0.05,0,0,0.05,15.949999999999998,0)" xlink:href="#ax"/><use transform="matrix(0.05,0,0,0.05,25.950000000000003,0)" xlink:href="#au"/><use transform="matrix(0.05,0,0,0.05,35.95,0)" xlink:href="#aK"/><use transform="matrix(0.05,0,0,0.05,48.900000000000006,0)" xlink:href="#aL"/><use transform="matrix(0.05,0,0,0.05,60.900000000000006,0)" xlink:href="#al"/><use transform="matrix(0.05,0,0,0.05,70.9,0)" xlink:href="#am"/><use transform="matrix(0.05,0,0,0.05,79.9,0)" xlink:href="#am"/><use transform="matrix(0.05,0,0,0.05,88.9,0)" xlink:href="#ak"/><use transform="matrix(0.05,0,0,0.05,98.9,0)" xlink:href="#an"/><use transform="matrix(0.05,0,0,0.05,108.9,0)" xlink:href="#ao"/><use transform="matrix(0.05,0,0,0.05,114.85000000000001,0)" xlink:href="#ap"/><use transform="matrix(0.05,0,0,0.05,119.85000000000001,0)" xlink:href="#aM"/><use transform="matrix(0.05,0,0,0.05,125.80000000000001,0)" xlink:href="#aN"/><use transform="matrix(0.05,0,0,0.05,131.75,0)" xlink:href="#av"/></g><path d="M108 0H70L1-190h34L89-25l56-165h34" id="aO"/><g id="o"><use transform="matrix(0.05,0,0,0.05,0,0)" xlink:href="#aO"/><use transform="matrix(0.05,0,0,0.05,9,0)" xlink:href="#an"/><use transform="matrix(0.05,0,0,0.05,19,0)" xlink:href="#aw"/><use transform="matrix(0.05,0,0,0.05,22.95,0)" xlink:href="#aE"/></g><path d="M96-169c-40 0-48 33-48 73s9 75 48 75c24 0 41-14 43-38l32 2c-6 37-31 61-74 61-59 0-76-41-82-99-10-93 101-131 147-64 4 7 5 14 7 22l-32 3c-4-21-16-35-41-35" id="aP"/><path d="M197 0v-115H63V0H30v-248h33v105h134v-105h34V0h-34" id="aQ"/><g id="p"><use transform="matrix(0.05,0,0,0.05,0,0)" xlink:href="#aP"/><use transform="matrix(0.05,0,0,0.05,9,0)" xlink:href="#aC"/><use transform="matrix(0.05,0,0,0.05,19,0)" xlink:href="#al"/><use transform="matrix(0.05,0,0,0.05,29,0)" xlink:href="#ax"/><use transform="matrix(0.05,0,0,0.05,39,0)" xlink:href="#ay"/><use transform="matrix(0.05,0,0,0.05,49,0)" xlink:href="#au"/><use transform="matrix(0.05,0,0,0.05,59,0)" xlink:href="#aQ"/><use transform="matrix(0.05,0,0,0.05,71.95,0)" xlink:href="#an"/><use transform="matrix(0.05,0,0,0.05,81.95,0)" xlink:href="#aD"/><use transform="matrix(0.05,0,0,0.05,85.9,0)" xlink:href="#aE"/><use transform="matrix(0.05,0,0,0.05,95.9,0)" xlink:href="#au"/><use transform="matrix(0.05,0,0,0.05,105.9,0)" xlink:href="#ao"/><use transform="matrix(0.05,0,0,0.05,111.85000000000001,0)" xlink:href="#aq"/><use transform="matrix(0.05,0,0,0.05,124.80000000000001,0)" xlink:href="#al"/><use transform="matrix(0.05,0,0,0.05,134.8,0)" xlink:href="#as"/><use transform="matrix(0.05,0,0,0.05,149.75,0)" xlink:href="#au"/><use transform="matrix(0.05,0,0,0.05,159.75,0)" xlink:href="#aM"/><use transform="matrix(0.05,0,0,0.05,165.7,0)" xlink:href="#aN"/><use transform="matrix(0.05,0,0,0.05,171.64999999999998,0)" xlink:href="#av"/></g><g id="q"><use transform="matrix(0.05,0,0,0.05,0,0)" xlink:href="#aO"/><use transform="matrix(0.05,0,0,0.05,9,0)" xlink:href="#an"/><use transform="matrix(0.05,0,0,0.05,19,0)" xlink:href="#aw"/><use transform="matrix(0.05,0,0,0.05,22.95,0)" xlink:href="#aE"/></g><path fill="#3a414a" d="M205 0l-28-72H64L36 0H1l101-248h38L239 0h-34zm-38-99l-47-123c-12 45-31 82-46 123h93" id="aR"/><path fill="#3a414a" d="M24 0v-261h32V0H24" id="aS"/><path fill="#3a414a" d="M24-231v-30h32v30H24zM24 0v-190h32V0H24" id="aT"/><path fill="#3a414a" d="M96-169c-40 0-48 33-48 73s9 75 48 75c24 0 41-14 43-38l32 2c-6 37-31 61-74 61-59 0-76-41-82-99-10-93 101-131 147-64 4 7 5 14 7 22l-32 3c-4-21-16-35-41-35" id="aU"/><path fill="#3a414a" d="M117-194c89-4 53 116 60 194h-32v-121c0-31-8-49-39-48C34-167 62-67 57 0H25l-1-190h30c1 10-1 24 2 32 11-22 29-35 61-36" id="aV"/><g id="r"><use transform="matrix(0.05,0,0,0.05,0,0)" xlink:href="#aR"/><use transform="matrix(0.05,0,0,0.05,12,0)" xlink:href="#af"/><use transform="matrix(0.05,0,0,0.05,22,0)" xlink:href="#af"/><use transform="matrix(0.05,0,0,0.05,32,0)" xlink:href="#aS"/><use transform="matrix(0.05,0,0,0.05,35.95,0)" xlink:href="#aT"/><use transform="matrix(0.05,0,0,0.05,39.900000000000006,0)" xlink:href="#aU"/><use transform="matrix(0.05,0,0,0.05,48.900000000000006,0)" xlink:href="#ad"/><use transform="matrix(0.05,0,0,0.05,58.900000000000006,0)" xlink:href="#aV"/><use transform="matrix(0.05,0,0,0.05,68.9,0)" xlink:href="#ai"/></g><path d="M33 0v-248h34V0H33" id="aW"/><g id="s"><use transform="matrix(0.05,0,0,0.05,0,0)" xlink:href="#ax"/><use transform="matrix(0.05,0,0,0.05,10,0)" xlink:href="#al"/><use transform="matrix(0.05,0,0,0.05,20,0)" xlink:href="#ap"/><use transform="matrix(0.05,0,0,0.05,25,0)" xlink:href="#aw"/><use transform="matrix(0.05,0,0,0.05,28.950000000000003,0)" xlink:href="#an"/><use transform="matrix(0.05,0,0,0.05,38.95,0)" xlink:href="#ax"/><use transform="matrix(0.05,0,0,0.05,48.95,0)" xlink:href="#al"/><use transform="matrix(0.05,0,0,0.05,58.95,0)" xlink:href="#aD"/><use transform="matrix(0.05,0,0,0.05,62.900000000000006,0)" xlink:href="#aW"/><use transform="matrix(0.05,0,0,0.05,67.9,0)" xlink:href="#az"/><use transform="matrix(0.05,0,0,0.05,80.85000000000001,0)" xlink:href="#av"/></g><path d="M63-220v92h138v28H63V0H30v-248h175v28H63" id="aX"/><g id="t"><use transform="matrix(0.05,0,0,0.05,0,0)" xlink:href="#al"/><use transform="matrix(0.05,0,0,0.05,10,0)" xlink:href="#ak"/><use transform="matrix(0.05,0,0,0.05,20,0)" xlink:href="#ak"/><use transform="matrix(0.05,0,0,0.05,30,0)" xlink:href="#aD"/><use transform="matrix(0.05,0,0,0.05,33.95,0)" xlink:href="#aB"/><use transform="matrix(0.05,0,0,0.05,42.95,0)" xlink:href="#aX"/><use transform="matrix(0.05,0,0,0.05,53.900000000000006,0)" xlink:href="#an"/><use transform="matrix(0.05,0,0,0.05,63.900000000000006,0)" xlink:href="#ao"/><use transform="matrix(0.05,0,0,0.05,69.85000000000001,0)" xlink:href="#aL"/><use transform="matrix(0.05,0,0,0.05,81.85000000000001,0)" xlink:href="#al"/><use transform="matrix(0.05,0,0,0.05,91.85000000000001,0)" xlink:href="#am"/><use transform="matrix(0.05,0,0,0.05,100.85000000000001,0)" xlink:href="#am"/><use transform="matrix(0.05,0,0,0.05,109.85000000000001,0)" xlink:href="#ak"/><use transform="matrix(0.05,0,0,0.05,119.85000000000001,0)" xlink:href="#an"/><use transform="matrix(0.05,0,0,0.05,129.85000000000002,0)" xlink:href="#ao"/><use transform="matrix(0.05,0,0,0.05,135.8,0)" xlink:href="#ap"/><use transform="matrix(0.05,0,0,0.05,140.8,0)" xlink:href="#aM"/><use transform="matrix(0.05,0,0,0.05,146.75,0)" xlink:href="#aN"/><use transform="matrix(0.05,0,0,0.05,152.7,0)" xlink:href="#av"/></g><path d="M205 0l-28-72H64L36 0H1l101-248h38L239 0h-34zm-38-99l-47-123c-12 45-31 82-46 123h93" id="aY"/><g id="u"><use transform="matrix(0.05,0,0,0.05,0,0)" xlink:href="#ar"/><use transform="matrix(0.05,0,0,0.05,10,0)" xlink:href="#ak"/><use transform="matrix(0.05,0,0,0.05,20,0)" xlink:href="#aE"/><use transform="matrix(0.05,0,0,0.05,30,0)" xlink:href="#al"/><use transform="matrix(0.05,0,0,0.05,40,0)" xlink:href="#ap"/><use transform="matrix(0.05,0,0,0.05,45,0)" xlink:href="#au"/><use transform="matrix(0.05,0,0,0.05,55,0)" xlink:href="#aY"/><use transform="matrix(0.05,0,0,0.05,67,0)" xlink:href="#ak"/><use transform="matrix(0.05,0,0,0.05,77,0)" xlink:href="#ak"/><use transform="matrix(0.05,0,0,0.05,87,0)" xlink:href="#ak"/><use transform="matrix(0.05,0,0,0.05,97,0)" xlink:href="#aD"/><use transform="matrix(0.05,0,0,0.05,100.95,0)" xlink:href="#aw"/><use transform="matrix(0.05,0,0,0.05,104.9,0)" xlink:href="#aP"/><use transform="matrix(0.05,0,0,0.05,113.9,0)" xlink:href="#al"/><use transform="matrix(0.05,0,0,0.05,123.9,0)" xlink:href="#ap"/><use transform="matrix(0.05,0,0,0.05,128.9,0)" xlink:href="#aw"/><use transform="matrix(0.05,0,0,0.05,132.85,0)" xlink:href="#an"/><use transform="matrix(0.05,0,0,0.05,142.85,0)" xlink:href="#ax"/><use transform="matrix(0.05,0,0,0.05,152.85,0)" xlink:href="#aM"/><use transform="matrix(0.05,0,0,0.05,158.79999999999998,0)" xlink:href="#aN"/><use transform="matrix(0.05,0,0,0.05,164.74999999999997,0)" xlink:href="#av"/></g><path d="M143 0L79-87 56-68V0H24v-261h32v163l83-92h37l-77 82L181 0h-38" id="aZ"/><g id="v"><use transform="matrix(0.05,0,0,0.05,0,0)" xlink:href="#aP"/><use transform="matrix(0.05,0,0,0.05,9,0)" xlink:href="#aC"/><use transform="matrix(0.05,0,0,0.05,19,0)" xlink:href="#au"/><use transform="matrix(0.05,0,0,0.05,29,0)" xlink:href="#aP"/><use transform="matrix(0.05,0,0,0.05,38,0)" xlink:href="#aZ"/><use transform="matrix(0.05,0,0,0.05,47,0)" xlink:href="#aY"/><use transform="matrix(0.05,0,0,0.05,59,0)" xlink:href="#ak"/><use transform="matrix(0.05,0,0,0.05,69,0)" xlink:href="#ak"/><use transform="matrix(0.05,0,0,0.05,79,0)" xlink:href="#aD"/><use transform="matrix(0.05,0,0,0.05,82.95,0)" xlink:href="#aw"/><use transform="matrix(0.05,0,0,0.05,86.9,0)" xlink:href="#aP"/><use transform="matrix(0.05,0,0,0.05,95.9,0)" xlink:href="#al"/><use transform="matrix(0.05,0,0,0.05,105.9,0)" xlink:href="#ap"/><use transform="matrix(0.05,0,0,0.05,110.9,0)" xlink:href="#aw"/><use transform="matrix(0.05,0,0,0.05,114.85000000000001,0)" xlink:href="#an"/><use transform="matrix(0.05,0,0,0.05,124.85000000000001,0)" xlink:href="#ax"/><use transform="matrix(0.05,0,0,0.05,134.85000000000002,0)" xlink:href="#aI"/><use transform="matrix(0.05,0,0,0.05,146.85000000000002,0)" xlink:href="#ap"/><use transform="matrix(0.05,0,0,0.05,151.85000000000002,0)" xlink:href="#al"/><use transform="matrix(0.05,0,0,0.05,161.85000000000002,0)" xlink:href="#ap"/><use transform="matrix(0.05,0,0,0.05,166.85000000000002,0)" xlink:href="#ar"/><use transform="matrix(0.05,0,0,0.05,176.85000000000002,0)" xlink:href="#am"/><use transform="matrix(0.05,0,0,0.05,185.85000000000002,0)" xlink:href="#aM"/><use transform="matrix(0.05,0,0,0.05,191.8,0)" xlink:href="#aN"/><use transform="matrix(0.05,0,0,0.05,197.75,0)" xlink:href="#av"/></g><g id="w"><use transform="matrix(0.05,0,0,0.05,0,0)" xlink:href="#aw"/><use transform="matrix(0.05,0,0,0.05,3.95,0)" xlink:href="#am"/><use transform="matrix(0.05,0,0,0.05,12.949999999999998,0)" xlink:href="#aq"/><use transform="matrix(0.05,0,0,0.05,25.899999999999995,0)" xlink:href="#au"/><use transform="matrix(0.05,0,0,0.05,35.9,0)" xlink:href="#aK"/><use transform="matrix(0.05,0,0,0.05,48.85,0)" xlink:href="#aY"/><use transform="matrix(0.05,0,0,0.05,60.85,0)" xlink:href="#ak"/><use transform="matrix(0.05,0,0,0.05,70.85,0)" xlink:href="#ak"/><use transform="matrix(0.05,0,0,0.05,80.85,0)" xlink:href="#aD"/><use transform="matrix(0.05,0,0,0.05,84.8,0)" xlink:href="#aw"/><use transform="matrix(0.05,0,0,0.05,88.75,0)" xlink:href="#aP"/><use transform="matrix(0.05,0,0,0.05,97.75,0)" xlink:href="#al"/><use transform="matrix(0.05,0,0,0.05,107.75,0)" xlink:href="#ax"/><use transform="matrix(0.05,0,0,0.05,117.75,0)" xlink:href="#ap"/><use transform="matrix(0.05,0,0,0.05,122.75,0)" xlink:href="#aM"/><use transform="matrix(0.05,0,0,0.05,128.7,0)" xlink:href="#aN"/><use transform="matrix(0.05,0,0,0.05,134.64999999999998,0)" xlink:href="#av"/></g><g id="x"><use transform="matrix(0.05,0,0,0.05,0,0)" xlink:href="#at"/><use transform="matrix(0.05,0,0,0.05,10,0)" xlink:href="#an"/><use transform="matrix(0.05,0,0,0.05,20,0)" xlink:href="#an"/><use transform="matrix(0.05,0,0,0.05,30,0)" xlink:href="#aD"/></g><g id="y"><use transform="matrix(0.05,0,0,0.05,0,0)" xlink:href="#as"/><use transform="matrix(0.05,0,0,0.05,14.950000000000001,0)" xlink:href="#al"/><use transform="matrix(0.05,0,0,0.05,24.950000000000003,0)" xlink:href="#aZ"/><use transform="matrix(0.05,0,0,0.05,33.95,0)" xlink:href="#au"/><use transform="matrix(0.05,0,0,0.05,43.95,0)" xlink:href="#aL"/><use transform="matrix(0.05,0,0,0.05,55.95,0)" xlink:href="#al"/><use transform="matrix(0.05,0,0,0.05,65.95,0)" xlink:href="#aB"/><use transform="matrix(0.05,0,0,0.05,74.95,0)" xlink:href="#as"/><use transform="matrix(0.05,0,0,0.05,89.9,0)" xlink:href="#au"/><use transform="matrix(0.05,0,0,0.05,99.9,0)" xlink:href="#ax"/><use transform="matrix(0.05,0,0,0.05,109.9,0)" xlink:href="#ap"/><use transform="matrix(0.05,0,0,0.05,114.9,0)" xlink:href="#aM"/><use transform="matrix(0.05,0,0,0.05,120.85000000000001,0)" xlink:href="#aN"/><use transform="matrix(0.05,0,0,0.05,126.80000000000001,0)" xlink:href="#av"/></g><path fill="#3a414a" d="M108 0H70L1-190h34L89-25l56-165h34" id="ba"/><path fill="#3a414a" d="M100-194c63 0 86 42 84 106H49c0 40 14 67 53 68 26 1 43-12 49-29l28 8c-11 28-37 45-77 45C44 4 14-33 15-96c1-61 26-98 85-98zm52 81c6-60-76-77-97-28-3 7-6 17-6 28h103" id="bb"/><g id="z"><use transform="matrix(0.05,0,0,0.05,0,0)" xlink:href="#aR"/><use transform="matrix(0.05,0,0,0.05,12,0)" xlink:href="#af"/><use transform="matrix(0.05,0,0,0.05,22,0)" xlink:href="#af"/><use transform="matrix(0.05,0,0,0.05,32,0)" xlink:href="#ah"/><use transform="matrix(0.05,0,0,0.05,37.95,0)" xlink:href="#ag"/><use transform="matrix(0.05,0,0,0.05,47.95,0)" xlink:href="#ba"/><use transform="matrix(0.05,0,0,0.05,56.95,0)" xlink:href="#bb"/><use transform="matrix(0.05,0,0,0.05,66.95,0)" xlink:href="#ah"/></g><g id="A"><use transform="matrix(0.05,0,0,0.05,0,0)" xlink:href="#al"/><use transform="matrix(0.05,0,0,0.05,10,0)" xlink:href="#ak"/><use transform="matrix(0.05,0,0,0.05,20,0)" xlink:href="#ak"/><use transform="matrix(0.05,0,0,0.05,30,0)" xlink:href="#ao"/><use transform="matrix(0.05,0,0,0.05,35.95,0)" xlink:href="#an"/><use transform="matrix(0.05,0,0,0.05,45.95,0)" xlink:href="#aO"/><use transform="matrix(0.05,0,0,0.05,54.95,0)" xlink:href="#au"/><use transform="matrix(0.05,0,0,0.05,64.95,0)" xlink:href="#ao"/><use transform="matrix(0.05,0,0,0.05,70.9,0)" xlink:href="#aW"/><use transform="matrix(0.05,0,0,0.05,75.9,0)" xlink:href="#az"/><use transform="matrix(0.05,0,0,0.05,88.85000000000001,0)" xlink:href="#av"/></g><g id="B"><use transform="matrix(0.05,0,0,0.05,0,0)" xlink:href="#al"/><use transform="matrix(0.05,0,0,0.05,10,0)" xlink:href="#ak"/><use transform="matrix(0.05,0,0,0.05,20,0)" xlink:href="#ak"/><use transform="matrix(0.05,0,0,0.05,30,0)" xlink:href="#ao"/><use transform="matrix(0.05,0,0,0.05,35.95,0)" xlink:href="#an"/><use transform="matrix(0.05,0,0,0.05,45.95,0)" xlink:href="#aO"/><use transform="matrix(0.05,0,0,0.05,54.95,0)" xlink:href="#au"/><use transform="matrix(0.05,0,0,0.05,64.95,0)" xlink:href="#aY"/><use transform="matrix(0.05,0,0,0.05,76.95,0)" xlink:href="#ak"/><use transform="matrix(0.05,0,0,0.05,86.95,0)" xlink:href="#ak"/><use transform="matrix(0.05,0,0,0.05,96.95,0)" xlink:href="#aD"/><use transform="matrix(0.05,0,0,0.05,100.9,0)" xlink:href="#aw"/><use transform="matrix(0.05,0,0,0.05,104.85000000000001,0)" xlink:href="#aP"/><use transform="matrix(0.05,0,0,0.05,113.85000000000001,0)" xlink:href="#al"/><use transform="matrix(0.05,0,0,0.05,123.85000000000001,0)" xlink:href="#ap"/><use transform="matrix(0.05,0,0,0.05,128.85000000000002,0)" xlink:href="#aw"/><use transform="matrix(0.05,0,0,0.05,132.8,0)" xlink:href="#an"/><use transform="matrix(0.05,0,0,0.05,142.8,0)" xlink:href="#ax"/><use transform="matrix(0.05,0,0,0.05,152.8,0)" xlink:href="#aM"/><use transform="matrix(0.05,0,0,0.05,158.75,0)" xlink:href="#aN"/><use transform="matrix(0.05,0,0,0.05,164.7,0)" xlink:href="#av"/></g><path fill="#3a414a" d="M85-194c31 0 48 13 60 33l-1-100h32l1 261h-30c-2-10 0-23-3-31C134-8 116 4 85 4 32 4 16-35 15-94c0-66 23-100 70-100zm9 24c-40 0-46 34-46 75 0 40 6 74 45 74 42 0 51-32 51-76 0-42-9-74-50-73" id="bc"/><path fill="#3a414a" d="M210-169c-67 3-38 105-44 169h-31v-121c0-29-5-50-35-48C34-165 62-65 56 0H25l-1-190h30c1 10-1 24 2 32 10-44 99-50 107 0 11-21 27-35 58-36 85-2 47 119 55 194h-31v-121c0-29-5-49-35-48" id="bd"/><g id="C"><use transform="matrix(0.05,0,0,0.05,0,0)" xlink:href="#aR"/><use transform="matrix(0.05,0,0,0.05,12,0)" xlink:href="#bc"/><use transform="matrix(0.05,0,0,0.05,22,0)" xlink:href="#bd"/><use transform="matrix(0.05,0,0,0.05,36.95,0)" xlink:href="#aT"/><use transform="matrix(0.05,0,0,0.05,40.900000000000006,0)" xlink:href="#aV"/></g><path d="M-5 72V49h209v23H-5" id="be"/><g id="D"><use transform="matrix(0.05,0,0,0.05,0,0)" xlink:href="#an"/><use transform="matrix(0.05,0,0,0.05,10,0)" xlink:href="#aG"/><use transform="matrix(0.05,0,0,0.05,14.65,0)" xlink:href="#aG"/><use transform="matrix(0.05,0,0,0.05,19.65,0)" xlink:href="#aw"/><use transform="matrix(0.05,0,0,0.05,23.599999999999998,0)" xlink:href="#aP"/><use transform="matrix(0.05,0,0,0.05,32.599999999999994,0)" xlink:href="#au"/><use transform="matrix(0.05,0,0,0.05,42.599999999999994,0)" xlink:href="#be"/><use transform="matrix(0.05,0,0,0.05,52.599999999999994,0)" xlink:href="#ax"/><use transform="matrix(0.05,0,0,0.05,62.599999999999994,0)" xlink:href="#al"/><use transform="matrix(0.05,0,0,0.05,72.6,0)" xlink:href="#as"/><use transform="matrix(0.05,0,0,0.05,87.55,0)" xlink:href="#au"/><use transform="matrix(0.05,0,0,0.05,97.55,0)" xlink:href="#av"/></g><g id="E"><use transform="matrix(0.05,0,0,0.05,0,0)" xlink:href="#aw"/><use transform="matrix(0.05,0,0,0.05,3.95,0)" xlink:href="#am"/><use transform="matrix(0.05,0,0,0.05,12.949999999999998,0)" xlink:href="#am"/><use transform="matrix(0.05,0,0,0.05,21.95,0)" xlink:href="#ar"/><use transform="matrix(0.05,0,0,0.05,31.950000000000003,0)" xlink:href="#au"/><use transform="matrix(0.05,0,0,0.05,41.95,0)" xlink:href="#aL"/><use transform="matrix(0.05,0,0,0.05,53.95,0)" xlink:href="#al"/><use transform="matrix(0.05,0,0,0.05,63.95,0)" xlink:href="#am"/><use transform="matrix(0.05,0,0,0.05,72.95,0)" xlink:href="#am"/><use transform="matrix(0.05,0,0,0.05,81.95,0)" xlink:href="#ak"/><use transform="matrix(0.05,0,0,0.05,91.95,0)" xlink:href="#an"/><use transform="matrix(0.05,0,0,0.05,101.95,0)" xlink:href="#ao"/><use transform="matrix(0.05,0,0,0.05,107.9,0)" xlink:href="#ap"/><use transform="matrix(0.05,0,0,0.05,112.9,0)" xlink:href="#aM"/><use transform="matrix(0.05,0,0,0.05,118.85000000000001,0)" xlink:href="#aN"/><use transform="matrix(0.05,0,0,0.05,124.80000000000001,0)" xlink:href="#av"/></g><g id="F"><use transform="matrix(0.05,0,0,0.05,0,0)" xlink:href="#ao"/><use transform="matrix(0.05,0,0,0.05,5.95,0)" xlink:href="#au"/><use transform="matrix(0.05,0,0,0.05,15.949999999999998,0)" xlink:href="#aO"/><use transform="matrix(0.05,0,0,0.05,24.95,0)" xlink:href="#an"/><use transform="matrix(0.05,0,0,0.05,34.95,0)" xlink:href="#aZ"/><use transform="matrix(0.05,0,0,0.05,43.95,0)" xlink:href="#au"/><use transform="matrix(0.05,0,0,0.05,53.95,0)" xlink:href="#aL"/><use transform="matrix(0.05,0,0,0.05,65.95,0)" xlink:href="#al"/><use transform="matrix(0.05,0,0,0.05,75.95,0)" xlink:href="#am"/><use transform="matrix(0.05,0,0,0.05,84.95,0)" xlink:href="#am"/><use transform="matrix(0.05,0,0,0.05,93.95,0)" xlink:href="#ak"/><use transform="matrix(0.05,0,0,0.05,103.95,0)" xlink:href="#an"/><use transform="matrix(0.05,0,0,0.05,113.95,0)" xlink:href="#ao"/><use transform="matrix(0.05,0,0,0.05,119.9,0)" xlink:href="#ap"/><use transform="matrix(0.05,0,0,0.05,124.9,0)" xlink:href="#aM"/><use transform="matrix(0.05,0,0,0.05,130.85,0)" xlink:href="#aN"/><use transform="matrix(0.05,0,0,0.05,136.79999999999998,0)" xlink:href="#av"/></g><g id="G"><use transform="matrix(0.05,0,0,0.05,0,0)" xlink:href="#ak"/><use transform="matrix(0.05,0,0,0.05,10,0)" xlink:href="#ao"/><use transform="matrix(0.05,0,0,0.05,15.949999999999998,0)" xlink:href="#aw"/><use transform="matrix(0.05,0,0,0.05,19.9,0)" xlink:href="#ax"/><use transform="matrix(0.05,0,0,0.05,29.899999999999995,0)" xlink:href="#ap"/><use transform="matrix(0.05,0,0,0.05,34.9,0)" xlink:href="#aL"/><use transform="matrix(0.05,0,0,0.05,46.9,0)" xlink:href="#al"/><use transform="matrix(0.05,0,0,0.05,56.900000000000006,0)" xlink:href="#am"/><use transform="matrix(0.05,0,0,0.05,65.9,0)" xlink:href="#am"/><use transform="matrix(0.05,0,0,0.05,74.9,0)" xlink:href="#ak"/><use transform="matrix(0.05,0,0,0.05,84.9,0)" xlink:href="#an"/><use transform="matrix(0.05,0,0,0.05,94.9,0)" xlink:href="#ao"/><use transform="matrix(0.05,0,0,0.05,100.85000000000001,0)" xlink:href="#ap"/><use transform="matrix(0.05,0,0,0.05,105.85000000000001,0)" xlink:href="#aM"/><use transform="matrix(0.05,0,0,0.05,111.80000000000001,0)" xlink:href="#aN"/><use transform="matrix(0.05,0,0,0.05,117.75,0)" xlink:href="#av"/></g><path fill="#3a414a" d="M84 4C-5 8 30-112 23-190h32v120c0 31 7 50 39 49 72-2 45-101 50-169h31l1 190h-30c-1-10 1-25-2-33-11 22-28 36-60 37" id="bf"/><path fill="#3a414a" d="M106-169C34-169 62-67 57 0H25v-261h32l-1 103c12-21 28-36 61-36 89 0 53 116 60 194h-32v-121c2-32-8-49-39-48" id="bg"/><path fill="#3a414a" d="M179-190L93 31C79 59 56 82 12 73V49c39 6 53-20 64-50L1-190h34L92-34l54-156h33" id="bh"/><g id="H"><use transform="matrix(0.05,0,0,0.05,0,0)" xlink:href="#aR"/><use transform="matrix(0.05,0,0,0.05,12,0)" xlink:href="#bf"/><use transform="matrix(0.05,0,0,0.05,22,0)" xlink:href="#ai"/><use transform="matrix(0.05,0,0,0.05,27,0)" xlink:href="#bg"/><use transform="matrix(0.05,0,0,0.05,37,0)" xlink:href="#ag"/><use transform="matrix(0.05,0,0,0.05,47,0)" xlink:href="#ah"/><use transform="matrix(0.05,0,0,0.05,52.95,0)" xlink:href="#aT"/><use transform="matrix(0.05,0,0,0.05,56.900000000000006,0)" xlink:href="#ai"/><use transform="matrix(0.05,0,0,0.05,61.900000000000006,0)" xlink:href="#bh"/></g><g id="I"><use transform="matrix(0.05,0,0,0.05,0,0)" xlink:href="#al"/><use transform="matrix(0.05,0,0,0.05,10,0)" xlink:href="#ar"/><use transform="matrix(0.05,0,0,0.05,20,0)" xlink:href="#ap"/><use transform="matrix(0.05,0,0,0.05,25,0)" xlink:href="#aC"/><use transform="matrix(0.05,0,0,0.05,35,0)" xlink:href="#an"/><use transform="matrix(0.05,0,0,0.05,45,0)" xlink:href="#ao"/><use transform="matrix(0.05,0,0,0.05,50.95,0)" xlink:href="#aw"/><use transform="matrix(0.05,0,0,0.05,54.900000000000006,0)" xlink:href="#ap"/><use transform="matrix(0.05,0,0,0.05,59.900000000000006,0)" xlink:href="#aB"/><use transform="matrix(0.05,0,0,0.05,68.9,0)" xlink:href="#aW"/><use transform="matrix(0.05,0,0,0.05,73.9,0)" xlink:href="#az"/><use transform="matrix(0.05,0,0,0.05,86.85000000000001,0)" xlink:href="#av"/></g><path d="M137 0h-34L2-248h35l83 218 83-218h36" id="bi"/><g id="J"><use transform="matrix(0.05,0,0,0.05,0,0)" xlink:href="#aw"/><use transform="matrix(0.05,0,0,0.05,3.95,0)" xlink:href="#am"/><use transform="matrix(0.05,0,0,0.05,12.949999999999998,0)" xlink:href="#aL"/><use transform="matrix(0.05,0,0,0.05,24.95,0)" xlink:href="#al"/><use transform="matrix(0.05,0,0,0.05,34.95,0)" xlink:href="#am"/><use transform="matrix(0.05,0,0,0.05,43.95,0)" xlink:href="#am"/><use transform="matrix(0.05,0,0,0.05,52.95,0)" xlink:href="#ak"/><use transform="matrix(0.05,0,0,0.05,62.95,0)" xlink:href="#an"/><use transform="matrix(0.05,0,0,0.05,72.95,0)" xlink:href="#ao"/><use transform="matrix(0.05,0,0,0.05,78.9,0)" xlink:href="#ap"/><use transform="matrix(0.05,0,0,0.05,83.9,0)" xlink:href="#bi"/><use transform="matrix(0.05,0,0,0.05,94.55000000000001,0)" xlink:href="#al"/><use transform="matrix(0.05,0,0,0.05,104.55000000000001,0)" xlink:href="#aD"/><use transform="matrix(0.05,0,0,0.05,108.5,0)" xlink:href="#aw"/><use transform="matrix(0.05,0,0,0.05,112.45,0)" xlink:href="#aE"/><use transform="matrix(0.05,0,0,0.05,122.45,0)" xlink:href="#aM"/><use transform="matrix(0.05,0,0,0.05,128.4,0)" xlink:href="#aN"/><use transform="matrix(0.05,0,0,0.05,134.35,0)" xlink:href="#av"/></g><path d="M127-220V0H93v-220H8v-28h204v28h-85" id="bj"/><path d="M233-177c-1 41-23 64-60 70L243 0h-38l-65-103H63V0H30v-248c88 3 205-21 203 71zM63-129c60-2 137 13 137-47 0-61-80-42-137-45v92" id="bk"/><g id="K"><use transform="matrix(0.05,0,0,0.05,0,0)" xlink:href="#al"/><use transform="matrix(0.05,0,0,0.05,10,0)" xlink:href="#ak"/><use transform="matrix(0.05,0,0,0.05,20,0)" xlink:href="#ak"/><use transform="matrix(0.05,0,0,0.05,30,0)" xlink:href="#aD"/><use transform="matrix(0.05,0,0,0.05,33.95,0)" xlink:href="#aB"/><use transform="matrix(0.05,0,0,0.05,42.95,0)" xlink:href="#bj"/><use transform="matrix(0.05,0,0,0.05,51.900000000000006,0)" xlink:href="#an"/><use transform="matrix(0.05,0,0,0.05,61.900000000000006,0)" xlink:href="#bk"/><use transform="matrix(0.05,0,0,0.05,74.85000000000001,0)" xlink:href="#au"/><use transform="matrix(0.05,0,0,0.05,84.85000000000001,0)" xlink:href="#aO"/><use transform="matrix(0.05,0,0,0.05,93.85000000000001,0)" xlink:href="#an"/><use transform="matrix(0.05,0,0,0.05,103.85000000000001,0)" xlink:href="#aZ"/><use transform="matrix(0.05,0,0,0.05,112.85000000000001,0)" xlink:href="#aM"/><use transform="matrix(0.05,0,0,0.05,118.80000000000001,0)" xlink:href="#aN"/><use transform="matrix(0.05,0,0,0.05,124.75,0)" xlink:href="#av"/></g><path fill="#3a414a" d="M232-93c-1 65-40 97-104 97C67 4 28-28 28-90v-158h33c8 89-33 224 67 224 102 0 64-133 71-224h33v155" id="bl"/><g id="L"><use transform="matrix(0.05,0,0,0.05,0,0)" xlink:href="#bl"/><use transform="matrix(0.05,0,0,0.05,12.950000000000001,0)" xlink:href="#ae"/><use transform="matrix(0.05,0,0,0.05,21.950000000000003,0)" xlink:href="#bb"/><use transform="matrix(0.05,0,0,0.05,31.950000000000003,0)" xlink:href="#ah"/></g><g id="M"><use transform="matrix(0.05,0,0,0.05,0,0)" xlink:href="#aw"/><use transform="matrix(0.05,0,0,0.05,3.95,0)" xlink:href="#aE"/><use transform="matrix(0.05,0,0,0.05,13.949999999999998,0)" xlink:href="#av"/></g><g id="N"><use transform="matrix(0.05,0,0,0.05,0,0)" xlink:href="#aw"/><use transform="matrix(0.05,0,0,0.05,3.95,0)" xlink:href="#ax"/><use transform="matrix(0.05,0,0,0.05,13.949999999999998,0)" xlink:href="#ap"/></g><g id="O"><use transform="matrix(0.05,0,0,0.05,0,0)" xlink:href="#ax"/><use transform="matrix(0.05,0,0,0.05,10,0)" xlink:href="#al"/><use transform="matrix(0.05,0,0,0.05,20,0)" xlink:href="#as"/><use transform="matrix(0.05,0,0,0.05,34.95,0)" xlink:href="#au"/><use transform="matrix(0.05,0,0,0.05,44.95,0)" xlink:href="#av"/></g><g id="P"><use transform="matrix(0.05,0,0,0.05,0,0)" xlink:href="#aE"/><use transform="matrix(0.05,0,0,0.05,10,0)" xlink:href="#an"/><use transform="matrix(0.05,0,0,0.05,20,0)" xlink:href="#at"/><use transform="matrix(0.05,0,0,0.05,30,0)" xlink:href="#av"/></g><g id="Q"><use transform="matrix(0.05,0,0,0.05,0,0)" xlink:href="#ak"/><use transform="matrix(0.05,0,0,0.05,10,0)" xlink:href="#aC"/><use transform="matrix(0.05,0,0,0.05,20,0)" xlink:href="#an"/><use transform="matrix(0.05,0,0,0.05,30,0)" xlink:href="#ax"/><use transform="matrix(0.05,0,0,0.05,40,0)" xlink:href="#au"/><use transform="matrix(0.05,0,0,0.05,50,0)" xlink:href="#av"/></g><g id="R"><use transform="matrix(0.05,0,0,0.05,0,0)" xlink:href="#au"/><use transform="matrix(0.05,0,0,0.05,10,0)" xlink:href="#as"/><use transform="matrix(0.05,0,0,0.05,24.950000000000003,0)" xlink:href="#al"/><use transform="matrix(0.05,0,0,0.05,34.95,0)" xlink:href="#aw"/><use transform="matrix(0.05,0,0,0.05,38.900000000000006,0)" xlink:href="#aD"/><use transform="matrix(0.05,0,0,0.05,42.85000000000001,0)" xlink:href="#av"/></g><path fill="#3a414a" d="M185-189c-5-48-123-54-124 2 14 75 158 14 163 119 3 78-121 87-175 55-17-10-28-26-33-46l33-7c5 56 141 63 141-1 0-78-155-14-162-118-5-82 145-84 179-34 5 7 8 16 11 25" id="bm"/><path fill="#3a414a" d="M101-234c-31-9-42 10-38 44h38v23H63V0H32v-167H5v-23h27c-7-52 17-82 69-68v24" id="bn"/><g id="S"><use transform="matrix(0.05,0,0,0.05,0,0)" xlink:href="#bm"/><use transform="matrix(0.05,0,0,0.05,12,0)" xlink:href="#ai"/><use transform="matrix(0.05,0,0,0.05,17,0)" xlink:href="#bf"/><use transform="matrix(0.05,0,0,0.05,27,0)" xlink:href="#bn"/><use transform="matrix(0.05,0,0,0.05,31.649999999999995,0)" xlink:href="#bn"/></g><g id="T"><use transform="matrix(0.05,0,0,0.05,0,0)" xlink:href="#ao"/><use transform="matrix(0.05,0,0,0.05,5.95,0)" xlink:href="#an"/><use transform="matrix(0.05,0,0,0.05,15.949999999999998,0)" xlink:href="#aD"/><use transform="matrix(0.05,0,0,0.05,19.9,0)" xlink:href="#au"/><use transform="matrix(0.05,0,0,0.05,29.899999999999995,0)" xlink:href="#av"/></g><g id="U"><use transform="matrix(0.06172839506172839,0,0,0.06172839506172839,0,0)" xlink:href="#ad"/><use transform="matrix(0.06172839506172839,0,0,0.06172839506172839,12.345679012345679,0)" xlink:href="#af"/><use transform="matrix(0.06172839506172839,0,0,0.06172839506172839,24.691358024691358,0)" xlink:href="#af"/><use transform="matrix(0.06172839506172839,0,0,0.06172839506172839,37.03703703703704,0)" xlink:href="#aS"/><use transform="matrix(0.06172839506172839,0,0,0.06172839506172839,41.91358024691358,0)" xlink:href="#aT"/><use transform="matrix(0.06172839506172839,0,0,0.06172839506172839,46.79012345679013,0)" xlink:href="#aU"/><use transform="matrix(0.06172839506172839,0,0,0.06172839506172839,57.90123456790124,0)" xlink:href="#ad"/><use transform="matrix(0.06172839506172839,0,0,0.06172839506172839,70.24691358024693,0)" xlink:href="#ai"/><use transform="matrix(0.06172839506172839,0,0,0.06172839506172839,76.41975308641976,0)" xlink:href="#aT"/><use transform="matrix(0.06172839506172839,0,0,0.06172839506172839,81.2962962962963,0)" xlink:href="#ag"/><use transform="matrix(0.06172839506172839,0,0,0.06172839506172839,93.64197530864199,0)" xlink:href="#aV"/></g><path fill="#3a414a" d="M16-82v-28h88v28H16" id="bo"/><use transform="matrix(0.06172839506172839,0,0,0.06172839506172839,0,0)" xlink:href="#bo" id="V"/><path fill="#3a414a" d="M33 0v-248h34V0H33" id="bp"/><path fill="#3a414a" d="M33-154v-36h34v36H33zM33 0v-36h34V0H33" id="bq"/><g id="W"><use transform="matrix(0.06172839506172839,0,0,0.06172839506172839,0,0)" xlink:href="#ad"/><use transform="matrix(0.06172839506172839,0,0,0.06172839506172839,12.345679012345679,0)" xlink:href="#af"/><use transform="matrix(0.06172839506172839,0,0,0.06172839506172839,24.691358024691358,0)" xlink:href="#af"/><use transform="matrix(0.06172839506172839,0,0,0.06172839506172839,37.03703703703704,0)" xlink:href="#aS"/><use transform="matrix(0.06172839506172839,0,0,0.06172839506172839,41.91358024691358,0)" xlink:href="#aT"/><use transform="matrix(0.06172839506172839,0,0,0.06172839506172839,46.79012345679013,0)" xlink:href="#aU"/><use transform="matrix(0.06172839506172839,0,0,0.06172839506172839,57.90123456790124,0)" xlink:href="#ad"/><use transform="matrix(0.06172839506172839,0,0,0.06172839506172839,70.24691358024693,0)" xlink:href="#ai"/><use transform="matrix(0.06172839506172839,0,0,0.06172839506172839,76.41975308641976,0)" xlink:href="#aT"/><use transform="matrix(0.06172839506172839,0,0,0.06172839506172839,81.2962962962963,0)" xlink:href="#ag"/><use transform="matrix(0.06172839506172839,0,0,0.06172839506172839,93.64197530864199,0)" xlink:href="#aV"/><use transform="matrix(0.06172839506172839,0,0,0.06172839506172839,105.98765432098767,0)" xlink:href="#bp"/><use transform="matrix(0.06172839506172839,0,0,0.06172839506172839,112.16049382716051,0)" xlink:href="#bc"/><use transform="matrix(0.06172839506172839,0,0,0.06172839506172839,124.50617283950619,0)" xlink:href="#bq"/></g><g id="X"><use transform="matrix(0.06172839506172839,0,0,0.06172839506172839,0,0)" xlink:href="#aT"/><use transform="matrix(0.06172839506172839,0,0,0.06172839506172839,4.876543209876543,0)" xlink:href="#aV"/><use transform="matrix(0.06172839506172839,0,0,0.06172839506172839,17.22222222222222,0)" xlink:href="#ai"/></g><g id="Y"><use transform="matrix(0.06172839506172839,0,0,0.06172839506172839,0,0)" xlink:href="#ad"/><use transform="matrix(0.06172839506172839,0,0,0.06172839506172839,12.345679012345679,0)" xlink:href="#af"/><use transform="matrix(0.06172839506172839,0,0,0.06172839506172839,24.691358024691358,0)" xlink:href="#af"/><use transform="matrix(0.06172839506172839,0,0,0.06172839506172839,37.03703703703704,0)" xlink:href="#aS"/><use transform="matrix(0.06172839506172839,0,0,0.06172839506172839,41.91358024691358,0)" xlink:href="#aT"/><use transform="matrix(0.06172839506172839,0,0,0.06172839506172839,46.79012345679013,0)" xlink:href="#aU"/><use transform="matrix(0.06172839506172839,0,0,0.06172839506172839,57.90123456790124,0)" xlink:href="#ad"/><use transform="matrix(0.06172839506172839,0,0,0.06172839506172839,70.24691358024693,0)" xlink:href="#ai"/><use transform="matrix(0.06172839506172839,0,0,0.06172839506172839,76.41975308641976,0)" xlink:href="#aT"/><use transform="matrix(0.06172839506172839,0,0,0.06172839506172839,81.2962962962963,0)" xlink:href="#ag"/><use transform="matrix(0.06172839506172839,0,0,0.06172839506172839,93.64197530864199,0)" xlink:href="#aV"/><use transform="matrix(0.06172839506172839,0,0,0.06172839506172839,105.98765432098767,0)" xlink:href="#bm"/><use transform="matrix(0.06172839506172839,0,0,0.06172839506172839,120.80246913580248,0)" xlink:href="#ai"/><use transform="matrix(0.06172839506172839,0,0,0.06172839506172839,126.97530864197533,0)" xlink:href="#ad"/><use transform="matrix(0.06172839506172839,0,0,0.06172839506172839,139.320987654321,0)" xlink:href="#ai"/><use transform="matrix(0.06172839506172839,0,0,0.06172839506172839,145.49382716049382,0)" xlink:href="#bf"/><use transform="matrix(0.06172839506172839,0,0,0.06172839506172839,157.8395061728395,0)" xlink:href="#ae"/><use transform="matrix(0.06172839506172839,0,0,0.06172839506172839,168.9506172839506,0)" xlink:href="#bq"/></g><path fill="#3a414a" d="M177-190C167-65 218 103 67 71c-23-6-38-20-44-43l32-5c15 47 100 32 89-28v-30C133-14 115 1 83 1 29 1 15-40 15-95c0-56 16-97 71-98 29-1 48 16 59 35 1-10 0-23 2-32h30zM94-22c36 0 50-32 50-73 0-42-14-75-50-75-39 0-46 34-46 75s6 73 46 73" id="br"/><g id="Z"><use transform="matrix(0.06172839506172839,0,0,0.06172839506172839,0,0)" xlink:href="#ae"/><use transform="matrix(0.06172839506172839,0,0,0.06172839506172839,11.11111111111111,0)" xlink:href="#ai"/><use transform="matrix(0.06172839506172839,0,0,0.06172839506172839,17.28395061728395,0)" xlink:href="#ah"/><use transform="matrix(0.06172839506172839,0,0,0.06172839506172839,24.629629629629626,0)" xlink:href="#aT"/><use transform="matrix(0.06172839506172839,0,0,0.06172839506172839,29.50617283950617,0)" xlink:href="#aV"/><use transform="matrix(0.06172839506172839,0,0,0.06172839506172839,41.85185185185185,0)" xlink:href="#br"/></g><path fill="#3a414a" d="M127-220V0H93v-220H8v-28h204v28h-85" id="bs"/><g id="aa"><use transform="matrix(0.06172839506172839,0,0,0.06172839506172839,0,0)" xlink:href="#ad"/><use transform="matrix(0.06172839506172839,0,0,0.06172839506172839,12.345679012345679,0)" xlink:href="#af"/><use transform="matrix(0.06172839506172839,0,0,0.06172839506172839,24.691358024691358,0)" xlink:href="#af"/><use transform="matrix(0.06172839506172839,0,0,0.06172839506172839,37.03703703703704,0)" xlink:href="#aS"/><use transform="matrix(0.06172839506172839,0,0,0.06172839506172839,41.91358024691358,0)" xlink:href="#aT"/><use transform="matrix(0.06172839506172839,0,0,0.06172839506172839,46.79012345679013,0)" xlink:href="#aU"/><use transform="matrix(0.06172839506172839,0,0,0.06172839506172839,57.90123456790124,0)" xlink:href="#ad"/><use transform="matrix(0.06172839506172839,0,0,0.06172839506172839,70.24691358024693,0)" xlink:href="#ai"/><use transform="matrix(0.06172839506172839,0,0,0.06172839506172839,76.41975308641976,0)" xlink:href="#aT"/><use transform="matrix(0.06172839506172839,0,0,0.06172839506172839,81.2962962962963,0)" xlink:href="#ag"/><use transform="matrix(0.06172839506172839,0,0,0.06172839506172839,93.64197530864199,0)" xlink:href="#aV"/><use transform="matrix(0.06172839506172839,0,0,0.06172839506172839,105.98765432098767,0)" xlink:href="#bs"/><use transform="matrix(0.06172839506172839,0,0,0.06172839506172839,118.27160493827162,0)" xlink:href="#bh"/><use transform="matrix(0.06172839506172839,0,0,0.06172839506172839,129.38271604938274,0)" xlink:href="#af"/><use transform="matrix(0.06172839506172839,0,0,0.06172839506172839,141.7283950617284,0)" xlink:href="#bb"/><use transform="matrix(0.06172839506172839,0,0,0.06172839506172839,154.07407407407408,0)" xlink:href="#bq"/></g><g id="ab"><use transform="matrix(0.06172839506172839,0,0,0.06172839506172839,0,0)" xlink:href="#ae"/><use transform="matrix(0.06172839506172839,0,0,0.06172839506172839,11.11111111111111,0)" xlink:href="#ai"/><use transform="matrix(0.06172839506172839,0,0,0.06172839506172839,17.28395061728395,0)" xlink:href="#ah"/><use transform="matrix(0.06172839506172839,0,0,0.06172839506172839,24.629629629629626,0)" xlink:href="#aT"/><use transform="matrix(0.06172839506172839,0,0,0.06172839506172839,29.50617283950617,0)" xlink:href="#aV"/><use transform="matrix(0.06172839506172839,0,0,0.06172839506172839,41.85185185185185,0)" xlink:href="#br"/></g></defs></g></svg>