<svg xmlns="http://www.w3.org/2000/svg" xmlns:xlink="http://www.w3.org/1999/xlink" xmlns:lucid="lucid" width="1282.5" height="1397"><g transform="translate(1800.5 696)" lucid:page-tab-id="0_0"><path d="M-2000-1000h1500v2000h-1500z" fill="#fff"/><path d="M-1780-620h180v70h-180z" stroke="#000" fill="#fff"/><use xlink:href="#a" transform="matrix(1,0,0,1,-1760,-620) translate(18.78271604938272 41.044444444444444)"/><path d="M-1499-584.52h-100v-.96h100zm181.62 0h-84.13v-.96h84.12z" stroke="#3a414a" stroke-width=".05" fill="#3a414a"/><path d="M-1599-584.52h-.5v-.96h.5z" fill="#3a414a"/><path stroke="#3a414a" stroke-width=".05" fill="#3a414a"/><path d="M-1302.62-585l-14.26 4.63v-9.26z" fill="#3a414a"/><path d="M-1301.08-585l-16.28 5.3v-10.6zm-15.33 3.98l12.25-3.98-12.26-3.98z" stroke="#3a414a" stroke-width=".05" fill="#3a414a"/><use xlink:href="#b" transform="matrix(1,0,0,1,-1498.990755212079,-595.6666666666666) translate(0 14.222222222222223)"/><path d="M-1120-585c0 49.7-40.3 90-90 90s-90-40.3-90-90 40.3-90 90-90 90 40.3 90 90z" stroke="#282c33" stroke-width="2" fill="#fff"/><use xlink:href="#c" transform="matrix(1,0,0,1,-1280,-675) translate(15.7716049382716 94.44444444444446)"/><path d="M-988.24-584.52h-130.26v-.96h130.26zm211.86 0h-114.38v-.96h114.38z" stroke="#3a414a" stroke-width=".05" fill="#3a414a"/><path d="M-1118.5-584.52h-.5v-.95h.5z" fill="#3a414a"/><path stroke="#3a414a" stroke-width=".05" fill="#3a414a"/><path d="M-761.62-585l-14.26 4.63v-9.26z" fill="#3a414a"/><path d="M-760.08-585l-16.28 5.3v-10.6zm-15.33 3.98l12.25-3.98-12.26-3.98z" stroke="#3a414a" stroke-width=".05" fill="#3a414a"/><use xlink:href="#b" transform="matrix(1,0,0,1,-988.2407012694024,-595.6666666666666) translate(0 14.222222222222223)"/><path d="M-760-629a6 6 0 0 1 6-6h188a6 6 0 0 1 6 6v88a6 6 0 0 1-6 6h-188a6 6 0 0 1-6-6z" fill="#fff"/><path d="M-760-635h200m0 100h-200" stroke="#282c33" stroke-width="2" fill="#fff"/><use xlink:href="#c" transform="matrix(1,0,0,1,-740,-635) translate(25.7716049382716 54.44444444444444)"/><path d="M-1001.84-553.3h-106.3v-.96h106.3zm241.34 0h-122.18v-.96h122.18z" stroke="#3a414a" stroke-width=".05" fill="#3a414a"/><path d="M-760-553.3h-.5v-.96h.5z" fill="#3a414a"/><path stroke="#3a414a" stroke-width=".05" fill="#3a414a"/><path d="M-1108.64-549.14l-14.27-4.64 14.26-4.63z" fill="#3a414a"/><path d="M-1108.17-548.5l-16.28-5.28 16.28-5.3zm-13.2-5.28l12.25 3.98v-7.96z" stroke="#3a414a" stroke-width=".05" fill="#3a414a"/><use xlink:href="#d" transform="matrix(1,0,0,1,-1001.8442103913443,-564.446684069885) translate(0 14.222222222222223)"/><use xlink:href="#e" transform="matrix(1,0,0,1,-1001.8442103913443,-564.446684069885) translate(101.4320987654321 14.222222222222223)"/><path d="M-1504.7-553.78h-78.4l-.02-.95h78.43zm208.54 0h-94.3v-.95h94.3z" stroke="#3a414a" stroke-width=".05" fill="#3a414a"/><path d="M-1295.55-553.92l.05.14h-.68v-.95h.36z" fill="#3a414a"/><path stroke="#3a414a" stroke-width=".05" fill="#3a414a"/><path d="M-1583.62-549.62l-14.26-4.63 14.27-4.64z" fill="#3a414a"/><path d="M-1583.14-548.96l-16.28-5.3 16.28-5.28zm-13.2-5.3l12.25 4v-7.97z" stroke="#3a414a" stroke-width=".05" fill="#3a414a"/><use xlink:href="#f" transform="matrix(1,0,0,1,-1504.6933648734284,-564.9181786608026) translate(0 14.222222222222223)"/><path d="M-1691.25-326.02l.07.88.2.85.33.8.46.75.57.66.66.57.74.45.8.33.84.2.9.07h85.56v.96h-85.6l-1-.08-1-.24-.92-.4-.87-.52-.77-.66-.66-.77-.53-.86-.38-.94-.24-1-.08-.98V-549h.95zm373.87 5.54v.96h-168.53v-.96z" stroke="#3a414a" stroke-width=".05" fill="#3a414a"/><path d="M-1691.25-549h-.95v-.5h.95z" fill="#3a414a"/><path stroke="#3a414a" stroke-width=".05" fill="#3a414a"/><path d="M-1302.62-320l-14.26 4.63v-9.26z" fill="#3a414a"/><path d="M-1301.08-320l-16.28 5.3v-10.6zm-15.33 3.98l12.25-3.98-12.26-3.98z" stroke="#3a414a" stroke-width=".05" fill="#3a414a"/><use xlink:href="#f" transform="matrix(1,0,0,1,-1600.1355151927955,-330.6666666666667) translate(0 14.222222222222223)"/><path d="M-1120-320c0 49.7-40.3 90-90 90s-90-40.3-90-90 40.3-90 90-90 90 40.3 90 90z" stroke="#282c33" stroke-width="2" fill="#fff"/><use xlink:href="#g" transform="matrix(1,0,0,1,-1280,-410) translate(42.87037037037037 81.11111111111111)"/><use xlink:href="#h" transform="matrix(1,0,0,1,-1280,-410) translate(26.203703703703702 107.77777777777777)"/><path d="M-890.1-378.1h-249.78v-.94h249.8zm167.95-6.44l-.08 1-.24.98-.4.94-.52.86-.65.78-.77.66-.87.53-.93.4-.98.23-1 .08h-47.27v-.94h47.22l.9-.07.83-.2.8-.34.74-.45.66-.56.56-.66.45-.74.33-.8.2-.84.07-.88v-133.04h.95z" stroke="#3a414a" stroke-width=".05" fill="#3a414a"/><path d="M-1139.87-378.1h-.1l-.82-.94h.93z" fill="#3a414a"/><path stroke="#3a414a" stroke-width=".05" fill="#3a414a"/><path d="M-718-518.12h-9.26l4.63-14.26z" fill="#3a414a"/><path d="M-717.34-517.64h-10.58l5.3-16.28zm-9.27-.95h7.95l-3.98-12.25z" stroke="#3a414a" stroke-width=".05" fill="#3a414a"/><use xlink:href="#f" transform="matrix(1,0,0,1,-890.0880801743466,-389.22928415936565) translate(0 14.222222222222223)"/><path d="M-1079.9-281.78h-46.8v-.95h46.8zm163.52-7.75h-60.1v-.95h60.1z" stroke="#3a414a" stroke-width=".05" fill="#3a414a"/><path d="M-1126.7-281.78h-.72l.42-.95h.3z" fill="#3a414a"/><path stroke="#3a414a" stroke-width=".05" fill="#3a414a"/><path d="M-901.62-290l-14.26 4.63v-9.26z" fill="#3a414a"/><path d="M-900.08-290l-16.28 5.3v-10.6zm-15.33 3.98l12.25-3.98-12.26-3.98z" stroke="#3a414a" stroke-width=".05" fill="#3a414a"/><use xlink:href="#i" transform="matrix(1,0,0,1,-1079.8966530050657,-292.9173561804785) translate(0 14.222222222222223)"/><path d="M-900-334a6 6 0 0 1 6-6h188a6 6 0 0 1 6 6v88a6 6 0 0 1-6 6h-188a6 6 0 0 1-6-6z" fill="#fff"/><path d="M-900-340h200m0 100h-200" stroke="#282c33" stroke-width="2" fill="#fff"/><use xlink:href="#j" transform="matrix(1,0,0,1,-880,-340) translate(36.2037037037037 54.44444444444444)"/><path d="M-1067.68-321.2h-34.96v-.96h34.96zm167.18 0h-50.84v-.96h50.84z" stroke="#3a414a" stroke-width=".05" fill="#3a414a"/><path d="M-900-321.2h-.5v-.96h.5z" fill="#3a414a"/><path stroke="#3a414a" stroke-width=".05" fill="#3a414a"/><path d="M-1103.14-317.05l-14.26-4.64 14.26-4.62z" fill="#3a414a"/><path d="M-1102.66-316.4l-16.28-5.3 16.28-5.28zm-13.2-5.3l12.25 4v-7.97z" stroke="#3a414a" stroke-width=".05" fill="#3a414a"/><use xlink:href="#k" transform="matrix(1,0,0,1,-1067.6838862697784,-332.35288221784106) translate(0 14.222222222222223)"/><path d="M-1668.5-351.3l.08.9.2.83.34.8.45.74.56.66.66.56.73.44.8.34.84.2.9.07h58.13v.95h-58.18l-1-.08-.98-.24-.94-.4-.87-.52-.77-.66-.66-.77-.53-.87-.4-.94-.23-.98-.08-1v-181.86h.95zm370.56 5.55v.95h-190.5v-.95z" stroke="#3a414a" stroke-width=".05" fill="#3a414a"/><path d="M-1297.52-345l-.05.2h-.38v-.95h.66z" fill="#3a414a"/><path stroke="#3a414a" stroke-width=".05" fill="#3a414a"/><path d="M-1664.33-533.62h-9.27l4.64-14.26z" fill="#3a414a"/><path d="M-1663.67-533.14h-10.58l5.3-16.28zm-9.27-.95h7.96l-3.98-12.25z" stroke="#3a414a" stroke-width=".05" fill="#3a414a"/><use xlink:href="#k" transform="matrix(1,0,0,1,-1604.795476626584,-355.94423440634006) translate(0 14.222222222222223)"/><path d="M-1379.53-157.98l.07.88.2.85.34.8.45.74.56.65.65.56.74.46.8.33.84.2.88.06h62.58v.95h-62.62l-1-.06-.98-.24-.94-.4-.87-.52-.78-.66-.66-.77-.53-.87-.4-.94-.23-1-.07-.98V-419.6h.94zm172.58-321.06l-.08 1-.24.98-.4.94-.52.87-.65.77-.77.66-.87.53-.92.4-1 .24-1 .08h-160.56l-.88.06-.85.2-.8.34-.75.45-.66.56-.57.66-.45.73-.33.8-.2.85-.08.88v26.1h-.94v-26.14l.07-1 .24-.98.4-.94.52-.87.66-.77.77-.66.86-.53.94-.4 1-.23.98-.08h160.58l.88-.06.84-.2.8-.34.74-.45.66-.55.56-.66.45-.75.33-.8.2-.85.07-.88v-14.48h.95z" stroke="#3a414a" stroke-width=".05" fill="#3a414a"/><path d="M-1206.95-493.55h-.95v-.5l.95-.03z" fill="#3a414a"/><path stroke="#3a414a" stroke-width=".05" fill="#3a414a"/><path d="M-1296.64-151.96l-14.26 4.64v-9.28z" fill="#3a414a"/><path d="M-1295.1-151.96l-16.28 5.3v-10.6zm-15.33 3.98l12.26-3.98-12.26-3.98z" stroke="#3a414a" stroke-width=".05" fill="#3a414a"/><use xlink:href="#f" transform="matrix(1,0,0,1,-1437.111111111111,-440.9464355349082) translate(0 14.222222222222223)"/><path d="M-1120-119.54c0 49.7-40.3 90-90 90s-90-40.3-90-90 40.3-90 90-90 90 40.3 90 90z" stroke="#282c33" stroke-width="2" fill="#fff"/><use xlink:href="#l" transform="matrix(1,0,0,1,-1280,-209.53993883254452) translate(25 94.44444444444446)"/><path d="M-987.14-119.06h-115.48v-.95l115.48-.02zm345.35-6.46l-.07 1-.24.98-.4.94-.53.87-.66.77-.76.66-.87.53-.93.4-1 .23-1 .08h-200v-.95l199.98-.02.88-.06.84-.2.8-.34.74-.45.66-.56.56-.66.45-.73.34-.8.2-.85.06-.88V-533.5h.95z" stroke="#3a414a" stroke-width=".05" fill="#3a414a"/><path d="M-1103.12-114.9l-14.26-4.64 14.26-4.63z" fill="#3a414a"/><path d="M-1102.64-114.25l-16.28-5.3 16.28-5.28zm-13.2-5.3l12.25 4v-7.97z" stroke="#3a414a" stroke-width=".05" fill="#3a414a"/><path d="M-641.8-533.5h-.94v-.5h.95z" fill="#3a414a"/><path stroke="#3a414a" stroke-width=".05" fill="#3a414a"/><use xlink:href="#m" transform="matrix(1,0,0,1,-987.138927426327,-130.20660549921118) translate(0 14.222222222222223)"/><path d="M-967.67-154.68h-158.07v-.95h158.07zm291.1-6.45l-.08 1-.24.98-.38.94-.53.85-.67.78-.77.66-.87.52-.95.4-1 .22-.98.08H-869.2v-.95h186.13l.88-.07.86-.2.8-.33.74-.45.66-.57.56-.66.45-.75.33-.8.2-.84.08-.87v-356.45h.94z" stroke="#3a414a" stroke-width=".05" fill="#3a414a"/><path d="M-1125.72-154.68h-.33l-.24-.6-.15-.35h.73z" fill="#3a414a"/><path stroke="#3a414a" stroke-width=".05" fill="#3a414a"/><path d="M-672.4-518.12h-9.28l4.63-14.26z" fill="#3a414a"/><path d="M-671.76-517.64h-10.58l5.3-16.28zm-9.27-.95h7.96l-3.98-12.25z" stroke="#3a414a" stroke-width=".05" fill="#3a414a"/><use xlink:href="#n" transform="matrix(1,0,0,1,-967.6737288292611,-165.81885409606522) translate(0 14.222222222222223)"/><path d="M-1209.53 42.62h-.94V6.67h.94zm0-57.3h-.94v-13.36h.94z" stroke="#3a414a" stroke-width=".05" fill="#3a414a"/><path d="M-1210-28.54h.47v.5h-.94v-.5z" fill="#3a414a"/><path stroke="#3a414a" stroke-width=".05" fill="#3a414a"/><path d="M-1210 57.38l-4.63-14.26h9.27z" fill="#3a414a"/><path d="M-1210 58.92l-5.3-16.28h10.6zm-3.98-15.33l3.98 12.24 3.98-12.25z" stroke="#3a414a" stroke-width=".05" fill="#3a414a"/><use xlink:href="#m" transform="matrix(1,0,0,1,-1279.432098765432,-14.666666666666558) translate(0 14.222222222222223)"/><path d="M-1120 150c0 49.7-40.3 90-90 90s-90-40.3-90-90 40.3-90 90-90 90 40.3 90 90z" stroke="#282c33" stroke-width="2" fill="#fff"/><use xlink:href="#o" transform="matrix(1,0,0,1,-1280,60) translate(26.203703703703702 81.11111111111111)"/><use xlink:href="#p" transform="matrix(1,0,0,1,-1280,60) translate(26.23456790123457 107.77777777777777)"/><path d="M-1780 115h180v70h-180z" stroke="#000" fill="#fff"/><use xlink:href="#l" transform="matrix(1,0,0,1,-1760,115) translate(19.400000000000006 41.044444444444444)"/><path d="M-1487.3 128.47H-1599v-.94h111.7zm172.63 0h-95.8v-.94h95.8z" stroke="#3a414a" stroke-width=".05" fill="#3a414a"/><path d="M-1599 128.47h-.5v-.94h.5z" fill="#3a414a"/><path stroke="#3a414a" stroke-width=".05" fill="#3a414a"/><path d="M-1299.9 128l-14.27 4.63v-9.27z" fill="#3a414a"/><path d="M-1298.37 128l-16.28 5.3v-10.6zm-15.33 3.98l12.26-3.98-12.26-3.98z" stroke="#3a414a" stroke-width=".05" fill="#3a414a"/><use xlink:href="#q" transform="matrix(1,0,0,1,-1487.3142338954922,117.33333333333356) translate(0 14.222222222222223)"/><path d="M-1518.5 171.14h-64.62v-.95h64.63zm219.38 0h-80.5v-.95h80.5z" stroke="#3a414a" stroke-width=".05" fill="#3a414a"/><path d="M-1583.62 175.3l-14.26-4.63 14.26-4.64z" fill="#3a414a"/><path d="M-1583.14 175.96l-16.28-5.3 16.28-5.28zm-13.2-5.3l12.25 4v-7.97z" stroke="#3a414a" stroke-width=".05" fill="#3a414a"/><path d="M-1298.52 171.14h-.62v-.95h.42z" fill="#3a414a"/><path stroke="#3a414a" stroke-width=".05" fill="#3a414a"/><use xlink:href="#m" transform="matrix(1,0,0,1,-1518.493787691737,160.00000000000009) translate(0 14.222222222222223)"/><path d="M-982.08 190.47h-145.7v-.94h145.7zm205.7 0h-129.8v-.94h129.8z" stroke="#3a414a" stroke-width=".05" fill="#3a414a"/><path d="M-1127.75 190.47h-.76l.48-.94h.27z" fill="#3a414a"/><path stroke="#3a414a" stroke-width=".05" fill="#3a414a"/><path d="M-761.62 190l-14.26 4.63v-9.26z" fill="#3a414a"/><path d="M-760.08 190l-16.28 5.3v-10.6zm-15.33 3.98l12.24-3.98-12.25-3.98z" stroke="#3a414a" stroke-width=".05" fill="#3a414a"/><use xlink:href="#r" transform="matrix(1,0,0,1,-982.0830758078984,179.33333219686116) translate(0 14.222222222222223)"/><path d="M-760 106a6 6 0 0 1 6-6h188a6 6 0 0 1 6 6v88a6 6 0 0 1-6 6h-188a6 6 0 0 1-6-6z" fill="#fff"/><path d="M-760 100h200m0 100h-200" stroke="#282c33" stroke-width="2" fill="#fff"/><use xlink:href="#s" transform="matrix(1,0,0,1,-740,100) translate(36.2037037037037 54.44444444444444)"/><path d="M-1717.2 79.8l.08.88.2.84.34.8.45.74.56.66.66.56.73.45.8.33.84.2.9.08H-1275v.95h-436.68l-1-.1-.98-.23-.94-.4-.87-.52-.77-.66-.66-.78-.53-.87-.4-.94-.23-.97-.08-1V-173.1h.95zm0-274.22h-.94v-338.7h.95z" stroke="#3a414a" stroke-width=".05" fill="#3a414a"/><path d="M-1274.84 86.15l-.13.14-.03-.96h1z" fill="#3a414a"/><path stroke="#3a414a" stroke-width=".05" fill="#3a414a"/><path d="M-1713.03-533.62h-9.27l4.64-14.26z" fill="#3a414a"/><path d="M-1712.37-533.14h-10.58l5.3-16.28zm-9.27-.95h7.96l-3.98-12.25z" stroke="#3a414a" stroke-width=".05" fill="#3a414a"/><use xlink:href="#t" transform="matrix(1,0,0,1,-1789.1194008676443,-194.42203490787554) translate(0 14.222222222222223)"/><path d="M-1016.1 108.47h-96.8v-.94h96.8zm255.6 0h-112.7v-.94h112.7z" stroke="#3a414a" stroke-width=".05" fill="#3a414a"/><path d="M-760 108.47h-.5v-.94h.5z" fill="#3a414a"/><path stroke="#3a414a" stroke-width=".05" fill="#3a414a"/><path d="M-1113.4 112.64l-14.27-4.64 14.27-4.64z" fill="#3a414a"/><path d="M-1112.93 113.3l-16.28-5.3 16.27-5.3zm-13.2-5.3l12.25 3.98v-7.96z" stroke="#3a414a" stroke-width=".05" fill="#3a414a"/><use xlink:href="#t" transform="matrix(1,0,0,1,-1016.1007153480139,97.33332765151253) translate(0 14.222222222222223)"/><path d="M-1780 302.5h180v70h-180z" stroke="#000" fill="#fff"/><use xlink:href="#u" transform="matrix(1,0,0,1,-1760,302.5) translate(20.634567901234576 41.044444444444444)"/><path d="M-1520.6 317.8h-78.4v-.94h78.4zm205.46 0h-62.53v-.94h62.53z" stroke="#3a414a" stroke-width=".05" fill="#3a414a"/><path d="M-1599 317.8h-.5v-.94h.5z" fill="#3a414a"/><path stroke="#3a414a" stroke-width=".05" fill="#3a414a"/><path d="M-1300.38 317.33l-14.26 4.64v-9.27z" fill="#3a414a"/><path d="M-1298.84 317.33l-16.28 5.3v-10.6zm-15.33 4l12.26-4-12.27-3.98z" stroke="#3a414a" stroke-width=".05" fill="#3a414a"/><use xlink:href="#t" transform="matrix(1,0,0,1,-1520.5853436282741,306.6666666666666) translate(0 14.222222222222223)"/><path d="M-1120 337.5c0 49.7-40.3 90-90 90s-90-40.3-90-90 40.3-90 90-90 90 40.3 90 90z" stroke="#282c33" stroke-width="2" fill="#fff"/><use xlink:href="#v" transform="matrix(1,0,0,1,-1280,247.5) translate(14.50617283950617 81.11111111111111)"/><use xlink:href="#w" transform="matrix(1,0,0,1,-1280,247.5) translate(15.7716049382716 107.77777777777777)"/><path d="M-1014.16 304.48h-110.74v-.96h110.74zm237.78 0h-94.86v-.96h94.86z" stroke="#3a414a" stroke-width=".05" fill="#3a414a"/><path d="M-1124.9 304.48h-.3l-.4-.96h.7z" fill="#3a414a"/><path stroke="#3a414a" stroke-width=".05" fill="#3a414a"/><path d="M-761.62 304l-14.26 4.63v-9.26z" fill="#3a414a"/><path d="M-760.08 304l-16.28 5.3v-10.6zm-15.33 3.98l12.25-3.98-12.26-3.98z" stroke="#3a414a" stroke-width=".05" fill="#3a414a"/><use xlink:href="#t" transform="matrix(1,0,0,1,-1014.1576840877078,293.333330303017) translate(0 14.222222222222223)"/><path d="M-760 293.5a6 6 0 0 1 6-6h188a6 6 0 0 1 6 6v88a6 6 0 0 1-6 6h-188a6 6 0 0 1-6-6z" fill="#fff"/><path d="M-760 287.5h200m0 100h-200" stroke="#282c33" stroke-width="2" fill="#fff"/><use xlink:href="#v" transform="matrix(1,0,0,1,-740,287.50000000000006) translate(24.50617283950617 41.111111111111114)"/><use xlink:href="#w" transform="matrix(1,0,0,1,-740,287.50000000000006) translate(25.7716049382716 67.77777777777777)"/><path d="M-1004.77 363.14h-101.37v-.95h101.37zm244.27 0h-117.26v-.95h117.26z" stroke="#3a414a" stroke-width=".05" fill="#3a414a"/><path d="M-760 363.14h-.5v-.95h.5z" fill="#3a414a"/><path stroke="#3a414a" stroke-width=".05" fill="#3a414a"/><path d="M-1106.64 367.3l-14.27-4.63 14.26-4.64z" fill="#3a414a"/><path d="M-1106.17 367.96l-16.28-5.3 16.28-5.28zm-13.2-5.3l12.25 4v-7.98z" stroke="#3a414a" stroke-width=".05" fill="#3a414a"/><use xlink:href="#x" transform="matrix(1,0,0,1,-1004.7708154043717,351.99999999991104) translate(0 14.222222222222223)"/><path d="M-1207.73 482.62h-.95v-13.2h.95zm0-34.54h-.95v-19.1h.95z" stroke="#3a414a" stroke-width=".05" fill="#3a414a"/><path d="M-1207.73 429h-.95v-.5h.1l.85-.05z" fill="#3a414a"/><path stroke="#3a414a" stroke-width=".05" fill="#3a414a"/><path d="M-1208.2 497.38l-4.64-14.26h9.27z" fill="#3a414a"/><path d="M-1208.2 498.92l-5.3-16.28h10.58zm-4-15.33l4 12.25 3.97-12.26z" stroke="#3a414a" stroke-width=".05" fill="#3a414a"/><use xlink:href="#x" transform="matrix(1,0,0,1,-1271.715059833375,448.07651115503114) translate(0 14.222222222222223)"/><path d="M-1118.2 590c0 49.7-40.3 90-90 90s-90-40.3-90-90 40.3-90 90-90 90 40.3 90 90z" stroke="#282c33" stroke-width="2" fill="#fff"/><use xlink:href="#y" transform="matrix(1,0,0,1,-1278.2088869938689,500) translate(32.376543209876544 81.11111111111111)"/><use xlink:href="#z" transform="matrix(1,0,0,1,-1278.2088869938689,500) translate(26.203703703703702 107.77777777777777)"/><path d="M-971.97 590.48h-144.74v-.96h144.73zM-525 149.6l1 .24.94.4.87.52.78.66.66.77.53.86.4.94.23 1 .08.98v428.04l-.08 1-.24.98-.4.94-.52.87-.66.78-.77.66-.86.53-.94.4-1 .23-.98.08h-303.08v-.96h303.04l.88-.06.85-.2.8-.34.75-.45.66-.56.57-.65.45-.74.33-.8.2-.84.07-.88V156.02l-.06-.88-.2-.85-.34-.8-.45-.75-.56-.66-.65-.57-.74-.45-.8-.33-.84-.2-.88-.08h-17.6v-.94h17.64z" stroke="#3a414a" stroke-width=".05" fill="#3a414a"/><path d="M-1116.7 590.48h-.52v-.95h.52z" fill="#3a414a"/><path stroke="#3a414a" stroke-width=".05" fill="#3a414a"/><path d="M-544.12 154.63l-14.26-4.63 14.26-4.63z" fill="#3a414a"/><path d="M-543.64 155.3l-16.28-5.3 16.28-5.3zm-13.2-5.3l12.25 3.98v-7.96z" stroke="#3a414a" stroke-width=".05" fill="#3a414a"/><use xlink:href="#t" transform="matrix(1,0,0,1,-971.9692217567106,579.3333333333334) translate(0 14.222222222222223)"/><path d="M-1689.53 583.98l.07.88.2.85.34.8.45.75.56.66.65.57.74.45.8.33.84.2.88.07H-1542v.96h-142.02l-1-.08-.98-.24-.94-.4-.87-.52-.78-.66-.66-.77-.53-.86-.4-.94-.23-1-.07-.98V389.38h.94zm389.82 5.54v.96h-91.63v-.96z" stroke="#3a414a" stroke-width=".05" fill="#3a414a"/><path d="M-1299.2 590v.48h-.52v-.96h.52z" fill="#3a414a"/><path stroke="#3a414a" stroke-width=".05" fill="#3a414a"/><path d="M-1685.37 388.88h-9.27l4.64-14.26z" fill="#3a414a"/><path d="M-1684.7 389.36h-10.6l5.3-16.28zm-9.28-.95h7.96l-3.98-12.25z" stroke="#3a414a" stroke-width=".05" fill="#3a414a"/><use xlink:href="#A" transform="matrix(1,0,0,1,-1541.9999999999998,579.3333333333334) translate(0 14.222222222222223)"/><path d="M-1511.82 364.3h-71.3v-.95h71.3zm214.18 0h-87.17v-.95h87.16z" stroke="#3a414a" stroke-width=".05" fill="#3a414a"/><path d="M-1297.13 363.82l.15.48h-.67v-.95h.4z" fill="#3a414a"/><path stroke="#3a414a" stroke-width=".05" fill="#3a414a"/><path d="M-1583.62 368.46l-14.26-4.64 14.27-4.63z" fill="#3a414a"/><path d="M-1583.14 369.1l-16.28-5.28 16.28-5.3zm-13.2-5.28l12.25 3.98v-7.96z" stroke="#3a414a" stroke-width=".05" fill="#3a414a"/><g><use xlink:href="#B" transform="matrix(1,0,0,1,-1511.823674319503,353.15605152316783) translate(0 14.222222222222223)"/></g><defs><path fill="#3a414a" d="M205 0l-28-72H64L36 0H1l101-248h38L239 0h-34zm-38-99l-47-123c-12 45-31 82-46 123h93" id="C"/><path fill="#3a414a" d="M115-194c55 1 70 41 70 98S169 2 115 4C84 4 66-9 55-30l1 105H24l-1-265h31l2 30c10-21 28-34 59-34zm-8 174c40 0 45-34 45-75s-6-73-45-74c-42 0-51 32-51 76 0 43 10 73 51 73" id="D"/><path fill="#3a414a" d="M24 0v-261h32V0H24" id="E"/><path fill="#3a414a" d="M24-231v-30h32v30H24zM24 0v-190h32V0H24" id="F"/><path fill="#3a414a" d="M96-169c-40 0-48 33-48 73s9 75 48 75c24 0 41-14 43-38l32 2c-6 37-31 61-74 61-59 0-76-41-82-99-10-93 101-131 147-64 4 7 5 14 7 22l-32 3c-4-21-16-35-41-35" id="G"/><path fill="#3a414a" d="M141-36C126-15 110 5 73 4 37 3 15-17 15-53c-1-64 63-63 125-63 3-35-9-54-41-54-24 1-41 7-42 31l-33-3c5-37 33-52 76-52 45 0 72 20 72 64v82c-1 20 7 32 28 27v20c-31 9-61-2-59-35zM48-53c0 20 12 33 32 33 41-3 63-29 60-74-43 2-92-5-92 41" id="H"/><path fill="#3a414a" d="M117-194c89-4 53 116 60 194h-32v-121c0-31-8-49-39-48C34-167 62-67 57 0H25l-1-190h30c1 10-1 24 2 32 11-22 29-35 61-36" id="I"/><path fill="#3a414a" d="M59-47c-2 24 18 29 38 22v24C64 9 27 4 27-40v-127H5v-23h24l9-43h21v43h35v23H59v120" id="J"/><g id="a"><use transform="matrix(0.06172839506172839,0,0,0.06172839506172839,0,0)" xlink:href="#C"/><use transform="matrix(0.06172839506172839,0,0,0.06172839506172839,14.814814814814813,0)" xlink:href="#D"/><use transform="matrix(0.06172839506172839,0,0,0.06172839506172839,27.160493827160494,0)" xlink:href="#D"/><use transform="matrix(0.06172839506172839,0,0,0.06172839506172839,39.50617283950617,0)" xlink:href="#E"/><use transform="matrix(0.06172839506172839,0,0,0.06172839506172839,44.382716049382715,0)" xlink:href="#F"/><use transform="matrix(0.06172839506172839,0,0,0.06172839506172839,49.25925925925926,0)" xlink:href="#G"/><use transform="matrix(0.06172839506172839,0,0,0.06172839506172839,60.37037037037037,0)" xlink:href="#H"/><use transform="matrix(0.06172839506172839,0,0,0.06172839506172839,72.71604938271605,0)" xlink:href="#I"/><use transform="matrix(0.06172839506172839,0,0,0.06172839506172839,85.06172839506173,0)" xlink:href="#J"/></g><path fill="#333" d="M24 0v-248h52V0H24" id="K"/><path fill="#333" d="M135-194c87-1 58 113 63 194h-50c-7-57 23-157-34-157-59 0-34 97-39 157H25l-1-190h47c2 12-1 28 3 38 12-26 28-41 61-42" id="L"/><path fill="#333" d="M121-226c-27-7-43 5-38 36h38v33H83V0H34v-157H6v-33h28c-9-59 32-81 87-68v32" id="M"/><path fill="#333" d="M110-194c64 0 96 36 96 99 0 64-35 99-97 99-61 0-95-36-95-99 0-62 34-99 96-99zm-1 164c35 0 45-28 45-65 0-40-10-65-43-65-34 0-45 26-45 65 0 36 10 65 43 65" id="N"/><path fill="#333" d="M135-150c-39-12-60 13-60 57V0H25l-1-190h47c2 13-1 29 3 40 6-28 27-53 61-41v41" id="O"/><path fill="#333" d="M220-157c-53 9-28 100-34 157h-49v-107c1-27-5-49-29-50C55-147 81-57 75 0H25l-1-190h47c2 12-1 28 3 38 10-53 101-56 108 0 13-22 24-43 59-42 82 1 51 116 57 194h-49v-107c-1-25-5-48-29-50" id="P"/><path fill="#333" d="M133-34C117-15 103 5 69 4 32 3 11-16 11-54c-1-60 55-63 116-61 1-26-3-47-28-47-18 1-26 9-28 27l-52-2c7-38 36-58 82-57s74 22 75 68l1 82c-1 14 12 18 25 15v27c-30 8-71 5-69-32zm-48 3c29 0 43-24 42-57-32 0-66-3-65 30 0 17 8 27 23 27" id="Q"/><path fill="#333" d="M115-3C79 11 28 4 28-45v-112H4v-33h27l15-45h31v45h36v33H77v99c-1 23 16 31 38 25v30" id="R"/><path fill="#333" d="M25-224v-37h50v37H25zM25 0v-190h50V0H25" id="S"/><g id="b"><use transform="matrix(0.04938271604938272,0,0,0.04938271604938272,0,0)" xlink:href="#K"/><use transform="matrix(0.04938271604938272,0,0,0.04938271604938272,4.938271604938272,0)" xlink:href="#L"/><use transform="matrix(0.04938271604938272,0,0,0.04938271604938272,15.753086419753087,0)" xlink:href="#M"/><use transform="matrix(0.04938271604938272,0,0,0.04938271604938272,21.62962962962963,0)" xlink:href="#N"/><use transform="matrix(0.04938271604938272,0,0,0.04938271604938272,32.44444444444444,0)" xlink:href="#O"/><use transform="matrix(0.04938271604938272,0,0,0.04938271604938272,39.358024691358025,0)" xlink:href="#P"/><use transform="matrix(0.04938271604938272,0,0,0.04938271604938272,55.1604938271605,0)" xlink:href="#Q"/><use transform="matrix(0.04938271604938272,0,0,0.04938271604938272,65.03703703703704,0)" xlink:href="#R"/><use transform="matrix(0.04938271604938272,0,0,0.04938271604938272,70.91358024691358,0)" xlink:href="#S"/><use transform="matrix(0.04938271604938272,0,0,0.04938271604938272,75.85185185185185,0)" xlink:href="#N"/><use transform="matrix(0.04938271604938272,0,0,0.04938271604938272,86.66666666666666,0)" xlink:href="#L"/></g><path fill="#3a414a" d="M100-194c62-1 85 37 85 99 1 63-27 99-86 99S16-35 15-95c0-66 28-99 85-99zM99-20c44 1 53-31 53-75 0-43-8-75-51-75s-53 32-53 75 10 74 51 75" id="T"/><g id="c"><use transform="matrix(0.06172839506172839,0,0,0.06172839506172839,0,0)" xlink:href="#C"/><use transform="matrix(0.06172839506172839,0,0,0.06172839506172839,14.814814814814813,0)" xlink:href="#D"/><use transform="matrix(0.06172839506172839,0,0,0.06172839506172839,27.160493827160494,0)" xlink:href="#D"/><use transform="matrix(0.06172839506172839,0,0,0.06172839506172839,39.50617283950617,0)" xlink:href="#E"/><use transform="matrix(0.06172839506172839,0,0,0.06172839506172839,44.382716049382715,0)" xlink:href="#F"/><use transform="matrix(0.06172839506172839,0,0,0.06172839506172839,49.25925925925926,0)" xlink:href="#G"/><use transform="matrix(0.06172839506172839,0,0,0.06172839506172839,60.37037037037037,0)" xlink:href="#H"/><use transform="matrix(0.06172839506172839,0,0,0.06172839506172839,72.71604938271605,0)" xlink:href="#J"/><use transform="matrix(0.06172839506172839,0,0,0.06172839506172839,78.88888888888889,0)" xlink:href="#F"/><use transform="matrix(0.06172839506172839,0,0,0.06172839506172839,83.76543209876543,0)" xlink:href="#T"/><use transform="matrix(0.06172839506172839,0,0,0.06172839506172839,96.11111111111111,0)" xlink:href="#I"/></g><path fill="#333" d="M199 0l-22-63H83L61 0H9l90-248h61L250 0h-51zm-33-102l-36-108c-10 38-24 72-36 108h72" id="U"/><path fill="#333" d="M135-194c53 0 70 44 70 98 0 56-19 98-73 100-31 1-45-17-59-34 3 33 2 69 2 105H25l-1-265h48c2 10 0 23 3 31 11-24 29-35 60-35zM114-30c33 0 39-31 40-66 0-38-9-64-40-64-56 0-55 130 0 130" id="V"/><path fill="#333" d="M25 0v-261h50V0H25" id="W"/><path fill="#333" d="M190-63c-7 42-38 67-86 67-59 0-84-38-90-98-12-110 154-137 174-36l-49 2c-2-19-15-32-35-32-30 0-35 28-38 64-6 74 65 87 74 30" id="X"/><g id="d"><use transform="matrix(0.04938271604938272,0,0,0.04938271604938272,0,0)" xlink:href="#U"/><use transform="matrix(0.04938271604938272,0,0,0.04938271604938272,12.790123456790125,0)" xlink:href="#V"/><use transform="matrix(0.04938271604938272,0,0,0.04938271604938272,23.60493827160494,0)" xlink:href="#V"/><use transform="matrix(0.04938271604938272,0,0,0.04938271604938272,34.41975308641975,0)" xlink:href="#W"/><use transform="matrix(0.04938271604938272,0,0,0.04938271604938272,39.358024691358025,0)" xlink:href="#S"/><use transform="matrix(0.04938271604938272,0,0,0.04938271604938272,44.2962962962963,0)" xlink:href="#X"/><use transform="matrix(0.04938271604938272,0,0,0.04938271604938272,54.17283950617284,0)" xlink:href="#Q"/><use transform="matrix(0.04938271604938272,0,0,0.04938271604938272,64.0493827160494,0)" xlink:href="#R"/><use transform="matrix(0.04938271604938272,0,0,0.04938271604938272,69.92592592592594,0)" xlink:href="#S"/><use transform="matrix(0.04938271604938272,0,0,0.04938271604938272,74.8641975308642,0)" xlink:href="#N"/><use transform="matrix(0.04938271604938272,0,0,0.04938271604938272,85.67901234567901,0)" xlink:href="#L"/></g><path fill="#333" d="M24-248c120-7 223 5 221 122C244-46 201 0 124 0H24v-248zM76-40c74 7 117-18 117-86 0-67-45-88-117-82v168" id="Y"/><g id="e"><use transform="matrix(0.04938271604938272,0,0,0.04938271604938272,0,0)" xlink:href="#K"/><use transform="matrix(0.04938271604938272,0,0,0.04938271604938272,4.938271604938272,0)" xlink:href="#Y"/></g><g id="f"><use transform="matrix(0.04938271604938272,0,0,0.04938271604938272,0,0)" xlink:href="#U"/><use transform="matrix(0.04938271604938272,0,0,0.04938271604938272,12.790123456790125,0)" xlink:href="#V"/><use transform="matrix(0.04938271604938272,0,0,0.04938271604938272,23.60493827160494,0)" xlink:href="#V"/><use transform="matrix(0.04938271604938272,0,0,0.04938271604938272,34.41975308641975,0)" xlink:href="#W"/><use transform="matrix(0.04938271604938272,0,0,0.04938271604938272,39.358024691358025,0)" xlink:href="#S"/><use transform="matrix(0.04938271604938272,0,0,0.04938271604938272,44.2962962962963,0)" xlink:href="#X"/><use transform="matrix(0.04938271604938272,0,0,0.04938271604938272,54.17283950617284,0)" xlink:href="#Q"/><use transform="matrix(0.04938271604938272,0,0,0.04938271604938272,64.0493827160494,0)" xlink:href="#R"/><use transform="matrix(0.04938271604938272,0,0,0.04938271604938272,69.92592592592594,0)" xlink:href="#S"/><use transform="matrix(0.04938271604938272,0,0,0.04938271604938272,74.8641975308642,0)" xlink:href="#N"/><use transform="matrix(0.04938271604938272,0,0,0.04938271604938272,85.67901234567901,0)" xlink:href="#L"/><use transform="matrix(0.04938271604938272,0,0,0.04938271604938272,96.49382716049382,0)" xlink:href="#K"/><use transform="matrix(0.04938271604938272,0,0,0.04938271604938272,101.4320987654321,0)" xlink:href="#Y"/></g><path fill="#3a414a" d="M240 0l2-218c-23 76-54 145-80 218h-23L58-218 59 0H30v-248h44l77 211c21-75 51-140 76-211h43V0h-30" id="Z"/><path fill="#3a414a" d="M143 0L79-87 56-68V0H24v-261h32v163l83-92h37l-77 82L181 0h-38" id="aa"/><path fill="#3a414a" d="M100-194c63 0 86 42 84 106H49c0 40 14 67 53 68 26 1 43-12 49-29l28 8c-11 28-37 45-77 45C44 4 14-33 15-96c1-61 26-98 85-98zm52 81c6-60-76-77-97-28-3 7-6 17-6 28h103" id="ab"/><g id="g"><use transform="matrix(0.06172839506172839,0,0,0.06172839506172839,0,0)" xlink:href="#Z"/><use transform="matrix(0.06172839506172839,0,0,0.06172839506172839,18.456790123456788,0)" xlink:href="#H"/><use transform="matrix(0.06172839506172839,0,0,0.06172839506172839,30.80246913580247,0)" xlink:href="#aa"/><use transform="matrix(0.06172839506172839,0,0,0.06172839506172839,41.91358024691358,0)" xlink:href="#ab"/></g><path fill="#3a414a" d="M30-248c87 1 191-15 191 75 0 78-77 80-158 76V0H30v-248zm33 125c57 0 124 11 124-50 0-59-68-47-124-48v98" id="ac"/><path fill="#3a414a" d="M179-190L93 31C79 59 56 82 12 73V49c39 6 53-20 64-50L1-190h34L92-34l54-156h33" id="ad"/><path fill="#3a414a" d="M210-169c-67 3-38 105-44 169h-31v-121c0-29-5-50-35-48C34-165 62-65 56 0H25l-1-190h30c1 10-1 24 2 32 10-44 99-50 107 0 11-21 27-35 58-36 85-2 47 119 55 194h-31v-121c0-29-5-49-35-48" id="ae"/><g id="h"><use transform="matrix(0.06172839506172839,0,0,0.06172839506172839,0,0)" xlink:href="#ac"/><use transform="matrix(0.06172839506172839,0,0,0.06172839506172839,14.814814814814813,0)" xlink:href="#H"/><use transform="matrix(0.06172839506172839,0,0,0.06172839506172839,27.160493827160494,0)" xlink:href="#ad"/><use transform="matrix(0.06172839506172839,0,0,0.06172839506172839,38.27160493827161,0)" xlink:href="#ae"/><use transform="matrix(0.06172839506172839,0,0,0.06172839506172839,56.72839506172839,0)" xlink:href="#ab"/><use transform="matrix(0.06172839506172839,0,0,0.06172839506172839,69.07407407407408,0)" xlink:href="#I"/><use transform="matrix(0.06172839506172839,0,0,0.06172839506172839,81.41975308641976,0)" xlink:href="#J"/></g><g id="i"><use transform="matrix(0.04938271604938272,0,0,0.04938271604938272,0,0)" xlink:href="#U"/><use transform="matrix(0.04938271604938272,0,0,0.04938271604938272,12.790123456790125,0)" xlink:href="#V"/><use transform="matrix(0.04938271604938272,0,0,0.04938271604938272,23.60493827160494,0)" xlink:href="#W"/><use transform="matrix(0.04938271604938272,0,0,0.04938271604938272,28.543209876543212,0)" xlink:href="#S"/><use transform="matrix(0.04938271604938272,0,0,0.04938271604938272,33.48148148148148,0)" xlink:href="#X"/><use transform="matrix(0.04938271604938272,0,0,0.04938271604938272,43.358024691358025,0)" xlink:href="#Q"/><use transform="matrix(0.04938271604938272,0,0,0.04938271604938272,53.23456790123457,0)" xlink:href="#R"/><use transform="matrix(0.04938271604938272,0,0,0.04938271604938272,59.111111111111114,0)" xlink:href="#S"/><use transform="matrix(0.04938271604938272,0,0,0.04938271604938272,64.0493827160494,0)" xlink:href="#N"/><use transform="matrix(0.04938271604938272,0,0,0.04938271604938272,74.8641975308642,0)" xlink:href="#L"/><use transform="matrix(0.04938271604938272,0,0,0.04938271604938272,85.67901234567901,0)" xlink:href="#K"/><use transform="matrix(0.04938271604938272,0,0,0.04938271604938272,90.61728395061729,0)" xlink:href="#Y"/></g><g id="j"><use transform="matrix(0.06172839506172839,0,0,0.06172839506172839,0,0)" xlink:href="#ac"/><use transform="matrix(0.06172839506172839,0,0,0.06172839506172839,14.814814814814813,0)" xlink:href="#H"/><use transform="matrix(0.06172839506172839,0,0,0.06172839506172839,27.160493827160494,0)" xlink:href="#ad"/><use transform="matrix(0.06172839506172839,0,0,0.06172839506172839,38.27160493827161,0)" xlink:href="#ae"/><use transform="matrix(0.06172839506172839,0,0,0.06172839506172839,56.72839506172839,0)" xlink:href="#ab"/><use transform="matrix(0.06172839506172839,0,0,0.06172839506172839,69.07407407407408,0)" xlink:href="#I"/><use transform="matrix(0.06172839506172839,0,0,0.06172839506172839,81.41975308641976,0)" xlink:href="#J"/></g><path fill="#333" d="M24-248c93 1 206-16 204 79-1 75-69 88-152 82V0H24v-248zm52 121c47 0 100 7 100-41 0-47-54-39-100-39v80" id="af"/><path fill="#333" d="M123 10C108 53 80 86 19 72V37c35 8 53-11 59-39L3-190h52l48 148c12-52 28-100 44-148h51" id="ag"/><path fill="#333" d="M185-48c-13 30-37 53-82 52C43 2 14-33 14-96s30-98 90-98c62 0 83 45 84 108H66c0 31 8 55 39 56 18 0 30-7 34-22zm-45-69c5-46-57-63-70-21-2 6-4 13-4 21h74" id="ah"/><path fill="#333" d="M175 0L67-191c6 58 2 128 3 191H24v-248h59L193-55c-6-58-2-129-3-193h46V0h-61" id="ai"/><path fill="#333" d="M76-208v77h127v40H76V0H24v-248h183v40H76" id="aj"/><path fill="#333" d="M140-251c80 0 125 45 125 126S219 4 139 4C58 4 15-44 15-125s44-126 125-126zm-1 214c52 0 73-35 73-88 0-50-21-86-72-86-52 0-73 35-73 86s22 88 72 88" id="ak"/><g id="k"><use transform="matrix(0.04938271604938272,0,0,0.04938271604938272,0,0)" xlink:href="#af"/><use transform="matrix(0.04938271604938272,0,0,0.04938271604938272,11.851851851851853,0)" xlink:href="#Q"/><use transform="matrix(0.04938271604938272,0,0,0.04938271604938272,21.7283950617284,0)" xlink:href="#ag"/><use transform="matrix(0.04938271604938272,0,0,0.04938271604938272,31.60493827160494,0)" xlink:href="#P"/><use transform="matrix(0.04938271604938272,0,0,0.04938271604938272,47.40740740740741,0)" xlink:href="#ah"/><use transform="matrix(0.04938271604938272,0,0,0.04938271604938272,57.283950617283956,0)" xlink:href="#L"/><use transform="matrix(0.04938271604938272,0,0,0.04938271604938272,68.09876543209877,0)" xlink:href="#R"/><use transform="matrix(0.04938271604938272,0,0,0.04938271604938272,73.97530864197532,0)" xlink:href="#K"/><use transform="matrix(0.04938271604938272,0,0,0.04938271604938272,78.9135802469136,0)" xlink:href="#ai"/><use transform="matrix(0.04938271604938272,0,0,0.04938271604938272,91.70370370370372,0)" xlink:href="#aj"/><use transform="matrix(0.04938271604938272,0,0,0.04938271604938272,102.51851851851853,0)" xlink:href="#ak"/></g><path fill="#3a414a" d="M114-163C36-179 61-72 57 0H25l-1-190h30c1 12-1 29 2 39 6-27 23-49 58-41v29" id="al"/><path fill="#3a414a" d="M108 0H70L1-190h34L89-25l56-165h34" id="am"/><g id="l"><use transform="matrix(0.06172839506172839,0,0,0.06172839506172839,0,0)" xlink:href="#C"/><use transform="matrix(0.06172839506172839,0,0,0.06172839506172839,14.814814814814813,0)" xlink:href="#D"/><use transform="matrix(0.06172839506172839,0,0,0.06172839506172839,27.160493827160494,0)" xlink:href="#D"/><use transform="matrix(0.06172839506172839,0,0,0.06172839506172839,39.50617283950617,0)" xlink:href="#al"/><use transform="matrix(0.06172839506172839,0,0,0.06172839506172839,46.85185185185185,0)" xlink:href="#T"/><use transform="matrix(0.06172839506172839,0,0,0.06172839506172839,59.197530864197525,0)" xlink:href="#am"/><use transform="matrix(0.06172839506172839,0,0,0.06172839506172839,70.30864197530863,0)" xlink:href="#ab"/><use transform="matrix(0.06172839506172839,0,0,0.06172839506172839,82.65432098765432,0)" xlink:href="#al"/></g><g id="m"><use transform="matrix(0.04938271604938272,0,0,0.04938271604938272,0,0)" xlink:href="#U"/><use transform="matrix(0.04938271604938272,0,0,0.04938271604938272,12.790123456790125,0)" xlink:href="#V"/><use transform="matrix(0.04938271604938272,0,0,0.04938271604938272,23.60493827160494,0)" xlink:href="#V"/><use transform="matrix(0.04938271604938272,0,0,0.04938271604938272,34.41975308641975,0)" xlink:href="#W"/><use transform="matrix(0.04938271604938272,0,0,0.04938271604938272,39.358024691358025,0)" xlink:href="#S"/><use transform="matrix(0.04938271604938272,0,0,0.04938271604938272,44.2962962962963,0)" xlink:href="#X"/><use transform="matrix(0.04938271604938272,0,0,0.04938271604938272,54.17283950617284,0)" xlink:href="#Q"/><use transform="matrix(0.04938271604938272,0,0,0.04938271604938272,64.0493827160494,0)" xlink:href="#R"/><use transform="matrix(0.04938271604938272,0,0,0.04938271604938272,69.92592592592594,0)" xlink:href="#S"/><use transform="matrix(0.04938271604938272,0,0,0.04938271604938272,74.8641975308642,0)" xlink:href="#N"/><use transform="matrix(0.04938271604938272,0,0,0.04938271604938272,85.67901234567901,0)" xlink:href="#L"/><use transform="matrix(0.04938271604938272,0,0,0.04938271604938272,96.49382716049382,0)" xlink:href="#K"/><use transform="matrix(0.04938271604938272,0,0,0.04938271604938272,101.4320987654321,0)" xlink:href="#ai"/><use transform="matrix(0.04938271604938272,0,0,0.04938271604938272,114.22222222222223,0)" xlink:href="#aj"/><use transform="matrix(0.04938271604938272,0,0,0.04938271604938272,125.03703703703705,0)" xlink:href="#ak"/></g><g id="n"><use transform="matrix(0.04938271604938272,0,0,0.04938271604938272,0,0)" xlink:href="#U"/><use transform="matrix(0.04938271604938272,0,0,0.04938271604938272,12.790123456790125,0)" xlink:href="#V"/><use transform="matrix(0.04938271604938272,0,0,0.04938271604938272,23.60493827160494,0)" xlink:href="#V"/><use transform="matrix(0.04938271604938272,0,0,0.04938271604938272,34.41975308641975,0)" xlink:href="#W"/><use transform="matrix(0.04938271604938272,0,0,0.04938271604938272,39.358024691358025,0)" xlink:href="#S"/><use transform="matrix(0.04938271604938272,0,0,0.04938271604938272,44.2962962962963,0)" xlink:href="#X"/><use transform="matrix(0.04938271604938272,0,0,0.04938271604938272,54.17283950617284,0)" xlink:href="#Q"/><use transform="matrix(0.04938271604938272,0,0,0.04938271604938272,64.0493827160494,0)" xlink:href="#L"/><use transform="matrix(0.04938271604938272,0,0,0.04938271604938272,74.8641975308642,0)" xlink:href="#R"/><use transform="matrix(0.04938271604938272,0,0,0.04938271604938272,80.74074074074075,0)" xlink:href="#K"/><use transform="matrix(0.04938271604938272,0,0,0.04938271604938272,85.67901234567901,0)" xlink:href="#Y"/></g><path fill="#3a414a" d="M135-143c-3-34-86-38-87 0 15 53 115 12 119 90S17 21 10-45l28-5c4 36 97 45 98 0-10-56-113-15-118-90-4-57 82-63 122-42 12 7 21 19 24 35" id="an"/><g id="o"><use transform="matrix(0.06172839506172839,0,0,0.06172839506172839,0,0)" xlink:href="#ac"/><use transform="matrix(0.06172839506172839,0,0,0.06172839506172839,14.814814814814813,0)" xlink:href="#H"/><use transform="matrix(0.06172839506172839,0,0,0.06172839506172839,27.160493827160494,0)" xlink:href="#an"/><use transform="matrix(0.06172839506172839,0,0,0.06172839506172839,38.27160493827161,0)" xlink:href="#an"/><use transform="matrix(0.06172839506172839,0,0,0.06172839506172839,49.38271604938272,0)" xlink:href="#D"/><use transform="matrix(0.06172839506172839,0,0,0.06172839506172839,61.7283950617284,0)" xlink:href="#T"/><use transform="matrix(0.06172839506172839,0,0,0.06172839506172839,74.07407407407408,0)" xlink:href="#al"/><use transform="matrix(0.06172839506172839,0,0,0.06172839506172839,81.41975308641976,0)" xlink:href="#J"/></g><g id="p"><use transform="matrix(0.06172839506172839,0,0,0.06172839506172839,0,0)" xlink:href="#C"/><use transform="matrix(0.06172839506172839,0,0,0.06172839506172839,14.814814814814813,0)" xlink:href="#D"/><use transform="matrix(0.06172839506172839,0,0,0.06172839506172839,27.160493827160494,0)" xlink:href="#D"/><use transform="matrix(0.06172839506172839,0,0,0.06172839506172839,39.50617283950617,0)" xlink:href="#al"/><use transform="matrix(0.06172839506172839,0,0,0.06172839506172839,46.85185185185185,0)" xlink:href="#T"/><use transform="matrix(0.06172839506172839,0,0,0.06172839506172839,59.197530864197525,0)" xlink:href="#am"/><use transform="matrix(0.06172839506172839,0,0,0.06172839506172839,70.30864197530863,0)" xlink:href="#H"/><use transform="matrix(0.06172839506172839,0,0,0.06172839506172839,82.65432098765432,0)" xlink:href="#E"/></g><path fill="#333" d="M128 0H69L1-190h53L99-40l48-150h52" id="ao"/><g id="q"><use transform="matrix(0.04938271604938272,0,0,0.04938271604938272,0,0)" xlink:href="#U"/><use transform="matrix(0.04938271604938272,0,0,0.04938271604938272,12.790123456790125,0)" xlink:href="#V"/><use transform="matrix(0.04938271604938272,0,0,0.04938271604938272,23.60493827160494,0)" xlink:href="#V"/><use transform="matrix(0.04938271604938272,0,0,0.04938271604938272,34.41975308641975,0)" xlink:href="#O"/><use transform="matrix(0.04938271604938272,0,0,0.04938271604938272,41.333333333333336,0)" xlink:href="#N"/><use transform="matrix(0.04938271604938272,0,0,0.04938271604938272,52.14814814814815,0)" xlink:href="#ao"/><use transform="matrix(0.04938271604938272,0,0,0.04938271604938272,62.0246913580247,0)" xlink:href="#Q"/><use transform="matrix(0.04938271604938272,0,0,0.04938271604938272,71.90123456790124,0)" xlink:href="#W"/></g><path fill="#333" d="M137-138c1-29-70-34-71-4 15 46 118 7 119 86 1 83-164 76-172 9l43-7c4 19 20 25 44 25 33 8 57-30 24-41C81-84 22-81 20-136c-2-80 154-74 161-7" id="ap"/><g id="r"><use transform="matrix(0.04938271604938272,0,0,0.04938271604938272,0,0)" xlink:href="#af"/><use transform="matrix(0.04938271604938272,0,0,0.04938271604938272,11.851851851851853,0)" xlink:href="#Q"/><use transform="matrix(0.04938271604938272,0,0,0.04938271604938272,21.7283950617284,0)" xlink:href="#ap"/><use transform="matrix(0.04938271604938272,0,0,0.04938271604938272,31.60493827160494,0)" xlink:href="#ap"/><use transform="matrix(0.04938271604938272,0,0,0.04938271604938272,41.48148148148149,0)" xlink:href="#V"/><use transform="matrix(0.04938271604938272,0,0,0.04938271604938272,52.2962962962963,0)" xlink:href="#N"/><use transform="matrix(0.04938271604938272,0,0,0.04938271604938272,63.111111111111114,0)" xlink:href="#O"/><use transform="matrix(0.04938271604938272,0,0,0.04938271604938272,70.0246913580247,0)" xlink:href="#R"/></g><g id="s"><use transform="matrix(0.06172839506172839,0,0,0.06172839506172839,0,0)" xlink:href="#ac"/><use transform="matrix(0.06172839506172839,0,0,0.06172839506172839,14.814814814814813,0)" xlink:href="#H"/><use transform="matrix(0.06172839506172839,0,0,0.06172839506172839,27.160493827160494,0)" xlink:href="#an"/><use transform="matrix(0.06172839506172839,0,0,0.06172839506172839,38.27160493827161,0)" xlink:href="#an"/><use transform="matrix(0.06172839506172839,0,0,0.06172839506172839,49.38271604938272,0)" xlink:href="#D"/><use transform="matrix(0.06172839506172839,0,0,0.06172839506172839,61.7283950617284,0)" xlink:href="#T"/><use transform="matrix(0.06172839506172839,0,0,0.06172839506172839,74.07407407407408,0)" xlink:href="#al"/><use transform="matrix(0.06172839506172839,0,0,0.06172839506172839,81.41975308641976,0)" xlink:href="#J"/></g><path fill="#333" d="M85 4C-2 5 27-109 22-190h50c7 57-23 150 33 157 60-5 35-97 40-157h50l1 190h-47c-2-12 1-28-3-38-12 25-28 42-61 42" id="aq"/><path fill="#333" d="M135-194c52 0 70 43 70 98 0 56-19 99-73 100-30 1-46-15-58-35L72 0H24l1-261h50v104c11-23 29-37 60-37zM114-30c31 0 40-27 40-66 0-37-7-63-39-63s-41 28-41 65c0 36 8 64 40 64" id="ar"/><g id="t"><use transform="matrix(0.04938271604938272,0,0,0.04938271604938272,0,0)" xlink:href="#af"/><use transform="matrix(0.04938271604938272,0,0,0.04938271604938272,11.851851851851853,0)" xlink:href="#Q"/><use transform="matrix(0.04938271604938272,0,0,0.04938271604938272,21.7283950617284,0)" xlink:href="#ap"/><use transform="matrix(0.04938271604938272,0,0,0.04938271604938272,31.60493827160494,0)" xlink:href="#ap"/><use transform="matrix(0.04938271604938272,0,0,0.04938271604938272,41.48148148148149,0)" xlink:href="#V"/><use transform="matrix(0.04938271604938272,0,0,0.04938271604938272,52.2962962962963,0)" xlink:href="#N"/><use transform="matrix(0.04938271604938272,0,0,0.04938271604938272,63.111111111111114,0)" xlink:href="#O"/><use transform="matrix(0.04938271604938272,0,0,0.04938271604938272,70.0246913580247,0)" xlink:href="#R"/><use transform="matrix(0.04938271604938272,0,0,0.04938271604938272,75.90123456790124,0)" xlink:href="#ai"/><use transform="matrix(0.04938271604938272,0,0,0.04938271604938272,88.69135802469137,0)" xlink:href="#aq"/><use transform="matrix(0.04938271604938272,0,0,0.04938271604938272,99.50617283950618,0)" xlink:href="#P"/><use transform="matrix(0.04938271604938272,0,0,0.04938271604938272,115.30864197530865,0)" xlink:href="#ar"/><use transform="matrix(0.04938271604938272,0,0,0.04938271604938272,126.12345679012344,0)" xlink:href="#ah"/><use transform="matrix(0.04938271604938272,0,0,0.04938271604938272,136,0)" xlink:href="#O"/></g><path fill="#3a414a" d="M84 4C-5 8 30-112 23-190h32v120c0 31 7 50 39 49 72-2 45-101 50-169h31l1 190h-30c-1-10 1-25-2-33-11 22-28 36-60 37" id="as"/><path fill="#3a414a" d="M106-169C34-169 62-67 57 0H25v-261h32l-1 103c12-21 28-36 61-36 89 0 53 116 60 194h-32v-121c2-32-8-49-39-48" id="at"/><g id="u"><use transform="matrix(0.06172839506172839,0,0,0.06172839506172839,0,0)" xlink:href="#C"/><use transform="matrix(0.06172839506172839,0,0,0.06172839506172839,14.814814814814813,0)" xlink:href="#as"/><use transform="matrix(0.06172839506172839,0,0,0.06172839506172839,27.160493827160494,0)" xlink:href="#J"/><use transform="matrix(0.06172839506172839,0,0,0.06172839506172839,33.333333333333336,0)" xlink:href="#at"/><use transform="matrix(0.06172839506172839,0,0,0.06172839506172839,45.67901234567901,0)" xlink:href="#T"/><use transform="matrix(0.06172839506172839,0,0,0.06172839506172839,58.02469135802469,0)" xlink:href="#al"/><use transform="matrix(0.06172839506172839,0,0,0.06172839506172839,65.37037037037037,0)" xlink:href="#F"/><use transform="matrix(0.06172839506172839,0,0,0.06172839506172839,70.24691358024691,0)" xlink:href="#J"/><use transform="matrix(0.06172839506172839,0,0,0.06172839506172839,76.41975308641975,0)" xlink:href="#ad"/></g><path fill="#3a414a" d="M233-177c-1 41-23 64-60 70L243 0h-38l-65-103H63V0H30v-248c88 3 205-21 203 71zM63-129c60-2 137 13 137-47 0-61-80-42-137-45v92" id="au"/><g id="v"><use transform="matrix(0.06172839506172839,0,0,0.06172839506172839,0,0)" xlink:href="#au"/><use transform="matrix(0.06172839506172839,0,0,0.06172839506172839,15.987654320987653,0)" xlink:href="#ab"/><use transform="matrix(0.06172839506172839,0,0,0.06172839506172839,28.333333333333332,0)" xlink:href="#am"/><use transform="matrix(0.06172839506172839,0,0,0.06172839506172839,39.44444444444444,0)" xlink:href="#T"/><use transform="matrix(0.06172839506172839,0,0,0.06172839506172839,51.79012345679012,0)" xlink:href="#G"/><use transform="matrix(0.06172839506172839,0,0,0.06172839506172839,62.90123456790123,0)" xlink:href="#H"/><use transform="matrix(0.06172839506172839,0,0,0.06172839506172839,75.24691358024691,0)" xlink:href="#J"/><use transform="matrix(0.06172839506172839,0,0,0.06172839506172839,81.41975308641975,0)" xlink:href="#F"/><use transform="matrix(0.06172839506172839,0,0,0.06172839506172839,86.29629629629629,0)" xlink:href="#T"/><use transform="matrix(0.06172839506172839,0,0,0.06172839506172839,98.64197530864197,0)" xlink:href="#I"/></g><g id="w"><use transform="matrix(0.06172839506172839,0,0,0.06172839506172839,0,0)" xlink:href="#C"/><use transform="matrix(0.06172839506172839,0,0,0.06172839506172839,14.814814814814813,0)" xlink:href="#D"/><use transform="matrix(0.06172839506172839,0,0,0.06172839506172839,27.160493827160494,0)" xlink:href="#D"/><use transform="matrix(0.06172839506172839,0,0,0.06172839506172839,39.50617283950617,0)" xlink:href="#E"/><use transform="matrix(0.06172839506172839,0,0,0.06172839506172839,44.382716049382715,0)" xlink:href="#F"/><use transform="matrix(0.06172839506172839,0,0,0.06172839506172839,49.25925925925926,0)" xlink:href="#G"/><use transform="matrix(0.06172839506172839,0,0,0.06172839506172839,60.37037037037037,0)" xlink:href="#H"/><use transform="matrix(0.06172839506172839,0,0,0.06172839506172839,72.71604938271605,0)" xlink:href="#J"/><use transform="matrix(0.06172839506172839,0,0,0.06172839506172839,78.88888888888889,0)" xlink:href="#F"/><use transform="matrix(0.06172839506172839,0,0,0.06172839506172839,83.76543209876543,0)" xlink:href="#T"/><use transform="matrix(0.06172839506172839,0,0,0.06172839506172839,96.11111111111111,0)" xlink:href="#I"/></g><path fill="#333" d="M240-174c0 40-23 61-54 70L253 0h-59l-57-94H76V0H24v-248c93 4 217-23 216 74zM76-134c48-2 112 12 112-38 0-48-66-32-112-35v73" id="av"/><g id="x"><use transform="matrix(0.04938271604938272,0,0,0.04938271604938272,0,0)" xlink:href="#av"/><use transform="matrix(0.04938271604938272,0,0,0.04938271604938272,12.790123456790125,0)" xlink:href="#U"/><use transform="matrix(0.04938271604938272,0,0,0.04938271604938272,25.58024691358025,0)" xlink:href="#V"/><use transform="matrix(0.04938271604938272,0,0,0.04938271604938272,36.39506172839506,0)" xlink:href="#V"/><use transform="matrix(0.04938271604938272,0,0,0.04938271604938272,47.20987654320988,0)" xlink:href="#W"/><use transform="matrix(0.04938271604938272,0,0,0.04938271604938272,52.14814814814815,0)" xlink:href="#S"/><use transform="matrix(0.04938271604938272,0,0,0.04938271604938272,57.086419753086425,0)" xlink:href="#X"/><use transform="matrix(0.04938271604938272,0,0,0.04938271604938272,66.96296296296296,0)" xlink:href="#Q"/><use transform="matrix(0.04938271604938272,0,0,0.04938271604938272,76.8395061728395,0)" xlink:href="#R"/><use transform="matrix(0.04938271604938272,0,0,0.04938271604938272,82.71604938271605,0)" xlink:href="#S"/><use transform="matrix(0.04938271604938272,0,0,0.04938271604938272,87.65432098765433,0)" xlink:href="#N"/><use transform="matrix(0.04938271604938272,0,0,0.04938271604938272,98.46913580246914,0)" xlink:href="#L"/><use transform="matrix(0.04938271604938272,0,0,0.04938271604938272,109.28395061728396,0)" xlink:href="#K"/><use transform="matrix(0.04938271604938272,0,0,0.04938271604938272,114.22222222222223,0)" xlink:href="#Y"/></g><g id="y"><use transform="matrix(0.06172839506172839,0,0,0.06172839506172839,0,0)" xlink:href="#au"/><use transform="matrix(0.06172839506172839,0,0,0.06172839506172839,15.987654320987653,0)" xlink:href="#ab"/><use transform="matrix(0.06172839506172839,0,0,0.06172839506172839,28.333333333333332,0)" xlink:href="#am"/><use transform="matrix(0.06172839506172839,0,0,0.06172839506172839,39.44444444444444,0)" xlink:href="#T"/><use transform="matrix(0.06172839506172839,0,0,0.06172839506172839,51.79012345679012,0)" xlink:href="#aa"/><use transform="matrix(0.06172839506172839,0,0,0.06172839506172839,62.90123456790123,0)" xlink:href="#ab"/></g><g id="z"><use transform="matrix(0.06172839506172839,0,0,0.06172839506172839,0,0)" xlink:href="#ac"/><use transform="matrix(0.06172839506172839,0,0,0.06172839506172839,14.814814814814813,0)" xlink:href="#H"/><use transform="matrix(0.06172839506172839,0,0,0.06172839506172839,27.160493827160494,0)" xlink:href="#an"/><use transform="matrix(0.06172839506172839,0,0,0.06172839506172839,38.27160493827161,0)" xlink:href="#an"/><use transform="matrix(0.06172839506172839,0,0,0.06172839506172839,49.38271604938272,0)" xlink:href="#D"/><use transform="matrix(0.06172839506172839,0,0,0.06172839506172839,61.7283950617284,0)" xlink:href="#T"/><use transform="matrix(0.06172839506172839,0,0,0.06172839506172839,74.07407407407408,0)" xlink:href="#al"/><use transform="matrix(0.06172839506172839,0,0,0.06172839506172839,81.41975308641976,0)" xlink:href="#J"/></g><path fill="#333" d="M169-182c-1-43-94-46-97-3 18 66 151 10 154 114 3 95-165 93-204 36-6-8-10-19-12-30l50-8c3 46 112 56 116 5-17-69-150-10-154-114-4-87 153-88 188-35 5 8 8 18 10 28" id="aw"/><g id="A"><use transform="matrix(0.04938271604938272,0,0,0.04938271604938272,0,0)" xlink:href="#U"/><use transform="matrix(0.04938271604938272,0,0,0.04938271604938272,12.790123456790125,0)" xlink:href="#V"/><use transform="matrix(0.04938271604938272,0,0,0.04938271604938272,23.60493827160494,0)" xlink:href="#V"/><use transform="matrix(0.04938271604938272,0,0,0.04938271604938272,34.41975308641975,0)" xlink:href="#W"/><use transform="matrix(0.04938271604938272,0,0,0.04938271604938272,39.358024691358025,0)" xlink:href="#S"/><use transform="matrix(0.04938271604938272,0,0,0.04938271604938272,44.2962962962963,0)" xlink:href="#X"/><use transform="matrix(0.04938271604938272,0,0,0.04938271604938272,54.17283950617284,0)" xlink:href="#Q"/><use transform="matrix(0.04938271604938272,0,0,0.04938271604938272,64.0493827160494,0)" xlink:href="#R"/><use transform="matrix(0.04938271604938272,0,0,0.04938271604938272,69.92592592592594,0)" xlink:href="#S"/><use transform="matrix(0.04938271604938272,0,0,0.04938271604938272,74.8641975308642,0)" xlink:href="#N"/><use transform="matrix(0.04938271604938272,0,0,0.04938271604938272,85.67901234567901,0)" xlink:href="#L"/><use transform="matrix(0.04938271604938272,0,0,0.04938271604938272,96.49382716049382,0)" xlink:href="#aw"/><use transform="matrix(0.04938271604938272,0,0,0.04938271604938272,108.34567901234567,0)" xlink:href="#R"/><use transform="matrix(0.04938271604938272,0,0,0.04938271604938272,114.22222222222221,0)" xlink:href="#Q"/><use transform="matrix(0.04938271604938272,0,0,0.04938271604938272,124.09876543209876,0)" xlink:href="#R"/><use transform="matrix(0.04938271604938272,0,0,0.04938271604938272,129.9753086419753,0)" xlink:href="#aq"/><use transform="matrix(0.04938271604938272,0,0,0.04938271604938272,140.7901234567901,0)" xlink:href="#ap"/></g><path fill="#3a414a" d="M240-174c0 40-23 61-54 70L253 0h-59l-57-94H76V0H24v-248c93 4 217-23 216 74zM76-134c48-2 112 12 112-38 0-48-66-32-112-35v73" id="ax"/><path fill="#3a414a" d="M199 0l-22-63H83L61 0H9l90-248h61L250 0h-51zm-33-102l-36-108c-10 38-24 72-36 108h72" id="ay"/><path fill="#3a414a" d="M135-194c53 0 70 44 70 98 0 56-19 98-73 100-31 1-45-17-59-34 3 33 2 69 2 105H25l-1-265h48c2 10 0 23 3 31 11-24 29-35 60-35zM114-30c33 0 39-31 40-66 0-38-9-64-40-64-56 0-55 130 0 130" id="az"/><path fill="#3a414a" d="M25 0v-261h50V0H25" id="aA"/><path fill="#3a414a" d="M25-224v-37h50v37H25zM25 0v-190h50V0H25" id="aB"/><path fill="#3a414a" d="M190-63c-7 42-38 67-86 67-59 0-84-38-90-98-12-110 154-137 174-36l-49 2c-2-19-15-32-35-32-30 0-35 28-38 64-6 74 65 87 74 30" id="aC"/><path fill="#3a414a" d="M133-34C117-15 103 5 69 4 32 3 11-16 11-54c-1-60 55-63 116-61 1-26-3-47-28-47-18 1-26 9-28 27l-52-2c7-38 36-58 82-57s74 22 75 68l1 82c-1 14 12 18 25 15v27c-30 8-71 5-69-32zm-48 3c29 0 43-24 42-57-32 0-66-3-65 30 0 17 8 27 23 27" id="aD"/><path fill="#3a414a" d="M115-3C79 11 28 4 28-45v-112H4v-33h27l15-45h31v45h36v33H77v99c-1 23 16 31 38 25v30" id="aE"/><path fill="#3a414a" d="M110-194c64 0 96 36 96 99 0 64-35 99-97 99-61 0-95-36-95-99 0-62 34-99 96-99zm-1 164c35 0 45-28 45-65 0-40-10-65-43-65-34 0-45 26-45 65 0 36 10 65 43 65" id="aF"/><path fill="#3a414a" d="M135-194c87-1 58 113 63 194h-50c-7-57 23-157-34-157-59 0-34 97-39 157H25l-1-190h47c2 12-1 28 3 38 12-26 28-41 61-42" id="aG"/><path fill="#3a414a" d="M24 0v-248h52V0H24" id="aH"/><path fill="#3a414a" d="M24-248c120-7 223 5 221 122C244-46 201 0 124 0H24v-248zM76-40c74 7 117-18 117-86 0-67-45-88-117-82v168" id="aI"/><g id="B"><use transform="matrix(0.04938271604938272,0,0,0.04938271604938272,0,0)" xlink:href="#ax"/><use transform="matrix(0.04938271604938272,0,0,0.04938271604938272,12.790123456790125,0)" xlink:href="#ay"/><use transform="matrix(0.04938271604938272,0,0,0.04938271604938272,25.58024691358025,0)" xlink:href="#az"/><use transform="matrix(0.04938271604938272,0,0,0.04938271604938272,36.39506172839506,0)" xlink:href="#az"/><use transform="matrix(0.04938271604938272,0,0,0.04938271604938272,47.20987654320988,0)" xlink:href="#aA"/><use transform="matrix(0.04938271604938272,0,0,0.04938271604938272,52.14814814814815,0)" xlink:href="#aB"/><use transform="matrix(0.04938271604938272,0,0,0.04938271604938272,57.086419753086425,0)" xlink:href="#aC"/><use transform="matrix(0.04938271604938272,0,0,0.04938271604938272,66.96296296296296,0)" xlink:href="#aD"/><use transform="matrix(0.04938271604938272,0,0,0.04938271604938272,76.8395061728395,0)" xlink:href="#aE"/><use transform="matrix(0.04938271604938272,0,0,0.04938271604938272,82.71604938271605,0)" xlink:href="#aB"/><use transform="matrix(0.04938271604938272,0,0,0.04938271604938272,87.65432098765433,0)" xlink:href="#aF"/><use transform="matrix(0.04938271604938272,0,0,0.04938271604938272,98.46913580246914,0)" xlink:href="#aG"/><use transform="matrix(0.04938271604938272,0,0,0.04938271604938272,109.28395061728396,0)" xlink:href="#aH"/><use transform="matrix(0.04938271604938272,0,0,0.04938271604938272,114.22222222222223,0)" xlink:href="#aI"/></g></defs></g></svg>