<svg xmlns="http://www.w3.org/2000/svg" xmlns:xlink="http://www.w3.org/1999/xlink" xmlns:lucid="lucid" width="1542.36" height="781"><g transform="translate(-108.34367623201081 -217.7532919522395)" lucid:page-tab-id="WaxIQsR9Kjg9"><path d="M0 0h1760v1360H0z" fill="#fff"/><path d="M560 240.75a2 2 0 0 1 2-2h96a2 2 0 0 1 2 2v736a2 2 0 0 1-2 2h-96a2 2 0 0 1-2-2z" fill="#fbe9e7"/><use xlink:href="#a" transform="matrix(1,0,0,1,576,254.75329195223946) translate(0 16.69921875)"/><path d="M804.85 272.75l40.8-34h299.2V799.2l-34 40.8h-306z" stroke="#333" stroke-width="2" fill="#fff"/><path d="M804.85 272.75l40.8-34h299.2l-34 34z" stroke="#333" stroke-width="2" fill="#e6e6e6"/><path d="M1110.85 272.75l34-34V799.2l-34 40.8z" stroke="#333" stroke-width="2" fill="#ccc"/><use xlink:href="#b" transform="matrix(1,0,0,1,812.849486419925,280.75329195223946) translate(82.53886959876543 16.493055555555557)"/><use xlink:href="#c" transform="matrix(1,0,0,1,812.849486419925,280.75329195223946) translate(87.4771412037037 16.493055555555557)"/><use xlink:href="#d" transform="matrix(1,0,0,1,812.849486419925,280.75329195223946) translate(47.15538194444443 40.09722222222223)"/><use xlink:href="#e" transform="matrix(1,0,0,1,812.849486419925,280.75329195223946) translate(140.77517361111114 40.09722222222223)"/><path d="M804.85 361.53l34.56-28.8h253.46v432.7l-28.8 34.57h-259.2z" stroke="#333" stroke-width="2" fill="#fff"/><path d="M804.85 361.53l34.56-28.8h253.46l-28.8 28.8z" stroke="#333" stroke-width="2" fill="#e6e6e6"/><path d="M1064.06 361.53l28.8-28.8v432.7l-28.8 34.57z" stroke="#333" stroke-width="2" fill="#ccc"/><use xlink:href="#b" transform="matrix(1,0,0,1,812.8494864199251,369.52670944442536) translate(0.9092399691357969 16.493055555555557)"/><use xlink:href="#f" transform="matrix(1,0,0,1,812.8494864199251,369.52670944442536) translate(5.847511574074069 16.493055555555557)"/><use xlink:href="#g" transform="matrix(1,0,0,1,812.8494864199251,369.52670944442536) translate(95.12779706790124 16.493055555555557)"/><use xlink:href="#h" transform="matrix(1,0,0,1,812.8494864199251,369.52670944442536) translate(37.97916666666666 40.09722222222223)"/><use xlink:href="#i" transform="matrix(1,0,0,1,812.8494864199251,369.52670944442536) translate(102.13715277777777 40.09722222222223)"/><path d="M296.48 707.3l.14 1.8.42 1.77.7 1.67.94 1.54 1.17 1.38 1.38 1.17 1.54.95 1.67.7 1.76.4 1.82.16h70.1v.94h-70.14l-1.93-.15-1.9-.45-1.8-.75-1.68-1.03-1.5-1.27-1.26-1.5-1.02-1.66-.75-1.8-.45-1.9-.16-1.94V621.5h.96zm263.02 11.54v.94H457.9v-.94z" stroke="#333" stroke-width=".05" fill="#333"/><path d="M296.48 621.5h-.96v-.5h.96z" fill="#333"/><path stroke="#333" stroke-width=".05" fill="#333"/><path d="M560 719.8h-.5v-.96h.5z" fill="#333"/><path stroke="#333" stroke-width=".05" fill="#333"/><use xlink:href="#j" transform="matrix(1,0,0,1,378.1067708333333,697.0910623821128) translate(0.005000000000002558 16.493055555555557)"/><use xlink:href="#k" transform="matrix(1,0,0,1,378.1067708333333,697.0910623821128) translate(12.129131944444449 40.09722222222223)"/><path d="M1175.8 555.68l1.9.45 1.8.75 1.68 1.03 1.5 1.28 1.26 1.5 1.03 1.66.74 1.8.47 1.9.15 1.94v120l.15 1.82.42 1.76.68 1.67.95 1.54 1.17 1.38 1.38 1.17 1.54.95 1.67.7 1.75.4 1.82.15h72.24v.96h-72.27l-1.93-.16-1.9-.45-1.82-.75-1.66-1.03-1.5-1.28-1.26-1.5-1.03-1.66-.75-1.8-.45-1.9-.16-1.94v-120l-.14-1.82-.42-1.76-.68-1.67-.95-1.54-1.17-1.38-1.38-1.17-1.54-.95-1.67-.7-1.75-.4-1.82-.15h-27.48v-.96h27.52zm258.38 132.34l-.15 1.93-.46 1.9-.75 1.8-1.02 1.68-1.27 1.5-1.5 1.26-1.66 1.02-1.8.75-1.9.45-1.95.15h-71.83v-.95h71.8l1.8-.14 1.77-.42 1.67-.7 1.54-.94 1.37-1.17 1.18-1.38.94-1.54.7-1.67.42-1.76.13-1.82V621.5h.95z" stroke="#333" stroke-width=".05" fill="#333"/><path d="M1146.36 556.48h-.5v-.96h.5z" fill="#333"/><path stroke="#333" stroke-width=".05" fill="#333"/><path d="M1434.18 621.5h-.95v-.5h.95z" fill="#333"/><path stroke="#333" stroke-width=".05" fill="#333"/><use xlink:href="#j" transform="matrix(1,0,0,1,1270.1067708333333,677.78125) translate(0.005000000000002558 16.493055555555557)"/><use xlink:href="#l" transform="matrix(1,0,0,1,1270.1067708333333,677.78125) translate(11.634340277777785 40.09722222222223)"/><path d="M844.85 435.74h160v120h-160z" stroke="#333" stroke-width="2" fill="#fff"/><path d="M824.85 455.74h40v20h-40zM824.85 515.74h40v20h-40z" stroke="#333" stroke-width="2" fill="#fff"/><use xlink:href="#m" transform="matrix(1,0,0,1,860.849486419925,447.73932663215726) translate(10.736400462962955 21.94097222222222)"/><use xlink:href="#n" transform="matrix(1,0,0,1,860.849486419925,447.73932663215726) translate(27.25347222222222 45.545138888888886)"/><use xlink:href="#o" transform="matrix(1,0,0,1,860.849486419925,447.73932663215726) translate(10.660590277777779 66.37847222222223)"/><use xlink:href="#p" transform="matrix(1,0,0,1,860.849486419925,447.73932663215726) translate(33.533854166666664 87.21180555555556)"/><path d="M1289.7 386l31.2-26h308.8v228.8l-26 31.2h-314z" stroke="#333" stroke-width="2" fill="#fff"/><path d="M1289.7 386l31.2-26h308.8l-26 26z" stroke="#333" stroke-width="2" fill="#e6e6e6"/><path d="M1603.7 386l26-26v228.8l-26 31.2z" stroke="#333" stroke-width="2" fill="#ccc"/><use xlink:href="#b" transform="matrix(1,0,0,1,1297.6989378067906,393.99999999999994) translate(82.53886959876543 16.493055555555557)"/><use xlink:href="#c" transform="matrix(1,0,0,1,1297.6989378067906,393.99999999999994) translate(87.4771412037037 16.493055555555557)"/><use xlink:href="#q" transform="matrix(1,0,0,1,1297.6989378067906,393.99999999999994) translate(54.24739583333333 40.09722222222223)"/><use xlink:href="#e" transform="matrix(1,0,0,1,1297.6989378067906,393.99999999999994) translate(133.68315972222223 40.09722222222223)"/><path d="M1289.7 470.57l19.92-16.6h268.1v146.1L1561.1 620H1289.7z" stroke="#333" stroke-width="2" fill="#fff"/><path d="M1289.7 470.57l19.92-16.6h268.1l-16.6 16.6z" stroke="#333" stroke-width="2" fill="#e6e6e6"/><path d="M1561.1 470.57l16.6-16.6v146.1L1561.1 620z" stroke="#333" stroke-width="2" fill="#ccc"/><use xlink:href="#b" transform="matrix(1,0,0,1,1297.6989378067906,478.5748624238519) translate(0.9092399691357969 16.493055555555557)"/><use xlink:href="#f" transform="matrix(1,0,0,1,1297.6989378067906,478.5748624238519) translate(5.847511574074069 16.493055555555557)"/><use xlink:href="#g" transform="matrix(1,0,0,1,1297.6989378067906,478.5748624238519) translate(95.12779706790124 16.493055555555557)"/><use xlink:href="#r" transform="matrix(1,0,0,1,1297.6989378067906,478.5748624238519) translate(72.86631944444444 40.09722222222223)"/><path d="M1329.34 540h160v63.53h-160z" stroke="#333" stroke-width="2" fill="#fff"/><path d="M1309.34 545.88h40v20h-40zM1309.34 577.65h40v20h-40z" stroke="#333" stroke-width="2" fill="#fff"/><use xlink:href="#m" transform="matrix(1,0,0,1,1345.3436762320107,546.3534514544643) translate(10.736400462962955 19.774305555555554)"/><use xlink:href="#s" transform="matrix(1,0,0,1,1345.3436762320107,546.3534514544643) translate(15.890625 43.37847222222222)"/><path d="M129.34 386l31.2-26H500v228.8L474 620H129.34z" stroke="#333" stroke-width="2" fill="#fff"/><path d="M129.34 386l31.2-26H500l-26 26z" stroke="#333" stroke-width="2" fill="#e6e6e6"/><path d="M474 386l26-26v228.8L474 620z" stroke="#333" stroke-width="2" fill="#ccc"/><use xlink:href="#b" transform="matrix(1,0,0,1,137.3436762320108,393.99999999999994) translate(93.53886959876543 16.493055555555557)"/><use xlink:href="#c" transform="matrix(1,0,0,1,137.3436762320108,393.99999999999994) translate(98.4771412037037 16.493055555555557)"/><use xlink:href="#t" transform="matrix(1,0,0,1,137.3436762320108,393.99999999999994) translate(87.46527777777777 40.09722222222223)"/><path d="M129.34 470.57l19.93-16.6H440v146.1L423.4 620H129.34z" stroke="#333" stroke-width="2" fill="#fff"/><path d="M129.34 470.57l19.93-16.6H440l-16.6 16.6z" stroke="#333" stroke-width="2" fill="#e6e6e6"/><path d="M423.4 470.57l16.6-16.6v146.1L423.4 620z" stroke="#333" stroke-width="2" fill="#ccc"/><use xlink:href="#b" transform="matrix(1,0,0,1,137.3436762320108,478.5748624238517) translate(8.909239969135797 16.493055555555557)"/><use xlink:href="#f" transform="matrix(1,0,0,1,137.3436762320108,478.5748624238517) translate(13.847511574074069 16.493055555555557)"/><use xlink:href="#g" transform="matrix(1,0,0,1,137.3436762320108,478.5748624238517) translate(103.12779706790124 16.493055555555557)"/><use xlink:href="#u" transform="matrix(1,0,0,1,137.3436762320108,478.5748624238517) translate(76.49565972222221 40.09722222222223)"/><path d="M169.34 540H400v63.53H169.34z" stroke="#333" stroke-width="2" fill="#fff"/><path d="M149.34 545.88h40v20h-40zM149.34 577.65h40v20h-40z" stroke="#333" stroke-width="2" fill="#fff"/><g><use xlink:href="#m" transform="matrix(1,0,0,1,199.47494098560864,546.3534514544643) translate(35.736400462962955 19.774305555555554)"/><use xlink:href="#v" transform="matrix(1,0,0,1,199.47494098560864,546.3534514544643) translate(1.8585069444444713 43.37847222222222)"/></g><path d="M732.4 712.93l-.08 1-.24.98-.38.95-.54.87-.66.77-.77.65-.87.53-.93.4-1 .23-1 .1H660.5v-.97h65.4l.9-.06.83-.2.8-.34.74-.45.66-.56.56-.66.45-.74.33-.8.2-.85.07-.88v-36.27h.95zm70.95-122.54h-65.4l-.9.06-.83.2-.8.34-.74.45-.66.56-.56.67-.46.74-.33.8-.2.85-.07.9v36.25h-.95v-36.3l.08-1 .24-.98.38-.94.53-.87.67-.76.77-.66.86-.53.94-.4 1-.23 1-.08h65.43z" stroke="#3a414a" stroke-width=".05" fill="#3a414a"/><path d="M660.5 719.4h-.5v-.97h.5z" fill="#3a414a"/><path stroke="#3a414a" stroke-width=".05" fill="#3a414a"/><path d="M803.85 590.4h-.5v-.96h.5z" fill="#3a414a"/><path stroke="#3a414a" stroke-width=".05" fill="#3a414a"/><g><use xlink:href="#j" transform="matrix(1,0,0,1,692.0314965267661,632.1947092600511) translate(0.005000000000002558 16.493055555555557)"/><use xlink:href="#k" transform="matrix(1,0,0,1,692.0314965267661,632.1947092600511) translate(12.129131944444449 40.09722222222223)"/></g><path d="M844.85 567.25h160v61.24h-160z" stroke="#333" stroke-width="2" fill="#fff"/><path d="M824.85 572.56h40v20h-40zM824.85 603.18h40v20h-40z" stroke="#333" stroke-width="2" fill="#fff"/><g><use xlink:href="#w" transform="matrix(1,0,0,1,860.849486419925,573.3709800969747) translate(10.736400462962955 18.774305555555554)"/><use xlink:href="#x" transform="matrix(1,0,0,1,860.849486419925,573.3709800969747) translate(37.3359375 42.37847222222222)"/></g><path d="M844.85 640h160v61.25h-160z" stroke="#333" stroke-width="2" fill="#fff"/><path d="M824.85 645.3h40v20h-40zM824.85 675.93h40v20h-40z" stroke="#333" stroke-width="2" fill="#fff"/><g><use xlink:href="#w" transform="matrix(1,0,0,1,860.849486419925,646.124670804776) translate(10.736400462962955 18.774305555555554)"/><use xlink:href="#y" transform="matrix(1,0,0,1,860.849486419925,646.124670804776) translate(27.3359375 42.37847222222222)"/></g><path d="M844.85 712.75h160V774h-160z" stroke="#333" stroke-width="2" fill="#fff"/><path d="M824.85 718.07h40v20h-40zM824.85 748.7h40v20h-40z" stroke="#333" stroke-width="2" fill="#fff"/><g><use xlink:href="#w" transform="matrix(1,0,0,1,860.849486419925,718.8783615125773) translate(10.736400462962955 18.774305555555554)"/><use xlink:href="#z" transform="matrix(1,0,0,1,860.849486419925,718.8783615125773) translate(27.157986111111107 42.37847222222222)"/></g><defs><path d="M972-643H361V0H169v-1456h902v158H361v498h611v157" id="A"/><path d="M341 0H156v-1082h185V0zm-91-1264c-68 0-108-42-109-105 0-62 41-107 109-107s110 44 110 107-42 105-110 105" id="B"/><path d="M663-916c-163-27-288 18-338 148V0H140v-1082h180l3 125c61-97 147-145 258-145 36 0 63 5 82 14v172" id="C"/><path d="M599-131c141 0 220-65 285-146l113 88C906-50 770 20 589 20 281 21 93-214 93-545c0-223 93-397 233-485 74-48 154-72 240-72 300 2 449 218 445 537v77H278c0 197 129 357 321 357zm227-509c-3-180-88-310-260-310-170 0-264 140-282 310h542" id="D"/><path d="M1098-255l208-827h185L1176 0h-150L763-820 507 0H357L43-1082h184l213 810 252-810h149" id="E"/><path d="M561-1102c238-4 403 126 403 351v498c0 99 13 178 38 237V0H808c-11-21-19-59-26-114C696-25 593 20 474 20c-199 0-368-130-365-320 4-251 214-359 490-356h180v-85c-1-135-86-212-229-212-115 0-232 67-233 171H131c20-205 206-316 430-320zM294-326c0 117 90 185 207 185 122 0 239-75 278-162v-222H634c-227 0-340 66-340 199" id="F"/><path d="M341 0H156v-1536h185V0" id="G"/><g id="a"><use transform="matrix(0.0087890625,0,0,0.0087890625,0,0)" xlink:href="#A"/><use transform="matrix(0.0087890625,0,0,0.0087890625,9.94921875,0)" xlink:href="#B"/><use transform="matrix(0.0087890625,0,0,0.0087890625,14.3173828125,0)" xlink:href="#C"/><use transform="matrix(0.0087890625,0,0,0.0087890625,20.2412109375,0)" xlink:href="#D"/><use transform="matrix(0.0087890625,0,0,0.0087890625,29.77734375,0)" xlink:href="#E"/><use transform="matrix(0.0087890625,0,0,0.0087890625,43.3037109375,0)" xlink:href="#F"/><use transform="matrix(0.0087890625,0,0,0.0087890625,53.0947265625,0)" xlink:href="#G"/><use transform="matrix(0.0087890625,0,0,0.0087890625,57.462890625,0)" xlink:href="#G"/></g><path fill="#333" d="M280-548l258 397H397L102-539v-19l295-389h141zm330 0l258 397H727L432-539v-19l295-389h141" id="H"/><path fill="#333" d="M85-194c31 0 48 13 60 33l-1-100h32l1 261h-30c-2-10 0-23-3-31C134-8 116 4 85 4 32 4 16-35 15-94c0-66 23-100 70-100zm9 24c-40 0-46 34-46 75 0 40 6 74 45 74 42 0 51-32 51-76 0-42-9-74-50-73" id="I"/><path fill="#333" d="M100-194c63 0 86 42 84 106H49c0 40 14 67 53 68 26 1 43-12 49-29l28 8c-11 28-37 45-77 45C44 4 14-33 15-96c1-61 26-98 85-98zm52 81c6-60-76-77-97-28-3 7-6 17-6 28h103" id="J"/><path fill="#333" d="M108 0H70L1-190h34L89-25l56-165h34" id="K"/><path fill="#333" d="M24-231v-30h32v30H24zM24 0v-190h32V0H24" id="L"/><path fill="#333" d="M96-169c-40 0-48 33-48 73s9 75 48 75c24 0 41-14 43-38l32 2c-6 37-31 61-74 61-59 0-76-41-82-99-10-93 101-131 147-64 4 7 5 14 7 22l-32 3c-4-21-16-35-41-35" id="M"/><path fill="#333" d="M244-949l295 389v19L244-152H102l258-398-258-399h142zm349 0l295 389v19L593-152H451l258-398-258-399h142" id="N"/><g id="c"><use transform="matrix(0.008680555555555556,0,0,0.008680555555555556,0,0)" xlink:href="#H"/><use transform="matrix(0.04938271604938272,0,0,0.04938271604938272,8.34201388888889,0)" xlink:href="#I"/><use transform="matrix(0.04938271604938272,0,0,0.04938271604938272,18.218557098765434,0)" xlink:href="#J"/><use transform="matrix(0.04938271604938272,0,0,0.04938271604938272,28.095100308641978,0)" xlink:href="#K"/><use transform="matrix(0.04938271604938272,0,0,0.04938271604938272,36.98398919753087,0)" xlink:href="#L"/><use transform="matrix(0.04938271604938272,0,0,0.04938271604938272,40.8852237654321,0)" xlink:href="#M"/><use transform="matrix(0.04938271604938272,0,0,0.04938271604938272,49.77411265432099,0)" xlink:href="#J"/><use transform="matrix(0.008680555555555556,0,0,0.008680555555555556,59.65065586419753,0)" xlink:href="#N"/></g><path fill="#333" d="M973-380H363L226 0H28l556-1456h168L1309 0h-197zM421-538h495l-248-681" id="O"/><path fill="#333" d="M632-1102c291 0 422 251 422 573 0 297-141 548-419 549-131 0-235-42-310-125v521H140v-1498h169l9 120c75-93 180-140 314-140zm-53 971c207 0 290-180 290-419 0-218-92-395-292-395-112 0-196 50-252 149v517c55 99 140 148 254 148" id="P"/><path fill="#333" d="M341 0H156v-1536h185V0" id="Q"/><path fill="#333" d="M341 0H156v-1082h185V0zm-91-1264c-68 0-108-42-109-105 0-62 41-107 109-107s110 44 110 107-42 105-110 105" id="R"/><path fill="#333" d="M277-555c0 244 77 420 297 424 127 2 249-93 255-210h175C980-127 805 20 574 20 258 20 81-222 92-562c11-319 164-533 481-540 237-5 426 165 431 392H829c-7-133-115-242-256-240-209 4-296 166-296 395" id="S"/><path fill="#333" d="M561-1102c238-4 403 126 403 351v498c0 99 13 178 38 237V0H808c-11-21-19-59-26-114C696-25 593 20 474 20c-199 0-368-130-365-320 4-251 214-359 490-356h180v-85c-1-135-86-212-229-212-115 0-232 67-233 171H131c20-205 206-316 430-320zM294-326c0 117 90 185 207 185 122 0 239-75 278-162v-222H634c-227 0-340 66-340 199" id="T"/><path fill="#333" d="M456 20C285 20 205-92 206-268v-671H9v-143h197v-262h185v262h202v143H391v671c-9 125 92 149 207 118V0c-49 13-96 20-142 20" id="U"/><path fill="#333" d="M584 20C278 26 81-227 91-551c10-320 175-545 491-551 308-5 503 247 494 573-9 322-175 543-492 549zm-2-970c-208 0-305 185-305 421 0 216 106 398 307 398 211 0 307-186 307-420 0-214-109-399-309-399" id="V"/><path fill="#333" d="M589-945c-131 0-219 81-264 174V0H140v-1082h175l6 136c83-104 191-156 324-156 229 0 346 129 346 387V0H806v-716c-2-153-65-229-217-229" id="W"/><g id="d"><use transform="matrix(0.008680555555555556,0,0,0.008680555555555556,0,0)" xlink:href="#O"/><use transform="matrix(0.008680555555555556,0,0,0.008680555555555556,11.597222222222223,0)" xlink:href="#P"/><use transform="matrix(0.008680555555555556,0,0,0.008680555555555556,21.571180555555557,0)" xlink:href="#P"/><use transform="matrix(0.008680555555555556,0,0,0.008680555555555556,31.545138888888893,0)" xlink:href="#Q"/><use transform="matrix(0.008680555555555556,0,0,0.008680555555555556,35.85937500000001,0)" xlink:href="#R"/><use transform="matrix(0.008680555555555556,0,0,0.008680555555555556,40.17361111111112,0)" xlink:href="#S"/><use transform="matrix(0.008680555555555556,0,0,0.008680555555555556,49.47916666666668,0)" xlink:href="#T"/><use transform="matrix(0.008680555555555556,0,0,0.008680555555555556,59.14930555555557,0)" xlink:href="#U"/><use transform="matrix(0.008680555555555556,0,0,0.008680555555555556,64.95659722222224,0)" xlink:href="#R"/><use transform="matrix(0.008680555555555556,0,0,0.008680555555555556,69.27083333333336,0)" xlink:href="#V"/><use transform="matrix(0.008680555555555556,0,0,0.008680555555555556,79.40972222222224,0)" xlink:href="#W"/></g><path fill="#333" d="M631-137c179 0 314-70 314-231 0-71-25-127-75-166s-141-77-272-115c-165-47-285-106-360-175s-112-154-112-255c0-245 231-397 495-397 206 0 369 89 449 218 43 68 65 142 65 223H942c0-184-129-283-321-283-172 0-299 76-301 236 0 59 26 109 76 150s135 78 256 113c205 59 345 116 436 256 35 53 50 119 50 193-2 256-231 398-507 390C333 12 90-129 80-422h193c0 187 160 285 358 285" id="X"/><path fill="#333" d="M599-131c141 0 220-65 285-146l113 88C906-50 770 20 589 20 281 21 93-214 93-545c0-223 93-397 233-485 74-48 154-72 240-72 300 2 449 218 445 537v77H278c0 197 129 357 321 357zm227-509c-3-180-88-310-260-310-170 0-264 140-282 310h542" id="Y"/><path fill="#333" d="M663-916c-163-27-288 18-338 148V0H140v-1082h180l3 125c61-97 147-145 258-145 36 0 63 5 82 14v172" id="Z"/><path fill="#333" d="M497-251l268-831h189L566 0H425L33-1082h189" id="aa"/><g id="e"><use transform="matrix(0.008680555555555556,0,0,0.008680555555555556,0,0)" xlink:href="#X"/><use transform="matrix(0.008680555555555556,0,0,0.008680555555555556,10.546875,0)" xlink:href="#Y"/><use transform="matrix(0.008680555555555556,0,0,0.008680555555555556,19.96527777777778,0)" xlink:href="#Z"/><use transform="matrix(0.008680555555555556,0,0,0.008680555555555556,26.13715277777778,0)" xlink:href="#aa"/><use transform="matrix(0.008680555555555556,0,0,0.008680555555555556,34.63541666666667,0)" xlink:href="#Y"/><use transform="matrix(0.008680555555555556,0,0,0.008680555555555556,44.05381944444444,0)" xlink:href="#Z"/></g><path fill="#333" d="M141 0L90-78 38 0H4l68-98-65-92h35l48 74 47-74h35l-64 92 68 98h-35" id="ab"/><path fill="#333" d="M84 4C-5 8 30-112 23-190h32v120c0 31 7 50 39 49 72-2 45-101 50-169h31l1 190h-30c-1-10 1-25-2-33-11 22-28 36-60 37" id="ac"/><path fill="#333" d="M59-47c-2 24 18 29 38 22v24C64 9 27 4 27-40v-127H5v-23h24l9-43h21v43h35v23H59v120" id="ad"/><path fill="#333" d="M100-194c62-1 85 37 85 99 1 63-27 99-86 99S16-35 15-95c0-66 28-99 85-99zM99-20c44 1 53-31 53-75 0-43-8-75-51-75s-53 32-53 75 10 74 51 75" id="ae"/><path fill="#333" d="M117-194c89-4 53 116 60 194h-32v-121c0-31-8-49-39-48C34-167 62-67 57 0H25l-1-190h30c1 10-1 24 2 32 11-22 29-35 61-36" id="af"/><g id="f"><use transform="matrix(0.008680555555555556,0,0,0.008680555555555556,0,0)" xlink:href="#H"/><use transform="matrix(0.04938271604938272,0,0,0.04938271604938272,8.34201388888889,0)" xlink:href="#J"/><use transform="matrix(0.04938271604938272,0,0,0.04938271604938272,18.218557098765434,0)" xlink:href="#ab"/><use transform="matrix(0.04938271604938272,0,0,0.04938271604938272,27.107445987654323,0)" xlink:href="#J"/><use transform="matrix(0.04938271604938272,0,0,0.04938271604938272,36.98398919753087,0)" xlink:href="#M"/><use transform="matrix(0.04938271604938272,0,0,0.04938271604938272,45.87287808641976,0)" xlink:href="#ac"/><use transform="matrix(0.04938271604938272,0,0,0.04938271604938272,55.7494212962963,0)" xlink:href="#ad"/><use transform="matrix(0.04938271604938272,0,0,0.04938271604938272,60.68769290123457,0)" xlink:href="#L"/><use transform="matrix(0.04938271604938272,0,0,0.04938271604938272,64.58892746913581,0)" xlink:href="#ae"/><use transform="matrix(0.04938271604938272,0,0,0.04938271604938272,74.46547067901236,0)" xlink:href="#af"/></g><path fill="#333" d="M114-163C36-179 61-72 57 0H25l-1-190h30c1 12-1 29 2 39 6-27 23-49 58-41v29" id="ag"/><path fill="#333" d="M210-169c-67 3-38 105-44 169h-31v-121c0-29-5-50-35-48C34-165 62-65 56 0H25l-1-190h30c1 10-1 24 2 32 10-44 99-50 107 0 11-21 27-35 58-36 85-2 47 119 55 194h-31v-121c0-29-5-49-35-48" id="ah"/><g id="g"><use transform="matrix(0.04938271604938272,0,0,0.04938271604938272,0,0)" xlink:href="#J"/><use transform="matrix(0.04938271604938272,0,0,0.04938271604938272,9.876543209876544,0)" xlink:href="#af"/><use transform="matrix(0.04938271604938272,0,0,0.04938271604938272,19.75308641975309,0)" xlink:href="#K"/><use transform="matrix(0.04938271604938272,0,0,0.04938271604938272,28.641975308641978,0)" xlink:href="#L"/><use transform="matrix(0.04938271604938272,0,0,0.04938271604938272,32.543209876543216,0)" xlink:href="#ag"/><use transform="matrix(0.04938271604938272,0,0,0.04938271604938272,38.41975308641976,0)" xlink:href="#ae"/><use transform="matrix(0.04938271604938272,0,0,0.04938271604938272,48.296296296296305,0)" xlink:href="#af"/><use transform="matrix(0.04938271604938272,0,0,0.04938271604938272,58.17283950617284,0)" xlink:href="#ah"/><use transform="matrix(0.04938271604938272,0,0,0.04938271604938272,72.93827160493828,0)" xlink:href="#J"/><use transform="matrix(0.04938271604938272,0,0,0.04938271604938272,82.81481481481482,0)" xlink:href="#af"/><use transform="matrix(0.04938271604938272,0,0,0.04938271604938272,92.69135802469137,0)" xlink:href="#ad"/><use transform="matrix(0.008680555555555556,0,0,0.008680555555555556,97.62962962962965,0)" xlink:href="#N"/></g><path fill="#333" d="M589-945c-131 0-219 81-264 174V0H140v-1536h185v585c82-101 189-151 320-151 229 0 346 129 346 387V0H806v-716c-2-153-65-229-217-229" id="ai"/><g id="h"><use transform="matrix(0.008680555555555556,0,0,0.008680555555555556,0,0)" xlink:href="#O"/><use transform="matrix(0.008680555555555556,0,0,0.008680555555555556,11.597222222222223,0)" xlink:href="#P"/><use transform="matrix(0.008680555555555556,0,0,0.008680555555555556,21.571180555555557,0)" xlink:href="#T"/><use transform="matrix(0.008680555555555556,0,0,0.008680555555555556,31.241319444444446,0)" xlink:href="#S"/><use transform="matrix(0.008680555555555556,0,0,0.008680555555555556,40.546875,0)" xlink:href="#ai"/><use transform="matrix(0.008680555555555556,0,0,0.008680555555555556,50.33854166666667,0)" xlink:href="#Y"/></g><path fill="#333" d="M1288 0h-193v-673H361V0H169v-1456h192v626h734v-626h193V0" id="aj"/><path fill="#333" d="M538-131c121 0 232-49 232-156 0-50-20-88-56-117-73-60-334-92-420-143-92-55-162-110-162-238 0-190 192-317 400-317 223 0 414 129 413 338H759c0-108-110-186-227-186-119 0-215 53-215 159 0 45 18 78 53 101 76 52 331 90 416 139 98 57 169 115 169 251C955-92 760 20 538 20c-176 0-314-68-386-174-38-55-57-115-57-179h185c6 129 116 202 258 202" id="ak"/><path fill="#333" d="M521 20C240 20 96-239 96-550c0-303 147-552 427-552 132 0 235 47 309 140l9-120h169V-26c4 277-183 454-459 452-165-1-334-81-400-187l96-111c79 98 176 147 291 147 180 1 288-109 286-290v-93C750-23 649 20 521 20zm48-965c-209 0-287 178-287 416 0 217 86 392 285 392 117 0 202-53 257-159v-494c-57-103-142-155-255-155" id="al"/><g id="i"><use transform="matrix(0.008680555555555556,0,0,0.008680555555555556,0,0)" xlink:href="#aj"/><use transform="matrix(0.008680555555555556,0,0,0.008680555555555556,12.673611111111112,0)" xlink:href="#V"/><use transform="matrix(0.008680555555555556,0,0,0.008680555555555556,22.8125,0)" xlink:href="#ak"/><use transform="matrix(0.008680555555555556,0,0,0.008680555555555556,31.979166666666668,0)" xlink:href="#U"/><use transform="matrix(0.008680555555555556,0,0,0.008680555555555556,37.786458333333336,0)" xlink:href="#R"/><use transform="matrix(0.008680555555555556,0,0,0.008680555555555556,42.10069444444444,0)" xlink:href="#W"/><use transform="matrix(0.008680555555555556,0,0,0.008680555555555556,51.909722222222236,0)" xlink:href="#al"/></g><path fill="#333" d="M115-194c55 1 70 41 70 98S169 2 115 4C84 4 66-9 55-30l1 105H24l-1-265h31l2 30c10-21 28-34 59-34zm-8 174c40 0 45-34 45-75s-6-73-45-74c-42 0-51 32-51 76 0 43 10 73 51 73" id="am"/><path fill="#333" d="M24 0v-261h32V0H24" id="an"/><g id="j"><use transform="matrix(0.008680555555555556,0,0,0.008680555555555556,0,0)" xlink:href="#H"/><use transform="matrix(0.04938271604938272,0,0,0.04938271604938272,8.34201388888889,0)" xlink:href="#am"/><use transform="matrix(0.04938271604938272,0,0,0.04938271604938272,18.218557098765434,0)" xlink:href="#ag"/><use transform="matrix(0.04938271604938272,0,0,0.04938271604938272,24.095100308641978,0)" xlink:href="#ae"/><use transform="matrix(0.04938271604938272,0,0,0.04938271604938272,33.97164351851852,0)" xlink:href="#ad"/><use transform="matrix(0.04938271604938272,0,0,0.04938271604938272,38.90991512345679,0)" xlink:href="#ae"/><use transform="matrix(0.04938271604938272,0,0,0.04938271604938272,48.786458333333336,0)" xlink:href="#M"/><use transform="matrix(0.04938271604938272,0,0,0.04938271604938272,57.67534722222223,0)" xlink:href="#ae"/><use transform="matrix(0.04938271604938272,0,0,0.04938271604938272,67.55189043209877,0)" xlink:href="#an"/><use transform="matrix(0.008680555555555556,0,0,0.008680555555555556,71.45312500000001,0)" xlink:href="#N"/></g><path fill="#333" d="M1175-1298H707V0H516v-1298H49v-158h1126v158" id="ao"/><path fill="#333" d="M1216-1011c-1 297-202 441-512 441H361V0H169v-1456h537c297-6 510 164 510 445zm-192 2c1-178-126-288-307-289H361v571h345c196 1 318-92 318-282" id="ap"/><g id="k"><use transform="matrix(0.008680555555555556,0,0,0.008680555555555556,0,0)" xlink:href="#aj"/><use transform="matrix(0.008680555555555556,0,0,0.008680555555555556,12.421875000000002,0)" xlink:href="#ao"/><use transform="matrix(0.008680555555555556,0,0,0.008680555555555556,23.16840277777778,0)" xlink:href="#ao"/><use transform="matrix(0.008680555555555556,0,0,0.008680555555555556,33.77604166666667,0)" xlink:href="#ap"/><use transform="matrix(0.008680555555555556,0,0,0.008680555555555556,44.99131944444445,0)" xlink:href="#X"/></g><path fill="#333" d="M688-137c238 0 323-102 359-325h193c-32 297-228 482-552 482-361 0-569-299-569-680 0-197 8-360 73-497 88-186 257-317 513-319 316-2 509 195 535 488h-193c-31-212-118-330-342-330-272 0-397 224-393 523v141c-3 282 115 517 376 517" id="aq"/><path fill="#333" d="M177 125H18l608-1581h158" id="ar"/><path fill="#333" d="M375 0H183v-1456h192V0" id="as"/><g id="l"><use transform="matrix(0.008680555555555556,0,0,0.008680555555555556,0,0)" xlink:href="#ao"/><use transform="matrix(0.008680555555555556,0,0,0.008680555555555556,10.364583333333334,0)" xlink:href="#aq"/><use transform="matrix(0.008680555555555556,0,0,0.008680555555555556,21.93576388888889,0)" xlink:href="#ap"/><use transform="matrix(0.008680555555555556,0,0,0.008680555555555556,33.15104166666667,0)" xlink:href="#ar"/><use transform="matrix(0.008680555555555556,0,0,0.008680555555555556,40.47743055555556,0)" xlink:href="#as"/><use transform="matrix(0.008680555555555556,0,0,0.008680555555555556,45.3125,0)" xlink:href="#ap"/></g><g id="m"><use transform="matrix(0.008680555555555556,0,0,0.008680555555555556,0,0)" xlink:href="#H"/><use transform="matrix(0.04938271604938272,0,0,0.04938271604938272,8.34201388888889,0)" xlink:href="#M"/><use transform="matrix(0.04938271604938272,0,0,0.04938271604938272,17.23090277777778,0)" xlink:href="#ae"/><use transform="matrix(0.04938271604938272,0,0,0.04938271604938272,27.107445987654323,0)" xlink:href="#ah"/><use transform="matrix(0.04938271604938272,0,0,0.04938271604938272,41.87287808641976,0)" xlink:href="#am"/><use transform="matrix(0.04938271604938272,0,0,0.04938271604938272,51.7494212962963,0)" xlink:href="#ae"/><use transform="matrix(0.04938271604938272,0,0,0.04938271604938272,61.62596450617284,0)" xlink:href="#af"/><use transform="matrix(0.04938271604938272,0,0,0.04938271604938272,71.5025077160494,0)" xlink:href="#J"/><use transform="matrix(0.04938271604938272,0,0,0.04938271604938272,81.37905092592594,0)" xlink:href="#af"/><use transform="matrix(0.04938271604938272,0,0,0.04938271604938272,91.25559413580248,0)" xlink:href="#ad"/><use transform="matrix(0.008680555555555556,0,0,0.008680555555555556,96.19386574074076,0)" xlink:href="#N"/></g><g id="n"><use transform="matrix(0.008680555555555556,0,0,0.008680555555555556,0,0)" xlink:href="#ap"/><use transform="matrix(0.008680555555555556,0,0,0.008680555555555556,11.119791666666668,0)" xlink:href="#T"/><use transform="matrix(0.008680555555555556,0,0,0.008680555555555556,20.789930555555557,0)" xlink:href="#ak"/><use transform="matrix(0.008680555555555556,0,0,0.008680555555555556,29.956597222222225,0)" xlink:href="#ak"/><use transform="matrix(0.008680555555555556,0,0,0.008680555555555556,39.12326388888889,0)" xlink:href="#P"/><use transform="matrix(0.008680555555555556,0,0,0.008680555555555556,49.097222222222236,0)" xlink:href="#V"/><use transform="matrix(0.008680555555555556,0,0,0.008680555555555556,59.236111111111114,0)" xlink:href="#Z"/><use transform="matrix(0.008680555555555556,0,0,0.008680555555555556,65.68576388888889,0)" xlink:href="#U"/></g><path fill="#333" d="M417-1456L893-268l476-1188h249V0h-192c-4-403 4-794 18-1179L966 0H819L342-1176c15 384 23 773 19 1176H169v-1456h248" id="at"/><path fill="#333" d="M1240-945c-141 0-250 95-250 227V0H804v-709c0-157-77-236-231-236-121 0-204 52-249 155V0H139v-1082h175l5 120c79-93 186-140 321-140 151 0 254 58 309 174 69-98 181-174 345-174 237 0 362 126 362 377V0h-185v-714c-2-159-67-231-231-231" id="au"/><g id="o"><use transform="matrix(0.008680555555555556,0,0,0.008680555555555556,0,0)" xlink:href="#at"/><use transform="matrix(0.008680555555555556,0,0,0.008680555555555556,15.520833333333334,0)" xlink:href="#T"/><use transform="matrix(0.008680555555555556,0,0,0.008680555555555556,25.190972222222225,0)" xlink:href="#W"/><use transform="matrix(0.008680555555555556,0,0,0.008680555555555556,35,0)" xlink:href="#al"/><use transform="matrix(0.008680555555555556,0,0,0.008680555555555556,44.973958333333336,0)" xlink:href="#T"/><use transform="matrix(0.008680555555555556,0,0,0.008680555555555556,54.64409722222222,0)" xlink:href="#Y"/><use transform="matrix(0.008680555555555556,0,0,0.008680555555555556,64.0625,0)" xlink:href="#au"/><use transform="matrix(0.008680555555555556,0,0,0.008680555555555556,79.64409722222223,0)" xlink:href="#Y"/><use transform="matrix(0.008680555555555556,0,0,0.008680555555555556,89.0625,0)" xlink:href="#W"/><use transform="matrix(0.008680555555555556,0,0,0.008680555555555556,98.87152777777777,0)" xlink:href="#U"/></g><path fill="#333" d="M494-271l252-811h198L509 167C425 381 299 474 84 421V271c167 16 242-37 283-173l41-110L22-1082h202" id="av"/><g id="p"><use transform="matrix(0.008680555555555556,0,0,0.008680555555555556,0,0)" xlink:href="#X"/><use transform="matrix(0.008680555555555556,0,0,0.008680555555555556,10.546875,0)" xlink:href="#av"/><use transform="matrix(0.008680555555555556,0,0,0.008680555555555556,18.958333333333336,0)" xlink:href="#ak"/><use transform="matrix(0.008680555555555556,0,0,0.008680555555555556,28.125000000000004,0)" xlink:href="#U"/><use transform="matrix(0.008680555555555556,0,0,0.008680555555555556,33.93229166666667,0)" xlink:href="#Y"/><use transform="matrix(0.008680555555555556,0,0,0.008680555555555556,43.35069444444444,0)" xlink:href="#au"/></g><path fill="#333" d="M1222-777c17 480-206 763-650 777H169v-1456h411c408 9 627 269 642 679zm-190 4c3-312-149-522-447-525H361v1141h202c308 0 473-209 469-531v-85" id="aw"/><path fill="#333" d="M634-1102c292 0 422 254 422 573 0 298-143 547-420 549-137 0-242-48-317-145L310 0H140v-1536h185v573c75-93 178-139 309-139zm-44 965c207 0 281-175 281-413 0-224-79-395-283-395-122 0-210 57-263 170v468c57 113 145 170 265 170" id="ax"/><g id="q"><use transform="matrix(0.008680555555555556,0,0,0.008680555555555556,0,0)" xlink:href="#aw"/><use transform="matrix(0.008680555555555556,0,0,0.008680555555555556,11.657986111111112,0)" xlink:href="#T"/><use transform="matrix(0.008680555555555556,0,0,0.008680555555555556,21.328125,0)" xlink:href="#U"/><use transform="matrix(0.008680555555555556,0,0,0.008680555555555556,27.135416666666668,0)" xlink:href="#T"/><use transform="matrix(0.008680555555555556,0,0,0.008680555555555556,36.80555555555556,0)" xlink:href="#ax"/><use transform="matrix(0.008680555555555556,0,0,0.008680555555555556,46.77951388888889,0)" xlink:href="#T"/><use transform="matrix(0.008680555555555556,0,0,0.008680555555555556,56.449652777777786,0)" xlink:href="#ak"/><use transform="matrix(0.008680555555555556,0,0,0.008680555555555556,65.61631944444446,0)" xlink:href="#Y"/></g><path fill="#333" d="M1281-774c0 326-74 568-255 695l260 204-131 121L848 2C681 41 515 15 391-64 196-188 109-439 109-773c0-282 107-505 279-617 171-112 445-111 616-1 174 112 277 332 277 617zM696-143c312 0 393-279 393-632 0-307-114-536-395-536-268 0-393 232-393 523v107c-3 297 122 538 395 538" id="ay"/><path fill="#333" d="M362-157h690V0H169v-1456h193v1299" id="az"/><g id="r"><use transform="matrix(0.008680555555555556,0,0,0.008680555555555556,0,0)" xlink:href="#at"/><use transform="matrix(0.008680555555555556,0,0,0.008680555555555556,15.520833333333334,0)" xlink:href="#av"/><use transform="matrix(0.008680555555555556,0,0,0.008680555555555556,23.932291666666668,0)" xlink:href="#X"/><use transform="matrix(0.008680555555555556,0,0,0.008680555555555556,34.47916666666667,0)" xlink:href="#ay"/><use transform="matrix(0.008680555555555556,0,0,0.008680555555555556,46.70138888888889,0)" xlink:href="#az"/></g><path fill="#333" d="M1160-420C1159-145 963 0 674 0H169v-1456h476c294-1 476 112 476 388 0 153-99 253-216 302 146 38 255 167 255 346zM678-157c171 2 289-95 289-261 0-175-95-263-286-263H361v524h317zm250-912c-2-172-104-229-283-229H361v463h290c157 3 278-84 277-234" id="aA"/><g id="s"><use transform="matrix(0.008680555555555556,0,0,0.008680555555555556,0,0)" xlink:href="#ap"/><use transform="matrix(0.008680555555555556,0,0,0.008680555555555556,11.119791666666668,0)" xlink:href="#T"/><use transform="matrix(0.008680555555555556,0,0,0.008680555555555556,20.789930555555557,0)" xlink:href="#ak"/><use transform="matrix(0.008680555555555556,0,0,0.008680555555555556,29.956597222222225,0)" xlink:href="#ak"/><use transform="matrix(0.008680555555555556,0,0,0.008680555555555556,39.12326388888889,0)" xlink:href="#P"/><use transform="matrix(0.008680555555555556,0,0,0.008680555555555556,49.097222222222236,0)" xlink:href="#V"/><use transform="matrix(0.008680555555555556,0,0,0.008680555555555556,59.236111111111114,0)" xlink:href="#Z"/><use transform="matrix(0.008680555555555556,0,0,0.008680555555555556,65.68576388888889,0)" xlink:href="#U"/><use transform="matrix(0.008680555555555556,0,0,0.008680555555555556,71.49305555555556,0)" xlink:href="#aw"/><use transform="matrix(0.008680555555555556,0,0,0.008680555555555556,83.15104166666667,0)" xlink:href="#aA"/></g><g id="t"><use transform="matrix(0.008680555555555556,0,0,0.008680555555555556,0,0)" xlink:href="#ap"/><use transform="matrix(0.008680555555555556,0,0,0.008680555555555556,11.215277777777779,0)" xlink:href="#aq"/><use transform="matrix(0.008680555555555556,0,0,0.008680555555555556,22.786458333333336,0)" xlink:href="#ar"/><use transform="matrix(0.008680555555555556,0,0,0.008680555555555556,30.112847222222225,0)" xlink:href="#az"/><use transform="matrix(0.008680555555555556,0,0,0.008680555555555556,39.67881944444444,0)" xlink:href="#T"/><use transform="matrix(0.008680555555555556,0,0,0.008680555555555556,49.34895833333334,0)" xlink:href="#P"/><use transform="matrix(0.008680555555555556,0,0,0.008680555555555556,59.32291666666668,0)" xlink:href="#U"/><use transform="matrix(0.008680555555555556,0,0,0.008680555555555556,64.95659722222223,0)" xlink:href="#V"/><use transform="matrix(0.008680555555555556,0,0,0.008680555555555556,75.09548611111111,0)" xlink:href="#P"/></g><path fill="#333" d="M1098-255l208-827h185L1176 0h-150L763-820 507 0H357L43-1082h184l213 810 252-810h149" id="aB"/><g id="u"><use transform="matrix(0.008680555555555556,0,0,0.008680555555555556,0,0)" xlink:href="#aA"/><use transform="matrix(0.008680555555555556,0,0,0.008680555555555556,11.067708333333334,0)" xlink:href="#Z"/><use transform="matrix(0.008680555555555556,0,0,0.008680555555555556,16.90972222222222,0)" xlink:href="#V"/><use transform="matrix(0.008680555555555556,0,0,0.008680555555555556,27.04861111111111,0)" xlink:href="#aB"/><use transform="matrix(0.008680555555555556,0,0,0.008680555555555556,40.407986111111114,0)" xlink:href="#ak"/><use transform="matrix(0.008680555555555556,0,0,0.008680555555555556,49.574652777777786,0)" xlink:href="#Y"/><use transform="matrix(0.008680555555555556,0,0,0.008680555555555556,58.993055555555564,0)" xlink:href="#Z"/></g><path fill="#333" d="M704-1390c-164-38-297 28-288 194v114h231v143H416V0H231v-939H60v-143h171v-111c-12-274 208-416 483-347" id="aC"/><path fill="#333" d="M520 20C244 20 95-247 95-550c0-298 151-550 427-552 127 0 227 43 301 130v-564h185V0H838l-9-116C755-25 652 20 520 20zm48-965c-210 0-288 177-288 416 0 218 87 392 286 392 117 0 203-53 257-158v-497c-55-102-140-153-255-153" id="aD"/><path fill="#333" d="M258 11c-71 0-114-43-114-108 0-67 42-112 114-112s116 45 116 112c-1 65-45 108-116 108" id="aE"/><path fill="#333" d="M19 279c92 0 127-48 127-150v-1211h185V125c0 208-94 312-283 312-41 0-78-6-113-18V271c21 5 49 8 84 8zm216-1543c-68 0-107-42-108-105 0-61 42-107 108-107 68 0 110 44 110 107s-42 105-110 105" id="aF"/><g id="v"><use transform="matrix(0.008680555555555556,0,0,0.008680555555555556,0,0)" xlink:href="#aC"/><use transform="matrix(0.008680555555555556,0,0,0.008680555555555556,6.171875,0)" xlink:href="#T"/><use transform="matrix(0.008680555555555556,0,0,0.008680555555555556,15.84201388888889,0)" xlink:href="#Z"/><use transform="matrix(0.008680555555555556,0,0,0.008680555555555556,21.692708333333336,0)" xlink:href="#aD"/><use transform="matrix(0.008680555555555556,0,0,0.008680555555555556,31.718750000000007,0)" xlink:href="#R"/><use transform="matrix(0.008680555555555556,0,0,0.008680555555555556,36.032986111111114,0)" xlink:href="#W"/><use transform="matrix(0.008680555555555556,0,0,0.008680555555555556,45.84201388888889,0)" xlink:href="#aE"/><use transform="matrix(0.008680555555555556,0,0,0.008680555555555556,50.520833333333336,0)" xlink:href="#S"/><use transform="matrix(0.008680555555555556,0,0,0.008680555555555556,59.82638888888889,0)" xlink:href="#V"/><use transform="matrix(0.008680555555555556,0,0,0.008680555555555556,69.96527777777779,0)" xlink:href="#au"/><use transform="matrix(0.008680555555555556,0,0,0.008680555555555556,85.54687500000001,0)" xlink:href="#aE"/><use transform="matrix(0.008680555555555556,0,0,0.008680555555555556,90.22569444444447,0)" xlink:href="#ax"/><use transform="matrix(0.008680555555555556,0,0,0.008680555555555556,100.19965277777779,0)" xlink:href="#aD"/><use transform="matrix(0.008680555555555556,0,0,0.008680555555555556,110.22569444444444,0)" xlink:href="#ar"/><use transform="matrix(0.008680555555555556,0,0,0.008680555555555556,117.55208333333334,0)" xlink:href="#P"/><use transform="matrix(0.008680555555555556,0,0,0.008680555555555556,127.52604166666667,0)" xlink:href="#Z"/><use transform="matrix(0.008680555555555556,0,0,0.008680555555555556,133.36805555555554,0)" xlink:href="#V"/><use transform="matrix(0.008680555555555556,0,0,0.008680555555555556,143.50694444444443,0)" xlink:href="#aF"/><use transform="matrix(0.008680555555555556,0,0,0.008680555555555556,147.7517361111111,0)" xlink:href="#Y"/><use transform="matrix(0.008680555555555556,0,0,0.008680555555555556,157.17013888888886,0)" xlink:href="#S"/><use transform="matrix(0.008680555555555556,0,0,0.008680555555555556,166.4756944444444,0)" xlink:href="#U"/></g><g id="w"><use transform="matrix(0.008680555555555556,0,0,0.008680555555555556,0,0)" xlink:href="#H"/><use transform="matrix(0.04938271604938272,0,0,0.04938271604938272,8.34201388888889,0)" xlink:href="#M"/><use transform="matrix(0.04938271604938272,0,0,0.04938271604938272,17.23090277777778,0)" xlink:href="#ae"/><use transform="matrix(0.04938271604938272,0,0,0.04938271604938272,27.107445987654323,0)" xlink:href="#ah"/><use transform="matrix(0.04938271604938272,0,0,0.04938271604938272,41.87287808641976,0)" xlink:href="#am"/><use transform="matrix(0.04938271604938272,0,0,0.04938271604938272,51.7494212962963,0)" xlink:href="#ae"/><use transform="matrix(0.04938271604938272,0,0,0.04938271604938272,61.62596450617284,0)" xlink:href="#af"/><use transform="matrix(0.04938271604938272,0,0,0.04938271604938272,71.5025077160494,0)" xlink:href="#J"/><use transform="matrix(0.04938271604938272,0,0,0.04938271604938272,81.37905092592594,0)" xlink:href="#af"/><use transform="matrix(0.04938271604938272,0,0,0.04938271604938272,91.25559413580248,0)" xlink:href="#ad"/><use transform="matrix(0.008680555555555556,0,0,0.008680555555555556,96.19386574074076,0)" xlink:href="#N"/></g><g id="x"><use transform="matrix(0.008680555555555556,0,0,0.008680555555555556,0,0)" xlink:href="#O"/><use transform="matrix(0.008680555555555556,0,0,0.008680555555555556,11.597222222222223,0)" xlink:href="#aD"/><use transform="matrix(0.008680555555555556,0,0,0.008680555555555556,21.623263888888893,0)" xlink:href="#au"/><use transform="matrix(0.008680555555555556,0,0,0.008680555555555556,37.204861111111114,0)" xlink:href="#R"/><use transform="matrix(0.008680555555555556,0,0,0.008680555555555556,41.51909722222223,0)" xlink:href="#W"/></g><g id="y"><use transform="matrix(0.008680555555555556,0,0,0.008680555555555556,0,0)" xlink:href="#O"/><use transform="matrix(0.008680555555555556,0,0,0.008680555555555556,11.597222222222223,0)" xlink:href="#P"/><use transform="matrix(0.008680555555555556,0,0,0.008680555555555556,21.571180555555557,0)" xlink:href="#P"/><use transform="matrix(0.008680555555555556,0,0,0.008680555555555556,31.545138888888893,0)" xlink:href="#Z"/><use transform="matrix(0.008680555555555556,0,0,0.008680555555555556,37.387152777777786,0)" xlink:href="#V"/><use transform="matrix(0.008680555555555556,0,0,0.008680555555555556,47.39583333333334,0)" xlink:href="#aa"/><use transform="matrix(0.008680555555555556,0,0,0.008680555555555556,55.89409722222222,0)" xlink:href="#Y"/><use transform="matrix(0.008680555555555556,0,0,0.008680555555555556,65.3125,0)" xlink:href="#Z"/></g><path fill="#333" d="M491 20c-241-1-355-148-355-398v-704h185v699c0 164 67 246 200 246 141 0 235-53 282-158v-787h185V0H812l-4-107C736-22 630 20 491 20" id="aG"/><g id="z"><use transform="matrix(0.008680555555555556,0,0,0.008680555555555556,0,0)" xlink:href="#O"/><use transform="matrix(0.008680555555555556,0,0,0.008680555555555556,11.597222222222223,0)" xlink:href="#aG"/><use transform="matrix(0.008680555555555556,0,0,0.008680555555555556,21.397569444444446,0)" xlink:href="#U"/><use transform="matrix(0.008680555555555556,0,0,0.008680555555555556,27.20486111111111,0)" xlink:href="#ai"/><use transform="matrix(0.008680555555555556,0,0,0.008680555555555556,36.996527777777786,0)" xlink:href="#V"/><use transform="matrix(0.008680555555555556,0,0,0.008680555555555556,47.13541666666667,0)" xlink:href="#Z"/><use transform="matrix(0.008680555555555556,0,0,0.008680555555555556,53.15104166666667,0)" xlink:href="#R"/><use transform="matrix(0.008680555555555556,0,0,0.008680555555555556,57.465277777777786,0)" xlink:href="#U"/><use transform="matrix(0.008680555555555556,0,0,0.008680555555555556,63.27256944444445,0)" xlink:href="#av"/></g></defs></g></svg>